<svg xmlns="http://www.w3.org/2000/svg" width="27.474" height="18" viewBox="0 0 27.474 18">
  <g id="kwait" transform="translate(0 -88.276)">
    <path id="Path_648" data-name="Path 648" d="M27.474,94.276H0V88.75a.474.474,0,0,1,.474-.474H27a.474.474,0,0,1,.474.474v5.526Z" transform="translate(0 0)" fill="#73af00"/>
    <path id="Path_649" data-name="Path 649" d="M27,317.909H.474A.474.474,0,0,1,0,317.435v-5.526H27.474v5.526A.474.474,0,0,1,27,317.909Z" transform="translate(0 -211.633)" fill="#ff4b55"/>
    <rect id="Rectangle_659" data-name="Rectangle 659" width="27.474" height="6" transform="translate(0 94.276)" fill="#f5f5f5"/>
    <path id="Path_650" data-name="Path 650" d="M.175,108.182l7.4-5.877V96.288l-7.4-5.877A.466.466,0,0,0,0,90.77v17.053A.466.466,0,0,0,.175,108.182Z" transform="translate(0 -2.02)" fill="#464655"/>
  </g>
</svg>
