<svg id="Capa_1" enable-background="new 0 0 512 512" height="512" viewBox="0 0 512 512" width="512" xmlns="http://www.w3.org/2000/svg"><g><path d="m391.904 150.09v-120.108h-271.808v120.108h-120.096v331.928h512v-331.928zm-361.904 301.928v-271.928h90.096v271.928zm271.048 0h-30.048v-31.736h30.048zm-60.048 0h-30.048v-31.736h30.048zm120.904 0h-30.856v-61.736h-150.096v61.736h-30.856v-392.036h211.808zm120.096 0h-90.096v-271.928h90.096z"/><path d="m241 180.138h30v-30.036h30.036v-30h-30.036v-30.036h-30v30.036h-30.036v30h30.036z"/><path d="m60.036 270.186h30.024v30h-30.024z"/><path d="m60.036 330.234h30.024v30h-30.024z"/><path d="m421.94 270.186h30.023v30h-30.023z"/><path d="m60.036 210.138h30.024v30h-30.024z"/><path d="m421.94 210.138h30.023v30h-30.023z"/><path d="m421.94 330.234h30.023v30h-30.023z"/><path d="m240.988 210.138h30.024v30h-30.024z"/><path d="m180.94 210.138h30.024v30h-30.024z"/><path d="m301.036 210.138h30.023v30h-30.023z"/><path d="m240.988 270.186h30.024v30h-30.024z"/><path d="m180.94 270.186h30.024v30h-30.024z"/><path d="m301.036 270.186h30.023v30h-30.023z"/><path d="m240.988 330.234h30.024v30h-30.024z"/><path d="m180.94 330.234h30.024v30h-30.024z"/><path d="m301.036 330.234h30.023v30h-30.023z"/></g></svg>