<svg id="Capa_1" enable-background="new 0 0 512 512" height="512" viewBox="0 0 512 512" width="512" xmlns="http://www.w3.org/2000/svg"><g><path d="m105.046 168.773h-105.046v309.512h105.046zm-35.642 202.569h-33.762v-30h33.762zm0-67.523h-33.762v-30h33.762zm-33.762-67.523v-30h33.762v30z"/><path d="m406.954 478.286h105.046v-309.513h-105.046zm35.643-271.99h33.761v30h-33.761zm0 67.523h33.761v30h-33.761zm33.76 67.523v30h-33.761v-30z"/><path d="m203.477 438.865h37.523v39.421h-37.523z"/><path d="m271 438.865h37.522v39.421h-37.522z"/><path d="m135.046 478.286h38.431v-69.421h165.045v69.421h38.432v-444.572h-241.908zm137.835-106.944h-33.762v-30h33.762zm0-67.523h-33.762v-30h33.762zm0-67.523h-33.762v-30h33.762zm67.522 135.046h-33.761v-30h33.761zm0-67.523h-33.761v-30h33.761zm0-67.523h-33.761v-30h33.761zm-135.045-131.244h35.642v-35.642h30v35.642h35.643v30h-35.643v35.643h-30v-35.643h-35.642zm-33.762 101.244h33.762v30h-33.762zm0 67.523h33.762v30h-33.762zm0 67.523h33.762v30h-33.762z"/></g></svg>