<svg xmlns="http://www.w3.org/2000/svg" width="24.161" height="24.161" viewBox="0 0 24.161 24.161">
  <g id="about" transform="translate(0)">
    <path id="Path_165" data-name="Path 165" d="M20.623,3.538A12.081,12.081,0,0,0,3.538,20.623,12.081,12.081,0,0,0,20.623,3.538ZM12.082,20.386a.755.755,0,0,1,0-1.51h0a.755.755,0,0,1,0,1.51Zm2.4-7.753a5.588,5.588,0,0,0-1.648,3.977.755.755,0,0,1-1.51,0,7.088,7.088,0,0,1,2.09-5.045,4.436,4.436,0,0,0,1.308-3.158A2.371,2.371,0,0,0,12.355,6.04h-.172A2.371,2.371,0,0,0,9.816,8.408v.275a.755.755,0,1,1-1.51,0V8.408A3.882,3.882,0,0,1,12.183,4.53h.172a3.882,3.882,0,0,1,3.878,3.878A5.936,5.936,0,0,1,14.483,12.634Z" fill="#8b8b8b"/>
  </g>
</svg>
