<svg xmlns="http://www.w3.org/2000/svg" width="26.707" height="30" viewBox="0 0 26.707 30">
  <g id="accounting" transform="translate(-28.102)">
    <g id="Group_180" data-name="Group 180" transform="translate(28.102 0)">
      <g id="Group_179" data-name="Group 179" transform="translate(0)">
        <path id="Path_188" data-name="Path 188" d="M90.3,256.45H84.4a.439.439,0,0,0,0,.879H90.3a.439.439,0,0,0,0-.879Z" transform="translate(-80.683 -241.424)" fill="#012344"/>
        <path id="Path_189" data-name="Path 189" d="M90.3,321.864H84.4a.439.439,0,0,0,0,.879H90.3a.439.439,0,0,0,0-.879Z" transform="translate(-80.683 -303.005)" fill="#012344"/>
        <path id="Path_190" data-name="Path 190" d="M90.3,387.279H84.4a.439.439,0,0,0,0,.879H90.3a.439.439,0,0,0,0-.879Z" transform="translate(-80.683 -364.587)" fill="#012344"/>
        <path id="Path_191" data-name="Path 191" d="M269.335,298.4h.933a.439.439,0,0,0,0-.879h-.933a.439.439,0,0,0,0,.879Z" transform="translate(-254.787 -280.088)" fill="#012344"/>
        <path id="Path_192" data-name="Path 192" d="M318.624,297.521h-.933a.439.439,0,1,0,0,.879h.933a.439.439,0,0,0,0-.879Z" transform="translate(-300.31 -280.088)" fill="#012344"/>
        <path id="Path_193" data-name="Path 193" d="M366.979,297.521h-.933a.439.439,0,1,0,0,.879h.933a.439.439,0,0,0,0-.879Z" transform="translate(-345.831 -280.088)" fill="#012344"/>
        <path id="Path_194" data-name="Path 194" d="M415.336,297.521H414.4a.439.439,0,0,0,0,.879h.933a.439.439,0,0,0,0-.879Z" transform="translate(-391.355 -280.088)" fill="#012344"/>
        <path id="Path_195" data-name="Path 195" d="M269.335,337.4h.933a.439.439,0,0,0,0-.879h-.933a.439.439,0,0,0,0,.879Z" transform="translate(-254.787 -316.803)" fill="#012344"/>
        <path id="Path_196" data-name="Path 196" d="M318.624,336.521h-.933a.439.439,0,1,0,0,.879h.933a.439.439,0,0,0,0-.879Z" transform="translate(-300.31 -316.803)" fill="#012344"/>
        <path id="Path_197" data-name="Path 197" d="M366.979,336.521h-.933a.439.439,0,1,0,0,.879h.933a.439.439,0,0,0,0-.879Z" transform="translate(-345.831 -316.803)" fill="#012344"/>
        <path id="Path_198" data-name="Path 198" d="M415.336,336.521H414.4a.439.439,0,0,0,0,.879h.933a.439.439,0,0,0,0-.879Z" transform="translate(-391.355 -316.803)" fill="#012344"/>
        <path id="Path_199" data-name="Path 199" d="M269.335,376.4h.933a.439.439,0,0,0,0-.879h-.933a.439.439,0,0,0,0,.879Z" transform="translate(-254.787 -353.518)" fill="#012344"/>
        <path id="Path_200" data-name="Path 200" d="M318.624,375.521h-.933a.439.439,0,1,0,0,.879h.933a.439.439,0,0,0,0-.879Z" transform="translate(-300.31 -353.518)" fill="#012344"/>
        <path id="Path_201" data-name="Path 201" d="M366.979,375.521h-.933a.439.439,0,1,0,0,.879h.933a.439.439,0,0,0,0-.879Z" transform="translate(-345.831 -353.518)" fill="#012344"/>
        <path id="Path_202" data-name="Path 202" d="M415.336,375.521H414.4a.439.439,0,0,0,0,.879h.933a.439.439,0,0,0,0-.879Z" transform="translate(-391.355 -353.518)" fill="#012344"/>
        <path id="Path_203" data-name="Path 203" d="M97.072,60.271a.439.439,0,1,0-.481.735,2.941,2.941,0,0,0,1.654.564v.592a.439.439,0,1,0,.879,0v-.624a2.373,2.373,0,0,0,1.91-1.957A2.08,2.08,0,0,0,99.6,57.2c-.172-.061-.33-.119-.477-.175V54.568a1.588,1.588,0,0,1,.7.321.439.439,0,0,0,.593-.648,2.51,2.51,0,0,0-1.3-.562v-.529a.439.439,0,0,0-.879,0v.563q-.13.026-.265.067a1.965,1.965,0,0,0-1.345,1.542,1.724,1.724,0,0,0,.562,1.7,4.811,4.811,0,0,0,1.049.6v3.075a2.078,2.078,0,0,1-1.173-.42Zm2.052-2.308.184.066a1.213,1.213,0,0,1,.859,1.406,1.511,1.511,0,0,1-1.043,1.2Zm-1.386-1.635a.856.856,0,0,1-.241-.844,1.1,1.1,0,0,1,.735-.863l.012,0v2.026A3.173,3.173,0,0,1,97.739,56.328Z" transform="translate(-92.391 -49.621)" fill="#012344"/>
        <path id="Path_204" data-name="Path 204" d="M51.122,27.414a.439.439,0,0,0-.439.439v.314a.955.955,0,0,1-.953.953H29.934a.955.955,0,0,1-.953-.953V1.832a.955.955,0,0,1,.953-.953H45.31a.951.951,0,0,1,.138.011V4.565A1.551,1.551,0,0,0,47,6.114h3.675a.95.95,0,0,1,.011.138v2.1a.439.439,0,0,0,.879,0v-2.1a1.912,1.912,0,0,0-.527-1.286L46.606.537,46.6.527h0l0,0A1.834,1.834,0,0,0,45.31,0H29.934A1.834,1.834,0,0,0,28.1,1.832V28.168A1.834,1.834,0,0,0,29.934,30H49.729a1.834,1.834,0,0,0,1.832-1.832v-.314a.439.439,0,0,0-.439-.439ZM46.326,1.5l3.734,3.734H47a.671.671,0,0,1-.67-.67V1.5Z" transform="translate(-28.102 0)" fill="#012344"/>
        <path id="Path_205" data-name="Path 205" d="M243.237,170.178H231.4a1.527,1.527,0,0,0-1.526,1.526v1.478a.439.439,0,0,0,.879,0V171.7a.647.647,0,0,1,.647-.647h11.833a.647.647,0,0,1,.647.647v13.218a.647.647,0,0,1-.647.647H231.4a.647.647,0,0,1-.647-.647v-9.686a.439.439,0,0,0-.879,0v9.686a1.527,1.527,0,0,0,1.526,1.526h11.833a1.527,1.527,0,0,0,1.526-1.526V171.7A1.527,1.527,0,0,0,243.237,170.178Z" transform="translate(-218.056 -160.207)" fill="#012344"/>
        <path id="Path_206" data-name="Path 206" d="M279.208,207.307a.778.778,0,0,0-.777-.777h-8.757a.778.778,0,0,0-.777.777v2.249a.778.778,0,0,0,.777.777h8.757a.778.778,0,0,0,.777-.777Zm-.879,2.148h-8.554v-2.046h8.554v2.046Z" transform="translate(-254.787 -194.429)" fill="#012344"/>
      </g>
    </g>
  </g>
</svg>
