<svg id="arrival-time" xmlns="http://www.w3.org/2000/svg" width="21" height="21" viewBox="0 0 21 21">
  <path id="Path_155" data-name="Path 155" d="M14.394,6.432A7.219,7.219,0,0,0,0,7.219c0,5.2,3.13,10.577,6.689,13.587a.82.82,0,0,0,1.06,0,17.116,17.116,0,0,0,1.41-1.394,7.3,7.3,0,1,0,5.236-12.98ZM7.219,19.059C5.735,17.6,1.641,13.048,1.641,7.219a5.578,5.578,0,0,1,11.1-.758,7.24,7.24,0,0,0-1.614.4,3.929,3.929,0,1,0-4.266,4.267A7.289,7.289,0,0,0,8,18.252C7.7,18.58,7.432,18.851,7.219,19.059ZM9.507,7.219a2.29,2.29,0,0,1-.068.555A7.362,7.362,0,0,0,7.774,9.439a2.288,2.288,0,1,1,1.733-2.22ZM13.7,19.359a5.66,5.66,0,1,1,5.66-5.66A5.667,5.667,0,0,1,13.7,19.359Zm.82-6,.891.891a.82.82,0,0,1-1.16,1.16l-1.131-1.131a.82.82,0,0,1-.24-.58V10.52a.833.833,0,0,1,.79-.839.82.82,0,0,1,.85.82Z" fill="#8b8b8b"/>
</svg>
