<svg xmlns="http://www.w3.org/2000/svg" width="20.454" height="15" viewBox="0 0 20.454 15">
  <g id="back" transform="translate(0 -68.264)">
    <g id="Group_79" data-name="Group 79" transform="translate(-0.001 68.264)">
      <path id="Path_130" data-name="Path 130" d="M20.113,74.059H6.239l3.208-3.272a.341.341,0,0,0,0-.477L7.555,68.367a.341.341,0,0,0-.489,0L.1,75.526A.341.341,0,0,0,.1,76l6.971,7.159a.341.341,0,0,0,.489,0l1.893-1.944a.341.341,0,0,0,0-.477L6.239,77.469H20.113a.341.341,0,0,0,.341-.341V74.4A.341.341,0,0,0,20.113,74.059Z" transform="translate(0.001 -68.264)"/>
    </g>
  </g>
</svg>
