<svg xmlns="http://www.w3.org/2000/svg" width="17.499" height="21" viewBox="0 0 17.499 21">
  <g id="bell" transform="translate(-42.675)">
    <g id="Group_219" data-name="Group 219" transform="translate(42.675)">
      <g id="Group_218" data-name="Group 218" transform="translate(0)">
        <path id="Path_218" data-name="Path 218" d="M60.112,17.713l-1.5-2.5a7.439,7.439,0,0,1-1.061-3.827V9.187a6.133,6.133,0,0,0-4.375-5.867V1.75a1.75,1.75,0,0,0-3.5,0V3.321A6.133,6.133,0,0,0,45.3,9.187v2.194a7.443,7.443,0,0,1-1.06,3.826l-1.5,2.5a.438.438,0,0,0,.375.663H59.737a.437.437,0,0,0,.375-.662Z" transform="translate(-42.675)" fill="#8b8b8b"/>
      </g>
    </g>
    <g id="Group_221" data-name="Group 221" transform="translate(48.669 19.25)">
      <g id="Group_220" data-name="Group 220">
        <path id="Path_219" data-name="Path 219" d="M188.815,469.333a3.044,3.044,0,0,0,5.511,0Z" transform="translate(-188.815 -469.333)" fill="#8b8b8b"/>
      </g>
    </g>
  </g>
</svg>
