<svg xmlns="http://www.w3.org/2000/svg" width="36.48" height="58.611" viewBox="0 0 36.48 58.611">
  <g id="box" transform="translate(-84.864)">
    <path id="Path_467" data-name="Path 467" d="M113.708,127.887a2.128,2.128,0,0,0-2.046-1.92l-6.923-.106a.956.956,0,0,1-.872-.757l-1.525-9.7a2.049,2.049,0,0,0-2.171-1.783L91.561,114a1.931,1.931,0,0,0-2.056,2.148s-.036,21.553-.08,22.334l-.3,5.333a8.811,8.811,0,0,1-.606,2.517l-3.485,7.887a1.818,1.818,0,0,0,1.252,2.554l1.16.288a2.229,2.229,0,0,0,.537.065,2.514,2.514,0,0,0,2.229-1.352l3.312-6.752a16.394,16.394,0,0,0,1.015-2.817l1.869-7.786,4.523,6.917a6.615,6.615,0,0,1,.844,2.342l.874,7.744a2.308,2.308,0,0,0,2.238,2l1.323,0a1.933,1.933,0,0,0,1.939-2.149l-.913-9.207a13.406,13.406,0,0,0-.694-2.935l-4.053-10.586-.025-2.232,9.419-.349a1.9,1.9,0,0,0,1.826-2.052Zm-8.821,28.879Z" transform="translate(0 -98.807)" fill="#fff"/>
    <path id="Path_468" data-name="Path 468" d="M114.744,12.769a6.386,6.386,0,0,0,6.346-7.078l2.139-.241a2.265,2.265,0,0,0,1.76-1.383l.716-1.957a1.251,1.251,0,0,0-.111-1.161,1.2,1.2,0,0,0-1.007-.49c-.049,0-.1,0-.151.007l-6.185.588a6.382,6.382,0,1,0-3.507,11.715Z" transform="translate(-20.431)" fill="#fff"/>
    <path id="Path_469" data-name="Path 469" d="M255.537,102.843,254.922,94a2.08,2.08,0,0,0-2.046-1.905l-11.825.021a1.857,1.857,0,0,0-1.862,2l.615,8.846a2.079,2.079,0,0,0,2.042,1.905l11.828-.021a1.856,1.856,0,0,0,1.862-2Zm-13.691,1.369Z" transform="translate(-134.199 -80.084)" fill="#fff"/>
  </g>
</svg>
