<svg id="customer" xmlns="http://www.w3.org/2000/svg" width="50.428" height="44" viewBox="0 0 50.428 44">
  <circle id="Ellipse_90" data-name="Ellipse 90" cx="8.5" cy="8.5" r="8.5" transform="translate(17)" fill="#fff"/>
  <circle id="Ellipse_91" data-name="Ellipse 91" cx="5.5" cy="5.5" r="5.5" transform="translate(37 6)" fill="#fff"/>
  <circle id="Ellipse_92" data-name="Ellipse 92" cx="5.5" cy="5.5" r="5.5" transform="translate(2 6)" fill="#fff"/>
  <path id="Path_446" data-name="Path 446" d="M13.217,242.054c-2.132-1.747-4.063-1.516-6.529-1.516A6.675,6.675,0,0,0,0,247.185v10.756a2.894,2.894,0,0,0,2.9,2.886c6.9,0,6.066.125,6.066-.3C8.963,252.908,8.06,247.319,13.217,242.054Z" transform="translate(0 -220.052)" fill="#fff"/>
  <path id="Path_447" data-name="Path 447" d="M135.906,239.966c-4.306-.359-8.05,0-11.278,2.669-5.4,4.328-4.363,10.155-4.363,17.283a3.455,3.455,0,0,0,3.449,3.449c20.79,0,21.617.671,22.85-2.059.4-.923.294-.63.294-9.462,0-7.015-6.074-11.88-10.951-11.88Z" transform="translate(-108.347 -219.44)" fill="#fff"/>
  <path id="Path_448" data-name="Path 448" d="M384.339,240.539c-2.479,0-4.4-.229-6.529,1.516,5.118,5.226,4.254,10.434,4.254,18.476,0,.425-.69.3,5.963.3a3,3,0,0,0,3-2.988V247.187A6.675,6.675,0,0,0,384.339,240.539Z" transform="translate(-340.599 -220.053)" fill="#fff"/>
</svg>
