<svg xmlns="http://www.w3.org/2000/svg" width="12.5" height="18.503" viewBox="0 0 12.5 18.503">
  <g id="delete" transform="translate(-83.057)">
    <path id="XMLID_1089_" d="M95.535,92.148l-.4-1.209a.6.6,0,0,0-.566-.408H84.048a.6.6,0,0,0-.566.408l-.4,1.209a.423.423,0,0,0,.4.557H95.133A.423.423,0,0,0,95.535,92.148Z" transform="translate(0 -87.259)" fill="#fff"/>
    <path id="XMLID_835_" d="M102.3,191.932a.822.822,0,0,0,.817.731h7a.822.822,0,0,0,.817-.731l1.249-11.242H101.05Z" transform="translate(-17.343 -174.16)" fill="#fff"/>
    <path id="XMLID_831_" d="M196.974,1.554a.47.47,0,0,1,.47-.47h1.6a.47.47,0,0,1,.47.47v.634h1.084V1.554A1.556,1.556,0,0,0,199.041,0h-1.6a1.556,1.556,0,0,0-1.554,1.554v.634h1.084Z" transform="translate(-108.755)" fill="#fff"/>
  </g>
</svg>
