<svg xmlns="http://www.w3.org/2000/svg" width="12" height="20.983" viewBox="0 0 12 20.983">
  <g id="dollar" transform="translate(-109.589 0)">
    <g id="Group_137" data-name="Group 137" transform="translate(109.589 0)">
      <path id="Path_152" data-name="Path 152" d="M116.516,9.18V4.518a6.216,6.216,0,0,1,2.742,1.192.981.981,0,0,0,.543.172,1.139,1.139,0,0,0,1.139-1.126,1.011,1.011,0,0,0-.291-.715A6.989,6.989,0,0,0,116.5,2.372V.809A.808.808,0,0,0,115.695,0h-.028a.821.821,0,0,0-.833.809v1.51c-2.98.212-5.007,2.053-5.007,4.5,0,3.007,2.556,3.841,5.007,4.5v5.3a6.875,6.875,0,0,1-3.51-1.55,1.1,1.1,0,0,0-.662-.238A1.153,1.153,0,0,0,109.589,16a1.011,1.011,0,0,0,.291.715,7.8,7.8,0,0,0,4.967,2v1.457c0,.009,0,.019,0,.028a.82.82,0,0,0,.86.78.808.808,0,0,0,.808-.808V18.69c3.616-.238,5.073-2.437,5.073-4.768C121.589,10.8,118.966,9.842,116.516,9.18Zm-1.669-.424c-1.444-.424-2.57-.861-2.57-2.093s1.02-2.119,2.57-2.238Zm1.669,7.894V11.829c1.5.424,2.662.993,2.649,2.384C119.165,15.22,118.476,16.412,116.516,16.65Z" transform="translate(-109.589 0)" fill="#8b8b8b"/>
    </g>
  </g>
</svg>
