<svg xmlns="http://www.w3.org/2000/svg" width="22.25" height="16.5" viewBox="0 0 22.25 16.5">
  <g id="egypt" transform="translate(0 -85.337)">
    <rect id="Rectangle_333" data-name="Rectangle 333" width="22.25" height="16.5" transform="translate(0 85.337)" fill="#f0f0f0"/>
    <rect id="Rectangle_334" data-name="Rectangle 334" width="22.25" height="5.833" transform="translate(0 85.337)" fill="#d80027"/>
    <rect id="Rectangle_335" data-name="Rectangle 335" width="22.25" height="5.833" transform="translate(0 96.004)"/>
    <path id="Path_511" data-name="Path 511" d="M198.563,221.11H196.1a.82.82,0,1,0-1.641,0H192a.844.844,0,0,0,.848.82h-.027a62367.978,62367.978,0,0,1,1.641,1.641H196.1a11260150612361.488,11260150612361.488,0,0,1,1.641-1.641h-.027A.844.844,0,0,0,198.563,221.11Z" transform="translate(-184.156 -128.52)" fill="#ff9811"/>
  </g>
</svg>
