<svg xmlns="http://www.w3.org/2000/svg" width="19" height="19.001" viewBox="0 0 19 19.001">
  <path id="filter" d="M18.758,0H1.242A.742.742,0,0,0,.5.742,7.249,7.249,0,0,0,2.931,6.156L6.182,9.045a2.645,2.645,0,0,1,.887,1.975v7.238a.743.743,0,0,0,1.154.617L12.6,15.956a.742.742,0,0,0,.331-.618V11.02a2.645,2.645,0,0,1,.887-1.975l3.25-2.889A7.249,7.249,0,0,0,19.5.742.742.742,0,0,0,18.758,0ZM16.083,5.046l-3.25,2.889a4.13,4.13,0,0,0-1.385,3.084v3.921l-2.895,1.93V11.02A4.131,4.131,0,0,0,7.168,7.935L3.917,5.046A5.765,5.765,0,0,1,2.032,1.484H17.968a5.764,5.764,0,0,1-1.885,3.562Zm0,0" transform="translate(-0.5 0)" fill="#8b8b8b"/>
</svg>
