<svg id="gear" xmlns="http://www.w3.org/2000/svg" width="20.08" height="20.08" viewBox="0 0 20.08 20.08">
  <g id="Group_9" data-name="Group 9">
    <path id="Path_5" data-name="Path 5" d="M18.105,8.512a8.169,8.169,0,0,0-.314-1.182l1.437-.83.27-.156-.156-.27L18.126,3.967,17.97,3.7l-.27.156-1.435.83a8.313,8.313,0,0,0-.866-.866l.83-1.436.156-.27-.271-.156L14.008.738l-.27-.156-.156.27-.83,1.438a8.071,8.071,0,0,0-1.183-.314V0H8.512V1.976a8.155,8.155,0,0,0-1.18.315L6.5.852,6.345.582l-.27.156L3.968,1.954,3.7,2.11l.156.27.828,1.436a8.289,8.289,0,0,0-.865.865L2.38,3.852,2.11,3.7l-.156.27L.738,6.072l-.156.27.27.156,1.44.832a8.1,8.1,0,0,0-.314,1.182H0v3.056H1.977a8.077,8.077,0,0,0,.314,1.182l-1.439.83-.27.156.156.27,1.216,2.107.156.27.27-.156L3.817,15.4a8.285,8.285,0,0,0,.865.865L3.854,17.7l-.156.27.27.156,2.107,1.216.27.156.156-.27.83-1.438a8.169,8.169,0,0,0,1.181.314V20.08h3.056V18.1a8.145,8.145,0,0,0,1.183-.314l.83,1.438.156.27.27-.156,2.107-1.216.271-.156-.156-.27-.83-1.436a8.283,8.283,0,0,0,.866-.867l1.435.829.27.156.156-.27,1.216-2.105.156-.27-.27-.156-1.437-.83a8.155,8.155,0,0,0,.314-1.182H20.08V8.512H18.105ZM13.341,10.04a3.3,3.3,0,1,1-3.3-3.3A3.305,3.305,0,0,1,13.341,10.04Z" fill="#8b8b8b"/>
  </g>
</svg>
