<svg xmlns="http://www.w3.org/2000/svg" width="24" height="24.656" viewBox="0 0 24 24.656">
  <g id="google-plus" transform="translate(-0.841 0.5)">
    <g id="Group_72" data-name="Group 72" transform="translate(1.341)">
      <path id="Path_125" data-name="Path 125" d="M13.471,13.506l-1.109-.862a1.7,1.7,0,0,1-.8-1.327A2.167,2.167,0,0,1,12.425,9.8c1.292-1.017,2.583-2.1,2.583-4.381a5.2,5.2,0,0,0-2.184-4.166h1.908l2-1.258H10.669A9.387,9.387,0,0,0,4.85,1.843,5.554,5.554,0,0,0,2.881,5.977a4.873,4.873,0,0,0,5.11,4.845c.308,0,.645-.03.984-.062a2.793,2.793,0,0,0-.306,1.2,3.231,3.231,0,0,0,.924,2.1,13.263,13.263,0,0,0-5.881,1.422,4.442,4.442,0,0,0-2.37,3.763c0,2.284,2.153,4.412,6.618,4.412,5.295,0,8.1-2.929,8.1-5.83C16.057,15.7,14.826,14.647,13.471,13.506ZM9.439,9.958c-2.649,0-3.849-3.424-3.849-5.49a3.564,3.564,0,0,1,.676-2.284A2.876,2.876,0,0,1,8.423,1.165c2.553,0,3.878,3.455,3.878,5.677A3.127,3.127,0,0,1,11.531,9.1,3.145,3.145,0,0,1,9.439,9.958Zm.03,12.406c-3.294,0-5.418-1.575-5.418-3.767A3.462,3.462,0,0,1,6.7,15.421a12.193,12.193,0,0,1,3.233-.5,4.963,4.963,0,0,1,.707.031C12.979,16.623,14,17.453,14,19.031,14,20.941,12.425,22.364,9.469,22.364Z" transform="translate(-1.341)" fill="#f44336" stroke="#f44336" stroke-width="1"/>
      <path id="Path_126" data-name="Path 126" d="M68.472,30.979V27.894H66.949v3.085h-3.08v1.54h3.08v3.1h1.523v-3.1h3.1v-1.54Z" transform="translate(-48.567 -21.068)" fill="#f44336" stroke="#f44336" stroke-width="1"/>
    </g>
  </g>
</svg>
