<svg id="Group_196" data-name="Group 196" xmlns="http://www.w3.org/2000/svg" width="18.783" height="15.261" viewBox="0 0 18.783 15.261">
  <path id="Path_211" data-name="Path 211" d="M18.783,49.807a8.028,8.028,0,0,1-2.219.608,3.829,3.829,0,0,0,1.694-2.128,7.7,7.7,0,0,1-2.442.932,3.85,3.85,0,0,0-6.661,2.633,3.965,3.965,0,0,0,.089.878A10.9,10.9,0,0,1,1.308,48.7a3.852,3.852,0,0,0,1.183,5.146,3.8,3.8,0,0,1-1.74-.474v.042A3.868,3.868,0,0,0,3.836,57.2a3.843,3.843,0,0,1-1.01.127,3.4,3.4,0,0,1-.729-.066,3.887,3.887,0,0,0,3.6,2.682A7.737,7.737,0,0,1,.922,61.586,7.212,7.212,0,0,1,0,61.533a10.84,10.84,0,0,0,5.907,1.728A10.884,10.884,0,0,0,16.867,52.3c0-.17-.006-.335-.014-.5A7.682,7.682,0,0,0,18.783,49.807Z" transform="translate(0 -48)" fill="#012344"/>
</svg>
