<svg xmlns="http://www.w3.org/2000/svg" width="20.986" height="19.997" viewBox="0 0 20.986 19.997">
  <g id="home" transform="translate(0 -0.678)">
    <g id="Group_4" data-name="Group 4" transform="translate(0 0.678)">
      <path id="Path_1" data-name="Path 1" d="M5.968,12.876v9.7H18.245v-9.7L12.106,7.73ZM11.462,19.6H8.943V17.085h2.519Zm0-3.805H8.943V13.28h2.519Zm1.287-2.519h2.52V15.8h-2.52Zm0,3.8h2.52V19.6h-2.52Z" transform="translate(-1.613 -2.584)" fill="#8b8b8b"/>
      <path id="Path_2" data-name="Path 2" d="M20.526,8.7,11.32.979a1.289,1.289,0,0,0-1.654,0L.46,8.7A1.287,1.287,0,0,0,2.113,10.67l8.379-7.026,8.38,7.026A1.287,1.287,0,0,0,20.526,8.7Z" transform="translate(0 -0.678)" fill="#8b8b8b"/>
    </g>
  </g>
</svg>
