<svg xmlns="http://www.w3.org/2000/svg" width="16" height="23.572" viewBox="0 0 16 23.572">
  <g id="marker_1_" data-name="marker (1)" transform="translate(-78.957)">
    <g id="Group_135" data-name="Group 135" transform="translate(78.957)">
      <path id="Path_149" data-name="Path 149" d="M86.957,0a8.009,8.009,0,0,0-8,8c0,1.773,1.044,4.468,3.284,8.484,1.529,2.74,3.051,5.054,3.115,5.152l1.1,1.667a.6.6,0,0,0,1,0l1.1-1.667c.064-.1,1.575-2.391,3.115-5.152C93.913,12.469,94.957,9.773,94.957,8A8.009,8.009,0,0,0,86.957,0Zm3.669,15.9c-1.519,2.722-3.006,4.981-3.069,5.076l-.6.909-.6-.909c-.063-.1-1.561-2.374-3.069-5.076C81.21,12.175,80.156,9.517,80.156,8a6.8,6.8,0,0,1,13.6,0C93.758,9.517,92.7,12.175,90.626,15.9Z" transform="translate(-78.957)" fill="#8b8b8b"/>
      <path id="Path_150" data-name="Path 150" d="M157.727,73.291a4.436,4.436,0,1,0,4.436,4.436A4.441,4.441,0,0,0,157.727,73.291Zm0,7.672a3.237,3.237,0,1,1,3.237-3.237A3.24,3.24,0,0,1,157.727,80.963Z" transform="translate(-149.727 -69.777)" fill="#8b8b8b"/>
    </g>
  </g>
</svg>
