<svg xmlns="http://www.w3.org/2000/svg" width="14" height="21.875" viewBox="0 0 14 21.875">
  <g id="microphone" transform="translate(-78.336)">
    <g id="Group_269" data-name="Group 269" transform="translate(78.336 10.526)">
      <g id="Group_268" data-name="Group 268" transform="translate(0)">
        <path id="Path_408" data-name="Path 408" d="M92.336,210.18a.772.772,0,1,0-1.544,0,5.456,5.456,0,0,1-10.912,0,.772.772,0,1,0-1.544,0,7,7,0,0,0,6.228,6.974v2.059H81.759a.772.772,0,1,0,0,1.544h7.154a.772.772,0,1,0,0-1.544H86.108v-2.059A7,7,0,0,0,92.336,210.18Z" transform="translate(-78.336 -209.408)" fill="#8b8b8b"/>
      </g>
    </g>
    <g id="Group_271" data-name="Group 271" transform="translate(81.038)">
      <g id="Group_270" data-name="Group 270" transform="translate(0)">
        <path id="Path_409" data-name="Path 409" d="M136.394,0a4.305,4.305,0,0,0-4.3,4.3v6.974a4.3,4.3,0,1,0,8.6.026v-7A4.305,4.305,0,0,0,136.394,0Z" transform="translate(-132.096)" fill="#8b8b8b"/>
      </g>
    </g>
  </g>
</svg>
