<svg xmlns="http://www.w3.org/2000/svg" width="16.651" height="21" viewBox="0 0 16.651 21">
  <g id="order" transform="translate(-53.02)">
    <g id="Group_141" data-name="Group 141" transform="translate(53.02)">
      <g id="Group_140" data-name="Group 140">
        <path id="Path_153" data-name="Path 153" d="M69.661,17.318,68.723,5.5a1.477,1.477,0,0,0-1.466-1.358H65.4V4.059a4.059,4.059,0,1,0-8.119,0v.083H55.434A1.476,1.476,0,0,0,53.968,5.5l-.938,11.82A3.419,3.419,0,0,0,56.439,21h9.812a3.419,3.419,0,0,0,3.409-3.682ZM58.516,4.059a2.829,2.829,0,1,1,5.658,0v.083H58.516Zm9.341,15.009a2.167,2.167,0,0,1-1.606.7H56.439a2.189,2.189,0,0,1-2.183-2.355l.938-11.82a.241.241,0,0,1,.239-.222h1.852V6.888a.615.615,0,0,0,1.23,0V5.373h5.658V6.888a.615.615,0,1,0,1.23,0V5.373h1.852a.242.242,0,0,1,.24.223l.938,11.817A2.167,2.167,0,0,1,67.858,19.068Z" transform="translate(-53.02)" fill="#8b8b8b"/>
      </g>
    </g>
    <g id="Group_143" data-name="Group 143" transform="translate(58.394 10.25)">
      <g id="Group_142" data-name="Group 142">
        <path id="Path_154" data-name="Path 154" d="M189.774,250.073a.615.615,0,0,0-.87,0l-2.746,2.746-1.056-1.056a.615.615,0,1,0-.87.87l1.491,1.491a.615.615,0,0,0,.87,0l3.181-3.181A.615.615,0,0,0,189.774,250.073Z" transform="translate(-184.052 -249.893)" fill="#8b8b8b"/>
      </g>
    </g>
  </g>
</svg>
