<svg xmlns="http://www.w3.org/2000/svg" width="21.683" height="20" viewBox="0 0 21.683 20">
  <g id="paperclip" transform="translate(0 -1.178)">
    <path id="Path_410" data-name="Path 410" d="M16.124,9.263S17,8.6,16.334,7.929s-1.316.194-1.316.194l-6.71,6.711s-1.572,2.028-2.766.8.8-2.767.8-2.767l8.8-8.8s2.053-2.262,3.984-.333-.341,3.987-.341,3.987L8.9,17.612s-3.163,3.654-6.091.725.762-6.056.762-6.056l7.505-7.508s.84-.7.211-1.334-1.333.211-1.333.211L1.339,12.263a5.093,5.093,0,0,0,.379,7.2,5.1,5.1,0,0,0,7.2.381L20.753,8A3.83,3.83,0,0,0,20.3,2.564a3.829,3.829,0,0,0-5.436-.457L4.676,12.291s-2.609,2.122-.242,4.487,4.45-.279,4.45-.279Z" transform="translate(0 0)" fill="#8b8b8b"/>
  </g>
</svg>
