<svg xmlns="http://www.w3.org/2000/svg" width="20" height="13.75" viewBox="0 0 20 13.75">
  <path id="Path_339" data-name="Path 339" d="M19.15,81.325c-.543-.965-1.131-1.143-2.33-1.21S12.611,80,10,80s-5.626.034-6.823.114-1.786.245-2.334,1.211S0,83.949,0,86.871v.01c0,2.91.287,4.583.846,5.536s1.136,1.14,2.332,1.221,4.21.111,6.824.111,5.62-.041,6.819-.11,1.788-.256,2.33-1.221c.564-.954.849-2.626.849-5.536v-.01C20,83.949,19.715,82.289,19.15,81.325ZM7.5,90.625v-7.5l6.25,3.75Z" transform="translate(0 -80)" fill="#012344"/>
</svg>
