<svg xmlns="http://www.w3.org/2000/svg" width="22" height="23.467" viewBox="0 0 22 23.467">
  <g id="share" transform="translate(-16)">
    <g id="Group_10" data-name="Group 10" transform="translate(16)">
      <path id="Path_11" data-name="Path 11" d="M33.875,15.217A4.11,4.11,0,0,0,30.567,16.9l-6.5-3.329a3.892,3.892,0,0,0-.121-2.693l6.8-4.094a4.1,4.1,0,1,0-1-2.66,4.087,4.087,0,0,0,.287,1.483L23.213,9.714a4.118,4.118,0,1,0,.259,5.1l6.48,3.318a4.069,4.069,0,0,0-.2,1.211,4.125,4.125,0,1,0,4.125-4.125Z" transform="translate(-16)" fill="#8b8b8b"/>
    </g>
  </g>
</svg>
