<svg xmlns="http://www.w3.org/2000/svg" width="23" height="25.6" viewBox="0 0 23 25.6">
  <g id="support" transform="translate(-26)">
    <g id="Group_203" data-name="Group 203" transform="translate(42.5 19.8)">
      <g id="Group_202" data-name="Group 202" transform="translate(0)">
        <path id="Path_212" data-name="Path 212" d="M356.5,396a.5.5,0,1,0,.5.5A.5.5,0,0,0,356.5,396Z" transform="translate(-356 -396)"/>
      </g>
    </g>
    <g id="Group_205" data-name="Group 205" transform="translate(26)">
      <g id="Group_204" data-name="Group 204" transform="translate(0)">
        <path id="Path_213" data-name="Path 213" d="M44.231,18.183l-2.376-.792L41,15.685a5.476,5.476,0,0,0,1.482-2.9l.106-.638h.91a1.5,1.5,0,0,0,1.5-1.5V7.5a7.5,7.5,0,1,0-15,0v3.15a1.5,1.5,0,0,0,1,1.414v.586a1.5,1.5,0,0,0,1.5,1.5h.439a5.424,5.424,0,0,0,.839,1.3c.071.081.145.16.22.237l-.853,1.705-2.377.792A7.37,7.37,0,0,0,26,25.1a.5.5,0,0,0,.5.5h22a.5.5,0,0,0,.5-.5A7.37,7.37,0,0,0,44.231,18.183ZM44,10.65a.5.5,0,0,1-.5.5h-.763c.127-.984.212-2.032.246-3.064,0-.029,0-.057,0-.086H44Zm-12.5.5a.5.5,0,0,1-.5-.5V8h1.015q0,.078.005.157v.005h0c.035,1,.119,2.024.243,2.987H31.5Zm1,2a.5.5,0,0,1-.5-.5v-.5h.41l.106.638c.02.121.045.242.074.362ZM32,7h-.982A6.5,6.5,0,0,1,43.981,7H43a5.064,5.064,0,0,0-5.052-5h-.895A5.064,5.064,0,0,0,32,7Zm5.052-4h.9A4.066,4.066,0,0,1,42,7.07c0,.157,0,.294,0,.419,0,0,0,0,0,0l-.625-.089a8.034,8.034,0,0,1-4.517-2.259A.5.5,0,0,0,36.5,5a4.524,4.524,0,0,0-3.478,1.645A4.064,4.064,0,0,1,37.052,3ZM33.627,13.15a28.579,28.579,0,0,1-.6-4.853l.673-.9a3.519,3.519,0,0,1,2.6-1.394,9.044,9.044,0,0,0,4.927,2.389l.736.105c-.049,1.044-.15,2.092-.294,3.056h0c-.046.31-.082.509-.174,1.066a4.247,4.247,0,0,1-3.014,3.416,3.934,3.934,0,0,1-4.416-1.889h1.019a1.5,1.5,0,0,0,1.414,1h1a1.5,1.5,0,0,0,0-3h-1a1.5,1.5,0,0,0-1.415,1Zm2.831,3.9a5.015,5.015,0,0,0,1.86.042l-.884.934Zm.289,1.7-1.586,1.677a19.05,19.05,0,0,1-1.119-2.6l.6-1.191Zm3.532-2.279.68,1.36a19.045,19.045,0,0,1-1.12,2.6l-1.7-1.7ZM36,13.65a.5.5,0,0,1,.5-.5h1a.5.5,0,1,1,0,1h-1A.5.5,0,0,1,36,13.65ZM27.02,24.6a6.319,6.319,0,0,1,4.065-5.468l2.1-.7a20.043,20.043,0,0,0,1.423,3.087l0,.005h0a20.048,20.048,0,0,0,1.369,2.09l.615.987Zm10.48-.446-.678-1.089q-.011-.018-.024-.036a19.064,19.064,0,0,1-1.127-1.683l1.783-1.886,1.879,1.879A19.042,19.042,0,0,1,38.2,23.03C38.178,23.063,38.213,23.011,37.5,24.154Zm.9.446.615-.987a20.042,20.042,0,0,0,1.378-2.107l.007-.013v0A20.027,20.027,0,0,0,41.81,18.43l2.1.7A6.319,6.319,0,0,1,47.98,24.6H38.4Z" transform="translate(-26)"/>
      </g>
    </g>
    <g id="Group_207" data-name="Group 207" transform="translate(44.257 20.754)">
      <g id="Group_206" data-name="Group 206">
        <path id="Path_214" data-name="Path 214" d="M393.36,416.911a5,5,0,0,0-1.415-1.718.5.5,0,0,0-.61.793,3.993,3.993,0,0,1,1.131,1.373.5.5,0,0,0,.895-.447Z" transform="translate(-391.139 -415.088)"/>
      </g>
    </g>
  </g>
</svg>
