<svg xmlns="http://www.w3.org/2000/svg" xmlns:xlink="http://www.w3.org/1999/xlink" width="335" height="238.897" viewBox="0 0 335 238.897">
  <defs>
    <linearGradient id="linear-gradient" x1="0.501" y1="1" x2="0.501" gradientUnits="objectBoundingBox">
      <stop offset="0" stop-color="gray" stop-opacity="0.251"/>
      <stop offset="0.54" stop-color="gray" stop-opacity="0.122"/>
      <stop offset="1" stop-color="gray" stop-opacity="0.102"/>
    </linearGradient>
  </defs>
  <g id="undraw_social_dashboard_k3pt" transform="translate(0 0.003)">
    <path id="Path_222" data-name="Path 222" d="M286.706,82.038C266.881,81.371,248,75.179,229.97,68.4S194.082,54.119,174.72,50.53c-12.433-2.309-26.668-2.635-36.7,3.818-9.649,6.225-12.767,16.94-14.443,26.89-1.262,7.49-2,15.369,1.452,22.379,2.4,4.867,6.659,8.957,9.606,13.635,10.252,16.219,3,36.221-8.1,52.058-5.207,7.428-11.257,14.524-15.279,22.426s-5.881,16.969-2.362,25.035c3.486,8,11.8,14,20.8,18.229,18.284,8.578,39.821,11.035,60.837,12.425,46.508,3.08,93.26,1.746,139.891.412,17.258-.495,34.589-1,51.565-3.578,9.428-1.435,19.16-3.711,26-9.189,8.69-6.974,10.844-18.786,5.021-27.53-9.765-14.669-36.758-18.315-43.592-34.057-3.755-8.664.1-18.318,5.563-26.354,11.713-17.242,31.345-32.365,32.377-52.073.711-13.534-8.727-27.089-23.32-33.494-15.294-6.714-36.507-5.869-47.785,5.243C324.63,78.223,304.211,82.625,286.706,82.038Z" transform="translate(-90.655 -49.02)" fill="#f9d036" opacity="0.1"/>
    <g id="Group_235" data-name="Group 235" transform="translate(127.844 33.237)" opacity="0.9">
      <rect id="Rectangle_150" data-name="Rectangle 150" width="2.626" height="21.644" rx="1.313" transform="translate(87.328 40.501)" fill="#3a3768"/>
      <rect id="Rectangle_151" data-name="Rectangle 151" width="1.473" height="7.126" rx="0.737" transform="translate(0.053 23.547)" fill="#3a3768"/>
      <rect id="Rectangle_152" data-name="Rectangle 152" width="1.66" height="12.402" rx="0.83" transform="translate(0 36.592)" fill="#3a3768"/>
      <rect id="Rectangle_153" data-name="Rectangle 153" width="1.58" height="12.508" rx="0.79" transform="translate(0.027 53.333)" fill="#3a3768"/>
      <rect id="Rectangle_154" data-name="Rectangle 154" width="87.855" height="178.553" rx="38.99" transform="translate(0.889)" fill="#3a3768"/>
      <rect id="Rectangle_155" data-name="Rectangle 155" width="12.268" height="2.49" rx="1.245" transform="translate(36.34 5.329)" fill="#e6e8ec"/>
      <circle id="Ellipse_63" data-name="Ellipse 63" cx="1.414" cy="1.414" r="1.414" transform="translate(50.464 5.163)" fill="#e6e8ec"/>
    </g>
    <ellipse id="Ellipse_64" data-name="Ellipse 64" cx="59.273" cy="6.041" rx="59.273" ry="6.041" transform="translate(11.284 209.858)" fill="#f9d036" opacity="0.1"/>
    <ellipse id="Ellipse_65" data-name="Ellipse 65" cx="27.768" cy="2.831" rx="27.768" ry="2.831" transform="translate(181.064 233.233)" fill="#f9d036" opacity="0.1"/>
    <ellipse id="Ellipse_66" data-name="Ellipse 66" cx="27.768" cy="2.831" rx="27.768" ry="2.831" transform="translate(279.465 218.97)" fill="#f9d036" opacity="0.1"/>
    <path id="Path_223" data-name="Path 223" d="M556.8,176.84H546.756v1.212a5.744,5.744,0,0,1-5.744,5.744H508.947a5.744,5.744,0,0,1-5.744-5.744V176.84h-9.438a6.975,6.975,0,0,0-6.975,6.977v155.3a6.975,6.975,0,0,0,6.975,6.977H556.8a6.977,6.977,0,0,0,6.977-6.977v-155.3A6.977,6.977,0,0,0,556.8,176.84Z" transform="translate(-352.647 -138.955)" fill="#f9d036"/>
    <path id="Path_224" data-name="Path 224" d="M814.661,134.653s-24.958-1.506-22.014,15.982a4.25,4.25,0,0,0,2.217,4.494s.044-1.3,2.558-.857a11.4,11.4,0,0,0,2.712.13,5.632,5.632,0,0,0,3.317-1.366h0s7.013-2.9,9.743-14.364c0,0,2.019-2.5,1.938-3.145l-4.212,1.8s1.438,3.038.3,5.564c0,0-.136-5.454-.946-5.335-.166.024-2.19,1.052-2.19,1.052s2.478,5.291.593,9.138c0,0,.708-6.521-1.381-8.756l-2.964,1.731s2.893,5.466.934,9.927c0,0,.5-6.841-1.556-9.506l-2.685,2.1s2.718,5.386,1.061,9.085c0,0-.219-7.962-1.645-8.563a16.514,16.514,0,0,0-2.709,2.923s1.862,3.913.708,5.976c0,0-.708-5.306-1.289-5.335,0,0-2.342,3.515-2.585,5.928a12.787,12.787,0,0,1,2.016-6.26,7.053,7.053,0,0,0-3.584,1.855s.365-2.484,4.15-2.7c0,0,1.936-2.668,2.454-2.828,0,0-3.779-.317-6.07.7,0,0,2.016-2.345,6.764-1.278l2.65-2.167s-4.974-.679-7.084.071c0,0,2.431-2.075,7.8-.563l2.887-1.725a26.356,26.356,0,0,0-6.77-.593s2.668-1.438,7.615.122l2.075-.928s-3.109-.611-4.019-.708-.957-.347-.957-.347a10.774,10.774,0,0,1,5.878.67S814.736,134.929,814.661,134.653Z" transform="translate(-565.612 -109.249)" fill="#f9d036"/>
    <path id="Path_225" data-name="Path 225" d="M757.264,108.455s-11.264-.679-9.948,7.223a1.928,1.928,0,0,0,1,2.03s.021-.593,1.156-.388a5.19,5.19,0,0,0,1.224.059,2.555,2.555,0,0,0,1.5-.617h0s3.169-1.31,4.4-6.491c0,0,.913-1.129.889-1.42l-1.9.812a3.41,3.41,0,0,1,.136,2.514s-.059-2.463-.427-2.407c-.074,0-.987.477-.987.477s1.117,2.389.273,4.129c0,0,.32-2.946-.622-3.957l-1.34.783s1.307,2.469.421,4.485c0,0,.228-3.092-.7-4.295l-1.215.949s1.23,2.434.48,4.105c0,0-.1-3.6-.741-3.871a7.323,7.323,0,0,0-1.224,1.322s.839,1.778.317,2.7c0,0-.32-2.4-.593-2.41a7.98,7.98,0,0,0-1.168,2.668,5.769,5.769,0,0,1,.91-2.828,3.174,3.174,0,0,0-1.618.839s.163-1.123,1.879-1.221a7.4,7.4,0,0,1,1.109-1.28,6.949,6.949,0,0,0-2.742.317s.91-1.058,3.056-.593l1.186-.978a10.227,10.227,0,0,0-3.2.033s1.1-.937,3.524-.255l1.3-.78a11.847,11.847,0,0,0-3.056-.264,4.688,4.688,0,0,1,3.438.053l.934-.418s-1.4-.276-1.814-.32-.433-.157-.433-.157a4.849,4.849,0,0,1,2.635.3A11.951,11.951,0,0,0,757.264,108.455Z" transform="translate(-534.525 -90.83)" fill="#f9d036"/>
    <ellipse id="Ellipse_67" data-name="Ellipse 67" cx="11.919" cy="2.016" rx="11.919" ry="2.016" transform="translate(0 199.117)" fill="#f9d036"/>
    <path id="Path_226" data-name="Path 226" d="M82.416,703.422a3.448,3.448,0,0,0,1.138-1.713,1.536,1.536,0,0,0-.794-1.746c-.729-.282-1.509.225-2.1.735a2.8,2.8,0,0,1-2.042.984,3.1,3.1,0,0,0,.951-2.908,1.186,1.186,0,0,0-.267-.593c-.4-.433-1.138-.246-1.624.095-1.541,1.085-1.971,3.177-1.977,5.063a9.338,9.338,0,0,1-.03-2.075,2.138,2.138,0,0,0-.783-1.844,2.372,2.372,0,0,0-1.186-.282,2.48,2.48,0,0,0-1.939.551,1.906,1.906,0,0,0,.077,2.371,7.752,7.752,0,0,0,2,1.607,4.422,4.422,0,0,1,1.435,1.366,1.307,1.307,0,0,1,.107.243h4.342a12.085,12.085,0,0,0,2.685-1.855Z" transform="translate(-65.571 -505.589)" fill="#f9d036"/>
    <path id="Path_227" data-name="Path 227" d="M865.592,632.54s2.564,3.355-1.186,8.418-6.838,9.337-5.587,12.494c0,0,5.656-9.4,10.259-9.535S870.655,638.2,865.592,632.54Z" transform="translate(-611.744 -459.582)" fill="#f9d036"/>
    <path id="Path_228" data-name="Path 228" d="M865.939,632.54a4.224,4.224,0,0,1,.525,1.052c4.491,5.276,6.883,10.2,2.564,10.324-4.019.116-8.845,7.307-10,9.12a3.4,3.4,0,0,0,.136.415s5.655-9.4,10.259-9.535S871,638.2,865.939,632.54Z" transform="translate(-612.09 -459.582)" opacity="0.1"/>
    <path id="Path_229" data-name="Path 229" d="M897.013,645.205c0,1.186-.133,2.137-.3,2.137s-.3-.957-.3-2.137.166-.622.329-.622S897.013,644.02,897.013,645.205Z" transform="translate(-638.341 -467.961)" fill="#ffd037"/>
    <path id="Path_230" data-name="Path 230" d="M899.135,649.8c-1.037.563-1.938.907-2.018.762s.7-.717,1.737-1.284.625-.151.706,0S900.173,649.23,899.135,649.8Z" transform="translate(-638.772 -471.153)" fill="#ffd037"/>
    <path id="Path_231" data-name="Path 231" d="M822.983,632.54s-2.564,3.355,1.186,8.418,6.838,9.337,5.59,12.494c0,0-5.656-9.4-10.259-9.535S817.921,638.2,822.983,632.54Z" transform="translate(-583.073 -459.582)" fill="#f9d036"/>
    <path id="Path_232" data-name="Path 232" d="M822.978,632.54a4.106,4.106,0,0,0-.525,1.052c-4.491,5.276-6.883,10.2-2.567,10.324,4.022.116,8.845,7.307,10,9.12a3.979,3.979,0,0,1-.136.415s-5.655-9.4-10.259-9.535S817.916,638.2,822.978,632.54Z" transform="translate(-583.072 -459.582)" opacity="0.1"/>
    <path id="Path_233" data-name="Path 233" d="M820.55,645.205c0,1.186.133,2.137.3,2.137s.3-.957.3-2.137-.166-.622-.329-.622S820.55,644.02,820.55,645.205Z" transform="translate(-585.653 -467.961)" fill="#ffd037"/>
    <path id="Path_234" data-name="Path 234" d="M813.513,649.8c1.034.563,1.938.907,2.016.762s-.7-.717-1.734-1.284-.628-.151-.706,0S812.488,649.23,813.513,649.8Z" transform="translate(-580.287 -471.153)" fill="#ffd037"/>
    <path id="Path_235" data-name="Path 235" d="M823.31,692.412s7.17-.222,9.331-1.761,11.029-3.376,11.56-.907,10.774,12.274,2.668,12.339-18.81-1.263-20.965-2.576S823.31,692.412,823.31,692.412Z" transform="translate(-586.953 -498.98)" fill="#a8a8a8"/>
    <path id="Path_236" data-name="Path 236" d="M847.032,710.4c-8.095.065-18.81-1.263-20.965-2.576-1.645-1-2.3-4.588-2.516-6.245h-.24s.454,5.783,2.611,7.1,12.87,2.641,20.965,2.576c2.336-.021,3.145-.851,3.1-2.075C849.661,709.921,848.772,710.386,847.032,710.4Z" transform="translate(-586.953 -508.158)" opacity="0.2"/>
    <rect id="Rectangle_156" data-name="Rectangle 156" width="23.129" height="23.129" transform="translate(178.999 144.607)" fill="#3a3768" opacity="0.3"/>
    <rect id="Rectangle_157" data-name="Rectangle 157" width="23.129" height="23.129" transform="translate(143.783 114.077)" fill="#3a3768" opacity="0.3"/>
    <rect id="Rectangle_158" data-name="Rectangle 158" width="23.129" height="23.129" transform="translate(146.08 174.615)" fill="#3a3768" opacity="0.3"/>
    <rect id="Rectangle_159" data-name="Rectangle 159" width="23.129" height="23.129" transform="translate(140.748 57.288)" fill="#fff"/>
    <rect id="Rectangle_160" data-name="Rectangle 160" width="23.129" height="23.129" transform="matrix(0.742, -0.671, 0.671, 0.742, 180.573, 151.788)" fill="#fff"/>
    <rect id="Rectangle_161" data-name="Rectangle 161" width="23.129" height="23.129" transform="translate(178.604 85.159)" fill="#fff"/>
    <rect id="Rectangle_162" data-name="Rectangle 162" width="23.129" height="23.129" transform="translate(148.398 110.947)" fill="#fff"/>
    <path id="Path_237" data-name="Path 237" d="M1022.21,774.081a9.017,9.017,0,0,0,4.031-.136c.2-.062.427-.2.4-.4a.475.475,0,0,0-.092-.2,12.577,12.577,0,0,1-1.224-2.321.19.19,0,0,0-.074-.1.181.181,0,0,0-.13,0c-.593.154-1.109.539-1.7.7a2.432,2.432,0,0,1-.925.071c-.267-.03-.634-.252-.875-.225C1021.768,772.35,1022.106,773.183,1022.21,774.081Z" transform="translate(-724.148 -556.937)" fill="#f9d036"/>
    <path id="Path_238" data-name="Path 238" d="M1106.036,763.066a6.887,6.887,0,0,0,2.333-2.19.358.358,0,0,0,.062-.187.386.386,0,0,0-.074-.184,7.588,7.588,0,0,0-1.894-2.045,5.6,5.6,0,0,0-1.058.975c-.222.234-.839.62-.845.969,0,.21.234.439.344.593.148.219.3.445.424.67A11.1,11.1,0,0,1,1106.036,763.066Z" transform="translate(-782.504 -548.178)" fill="#f9d036"/>
    <path id="Path_239" data-name="Path 239" d="M1008.794,780.184a.887.887,0,0,1-.16.593.791.791,0,0,1-.341.2c-1.885.673-4.055-.169-5.928.5-.388.136-.753.332-1.141.462a6.178,6.178,0,0,1-1.414.252c-.667.065-1.334.1-2,.122a4.842,4.842,0,0,1-1.506-.13,1.823,1.823,0,0,1-1.156-.916.89.89,0,0,1-.056-.652.741.741,0,0,1,.122-.21,1.807,1.807,0,0,1,.445-.359l.694-.448a4.625,4.625,0,0,1,1.049-.557c.273-.089.566-.128.842-.208a5.816,5.816,0,0,0,2.407-1.8l.942-1a.921.921,0,0,1,.326-.261.888.888,0,0,1,.4-.042,5.445,5.445,0,0,1,2.57.865,3.71,3.71,0,0,0,.634.373,2.264,2.264,0,0,0,1.778-.222c.243-.128.19-.208.3-.436s.35-.377.563-.166a.619.619,0,0,1,.133.255,7.075,7.075,0,0,1,.127,2.1.93.93,0,0,0,.042.326,1.963,1.963,0,0,0,.184.3.469.469,0,0,1,.038.077,2.058,2.058,0,0,1,.107,1Z" transform="translate(-705.457 -560.319)" fill="#514e7f"/>
    <path id="Path_240" data-name="Path 240" d="M1008.794,788.433a.888.888,0,0,1-.16.593.791.791,0,0,1-.341.2c-1.885.673-4.055-.169-5.928.5-.388.136-.753.332-1.141.462a6.181,6.181,0,0,1-1.414.252c-.667.065-1.334.1-2,.122a4.836,4.836,0,0,1-1.506-.13,1.823,1.823,0,0,1-1.156-.916.89.89,0,0,1-.056-.652.743.743,0,0,1,.122-.21c.113.231.193.534.261.643a1.315,1.315,0,0,0,.889.637,2.256,2.256,0,0,0,.8-.1c1.707-.424,3.521-.43,5.157-1.07a12.31,12.31,0,0,1,1.69-.649,13.414,13.414,0,0,1,1.826-.148c.963-.077,1.894-.368,2.845-.519A2.056,2.056,0,0,1,1008.794,788.433Z" transform="translate(-705.457 -568.568)" fill="#464353"/>
    <path id="Path_241" data-name="Path 241" d="M1098.772,765.829a3.42,3.42,0,0,1-1.041,1.853,11.878,11.878,0,0,0-1.452,1.592,13.092,13.092,0,0,1-1.343,2.3,3.643,3.643,0,0,1-.806.593,5.585,5.585,0,0,1-1.046.48,8.009,8.009,0,0,1-2.964.163,2.636,2.636,0,0,1-.937-.184,2.736,2.736,0,0,1-.4-.24,1.885,1.885,0,0,1-.593-.614.615.615,0,0,1-.056-.442,1,1,0,0,1,.3-.433,6.689,6.689,0,0,1,.714-.643,4.24,4.24,0,0,0,.931-.818,2.666,2.666,0,0,0,.359-.818,7.333,7.333,0,0,0,.261-1.556,4.895,4.895,0,0,1,.11-1.04c.151-.534.548-1.017.5-1.571a.4.4,0,0,1,.021-.237.371.371,0,0,1,.187-.116,3.378,3.378,0,0,1,.972-.222,1.121,1.121,0,0,1,.889.353c.139.166.228.4.433.471a.717.717,0,0,0,.3,0,2.521,2.521,0,0,0,1.411-.436,1.778,1.778,0,0,0,.593-1.3c0-.184-.083-.377.2-.415.217-.03.385.2.5.344a4.837,4.837,0,0,1,.951,1.734.483.483,0,0,1,.181-.036.774.774,0,0,1,.646.332,1.28,1.28,0,0,1,.19.9Z" transform="translate(-770.936 -551.056)" fill="#514e7f"/>
    <path id="Path_242" data-name="Path 242" d="M1098.949,770.725a3.421,3.421,0,0,1-1.04,1.853,11.87,11.87,0,0,0-1.452,1.592,13.111,13.111,0,0,1-1.343,2.3,3.647,3.647,0,0,1-.806.593,5.589,5.589,0,0,1-1.046.48,8.008,8.008,0,0,1-2.964.163,2.631,2.631,0,0,1-.937-.184,2.719,2.719,0,0,1-.4-.24,1.882,1.882,0,0,1-.593-.614,1.445,1.445,0,0,1,.611-.145c.442.024.762.439,1.186.566.593.181,1.186-.243,1.805-.388.4-.092.818-.065,1.206-.193a2.977,2.977,0,0,0,.889-.539,4.517,4.517,0,0,0,.952-.919,5.86,5.86,0,0,0,.56-1.114,15.921,15.921,0,0,1,1.13-2.161,1.431,1.431,0,0,1,.231-.3c.092-.086.208-.148.3-.225a2.358,2.358,0,0,0,.717-1.307,2.189,2.189,0,0,1,.16-.436.774.774,0,0,1,.646.332A1.28,1.28,0,0,1,1098.949,770.725Z" transform="translate(-771.113 -555.952)" fill="#464353"/>
    <path id="Path_243" data-name="Path 243" d="M978.512,548.053a4.3,4.3,0,0,1,1.209,1.414c.3.557,1.924,4.885,1.829,5.5.534-.539,2.65-.628,3.18-1.165.225-.225,1.443-1.352,1.624-1.612s1.538-.821,1.687-1.088c.554-.993-3.93-4.743-3.358-5.738a.243.243,0,0,0,.047-.154.238.238,0,0,0-.074-.119,7.131,7.131,0,0,0-1.3-.889,2.075,2.075,0,0,1-.99-1.186,4.26,4.26,0,0,0-1.147.777q-1.23,1.052-2.425,2.158c-.314.3-.913.673-1.058,1.085S978.213,547.81,978.512,548.053Z" transform="translate(-693.258 -396.596)" fill="#a1616a"/>
    <path id="Path_244" data-name="Path 244" d="M991.465,554.61a12.994,12.994,0,0,0-1.921,1.571,3.844,3.844,0,0,0-1.224,1.959c-.056.3-.047.611-.095.916-.2,1.328-1.352,2.3-1.858,3.557a6.076,6.076,0,0,0-.326,1.186,13.985,13.985,0,0,0-.231,2.33c0,.759.729,1.28,1,1.989a12.07,12.07,0,0,1,.483,2.155,26.251,26.251,0,0,0,1.212,4c1,2.765,4.248,10.413,5.249,13.181,3.068-.771,11.237-2.54,13.952-4.15.907-.539-6.284-6.634-5.315-7.055a.489.489,0,0,0,.27-.2.468.468,0,0,0,0-.3c-.966-4.236-4-7.707-5.371-11.856a35.79,35.79,0,0,0-1.986-4.016c-.593-1.233-.9-2.594-1.606-3.764a2.52,2.52,0,0,0-.513-.643,3.141,3.141,0,0,0-.569-.341C992.23,554.921,991.857,554.806,991.465,554.61Z" transform="translate(-698.953 -404.751)" fill="#514e7f"/>
    <circle id="Ellipse_68" data-name="Ellipse 68" cx="4.802" cy="4.802" r="4.802" transform="translate(280.615 141.37)" fill="#a1616a"/>
    <path id="Path_245" data-name="Path 245" d="M997.43,548.77a1.609,1.609,0,0,1,1.805-.258.889.889,0,0,1,.536.865l2.371.036a4.959,4.959,0,0,1,1.129.1,1.642,1.642,0,0,1,.943.593c.03.038.062.083.109.092a.189.189,0,0,0,.11-.039,2.09,2.09,0,0,1,1.186-.213,6.409,6.409,0,0,1,3.486,1.532,1.128,1.128,0,0,1,.415.507c.083.27,0,.617.2.8,0,2.238.768,4.322,1.281,6.5a2.879,2.879,0,0,0,.72,1.034,4.151,4.151,0,0,1,.771,1.15c.433,1.129-.166,2.454.258,3.59a5.776,5.776,0,0,0,.818,1.289,3.323,3.323,0,0,1,.7,1.666c.018.273-.018.545,0,.821a5.009,5.009,0,0,0,.2,1.079c.172.655.356,1.31.545,1.962a4.415,4.415,0,0,0,1.657,2.76c-2.285.388-4.692.765-6.871-.027a3.55,3.55,0,0,1-.857-.43,4.936,4.936,0,0,1-1.5-2.425,11.389,11.389,0,0,1-.842-3.13,3.583,3.583,0,0,0-.142-1.023,2.859,2.859,0,0,0-1.349-1.272,6.487,6.487,0,0,1-1.621-1.263,2.519,2.519,0,0,1-.658-1.9c.041-.335.172-.658.187-1a.8.8,0,0,0-.463-.821c-1.663-.5-2.457-2.472-2.828-4.171a13.313,13.313,0,0,1-.214-2.668l-.021-1.716a2.276,2.276,0,0,1-.747-1.642,1.845,1.845,0,0,0,0-.542,1.521,1.521,0,0,0-.379-.593A5.014,5.014,0,0,1,997.43,548.77Z" transform="translate(-707.128 -400.342)" fill="#464353"/>
    <path id="Path_246" data-name="Path 246" d="M979.377,564.9a12.7,12.7,0,0,1-.053,1.612c-.047.2-.127.394-.187.593a3.5,3.5,0,0,0,.222,2.259,12.563,12.563,0,0,0,1.153,2,3.048,3.048,0,0,1,.371.691,3.572,3.572,0,0,1,.142.791,24.094,24.094,0,0,0,.566,3.183,6.254,6.254,0,0,0,1.12,2.558.776.776,0,0,0,.462.314.835.835,0,0,0,.394-.083l1.227-.465a.862.862,0,0,0,.3-.154.745.745,0,0,0,.172-.48,7.058,7.058,0,0,0-.54-2.908c-1-2.828-2.318-5.552-2.964-8.477a6.089,6.089,0,0,0-.871-2.712c-.246-.267-.163-.154-.456,0a3.731,3.731,0,0,0-.43.228A1.408,1.408,0,0,0,979.377,564.9Z" transform="translate(-694.192 -410.976)" fill="#464353"/>
    <path id="Path_247" data-name="Path 247" d="M1059.24,627.68" transform="translate(-750.617 -456.162)" fill="#464353"/>
    <path id="Path_248" data-name="Path 248" d="M991.946,566.66q.489,2.588,1,5.178l4.766-1.251a3.338,3.338,0,0,0-.412-1.426c-.436-1.091-.445-2.3-.8-3.424-.267-.854-.729-1.639-.978-2.5-.145-.5-.216-1.02-.359-1.521a11.615,11.615,0,0,0-.56-1.449,9.237,9.237,0,0,0-1.041-1.93,3.04,3.04,0,0,0-1.607,1.04,2.212,2.212,0,0,0-.3,1.026c-.083,1.073.3,2.149.175,3.21A9.481,9.481,0,0,0,991.946,566.66Z" transform="translate(-703.061 -407.375)" fill="#f9d036"/>
    <path id="Path_249" data-name="Path 249" d="M1006.082,639.62a5.736,5.736,0,0,1-.436,3.089,23.976,23.976,0,0,0-.972,4.651,3.859,3.859,0,0,1-.24,1.186,11.081,11.081,0,0,1-.578.948,4.753,4.753,0,0,0-.365,2.854c.068.64.172,1.277.3,1.909a4.81,4.81,0,0,1,.125,2.324c.376-.083.634.4.62.791s-.151.8.033,1.144c.468.169.474.812.459,1.307a11.019,11.019,0,0,0,.323,2.561q1.061,5.1,2.253,10.164c1.716.534,3.72,1.088,5.356.35a1.052,1.052,0,0,0,.679-.682,1.226,1.226,0,0,0-.065-.525l-.777-2.822a5.194,5.194,0,0,1-.278-2.075c.077-.525.3-1.088.047-1.547a4.475,4.475,0,0,0-.326-.433c-.409-.593-.2-1.39-.16-2.113a1.657,1.657,0,0,0-.036-.483,2.543,2.543,0,0,0-.228-.53,8.1,8.1,0,0,1-.889-4.031.99.99,0,0,0-.071-.528,1.232,1.232,0,0,1-.13-.213.573.573,0,0,1,.042-.388,3.373,3.373,0,0,1-.625-.593.889.889,0,0,0,.148-1.369.456.456,0,0,0,.219-.786c-.1-.071-.231-.1-.3-.2-.11-.148-.021-.359.068-.519l.474-.857c.353-.634.433-1.42.812-2.039a15.3,15.3,0,0,0,1.251-2.854l1.352-3.764.919.8a2.875,2.875,0,0,1,.756.863,3.634,3.634,0,0,1,.243,1.032c.338,2.045,1.627,3.818,2.1,5.836a3.932,3.932,0,0,0,.433,1.3,2.81,2.81,0,0,1,.249.373,1.959,1.959,0,0,1,.1.619,2.888,2.888,0,0,0,1.218,2.075c.451.3,1.023.525,1.26,1.017a2,2,0,0,0,.207.433c.219.264.694.3.788.625.05.187-.047.406.059.569a.519.519,0,0,0,.222.166l1.325.664c1.482.738,2.229,2.431,3.323,3.672a7.617,7.617,0,0,1,.993,1.316c.471.842.691,1.9,1.482,2.442a2.3,2.3,0,0,1,.575.427c.252.329.16.791.181,1.206s.341.907.735.783a2.865,2.865,0,0,0,0,1.532,7.724,7.724,0,0,0,4.683-1.9,1.847,1.847,0,0,0,.762-1.277.5.5,0,0,0-.056-.255.694.694,0,0,0-.3-.225c-1.236-.67-1.609-2.223-2.229-3.486a29.18,29.18,0,0,0-2.039-3.106c-1.482-2.223-2.472-4.911-4.7-6.382a3.183,3.183,0,0,1-1.3-1.144,9.075,9.075,0,0,1-.261-.948.8.8,0,0,0-.7-.593,4.237,4.237,0,0,0,.16-1.482,1.851,1.851,0,0,0-.074-.637,3.014,3.014,0,0,0-.326-.628,6.091,6.091,0,0,1-.839-3.261,5.249,5.249,0,0,0-.056-1.752c-.089-.3-.243-.542-.353-.818a5.1,5.1,0,0,1-.255-1.526l-.122-1.953a9.345,9.345,0,0,0-.252-1.93c-.412-1.515-.806-7.861-2.2-8.575s-3.779,4.168-5.335,4.265a7.118,7.118,0,0,0-2.039.391,9.885,9.885,0,0,0-2.766,1.835l-2.881,2.419a10.5,10.5,0,0,1-1.787,1.289Z" transform="translate(-711.352 -457.337)" fill="#464353"/>
    <path id="Path_250" data-name="Path 250" d="M962.794,520.944a3.622,3.622,0,0,1,2.8-1.364,6.52,6.52,0,0,1,3.089.777,3.988,3.988,0,0,0,.889.37c.51.1,1.073-.036,1.532.207a1.838,1.838,0,0,1,.673,1.835,3.338,3.338,0,0,0,.184,2.03,5.631,5.631,0,0,1,.353.528,1.761,1.761,0,0,1-.033,1.129,9.074,9.074,0,0,1-.593-.744.69.69,0,0,0-.839-.219c-.261.175-.261.5-.273.786s-.089.634-.362.729a.593.593,0,0,1-.593-.237c-.465-.569-.279-1.482-.738-2.051-.264-.326-.7-.483-.943-.824-.19-.267-.237-.614-.4-.889s-.554-.5-.815-.3a1.112,1.112,0,0,0-.216.3,1.248,1.248,0,0,1-1.482.445,2.6,2.6,0,0,0-.643-.276.791.791,0,0,0-.732.4,1.574,1.574,0,0,0-.193.848,1.97,1.97,0,0,1-.16,1.165,1.2,1.2,0,0,1-.344.3,1.018,1.018,0,0,1-1.126.116.847.847,0,0,1-.252-.788,6.475,6.475,0,0,1,.24-.833c.178-.628-.053-1.337.142-1.93A6.076,6.076,0,0,1,962.794,520.944Z" transform="translate(-681.885 -380.104)" fill="#464353"/>
    <path id="Path_251" data-name="Path 251" d="M974.384,552a.742.742,0,0,0,.045.442.717.717,0,0,0,.24.231,4.974,4.974,0,0,0,2.265.732.681.681,0,0,1,.3.08.56.56,0,0,1,.133.631,1.681,1.681,0,0,0-.142.67c.059.424.56.617.987.67a2.288,2.288,0,0,0,1.716-.332,2.647,2.647,0,0,0,.708-1.064c1.165-2.668,1.574-5.632,2.754-8.3a1.687,1.687,0,0,0,.178-.554.551.551,0,0,0-.219-.513c-.219-.136-.56-.059-.708-.27-.074-.11-.065-.255-.13-.368-.136-.243-.492-.213-.738-.344-.19-.1-.323-.3-.534-.353a.682.682,0,0,0-.557.24,7.163,7.163,0,0,0-1.441,2.428,28.809,28.809,0,0,1-2.075,3.827,2.211,2.211,0,0,0-.646-1.266c-.362-.074-.83.563-1.026.8A5.085,5.085,0,0,0,974.384,552Z" transform="translate(-690.902 -396.833)" fill="#f9d036"/>
    <rect id="Rectangle_163" data-name="Rectangle 163" width="23.129" height="23.129" transform="translate(285.906 158.959)" fill="#fff"/>
    <path id="Path_252" data-name="Path 252" d="M1056.2,625.516a9.356,9.356,0,0,0-1.1,1.15,2.292,2.292,0,0,0-.5,1.482.761.761,0,0,0,.142.433.371.371,0,0,0,.412.127.592.592,0,0,0,.2-.181,9.455,9.455,0,0,1,.682-.741c.089-.086.2-.178.32-.145a.338.338,0,0,1,.139.092.943.943,0,0,1,.3.448,1.061,1.061,0,0,1-.314.863,2.236,2.236,0,0,0-.531.786.334.334,0,0,0,0,.252.411.411,0,0,0,.157.136,2.289,2.289,0,0,0,1.918.125c.412-.163.768-.448,1.186-.593a2.848,2.848,0,0,0,.525-.2,1.079,1.079,0,0,0,.465-.693,2.961,2.961,0,0,0,.032-.857,9.781,9.781,0,0,0-.714-3.231.387.387,0,0,0-.116-.172.408.408,0,0,0-.2-.056,4.857,4.857,0,0,0-1.873-.127,1.281,1.281,0,0,0-.442.394C1056.775,624.914,1056.2,625.38,1056.2,625.516Z" transform="translate(-747.352 -453.817)" fill="#a1616a"/>
    <path id="Path_253" data-name="Path 253" d="M1042.118,581.679c0-.5-.617-1.693.359-1.778,0-.528-.75-.86-.613-1.417.047-.19.2-.341.222-.531.062-.542-.916-.836-.756-1.358.059-.2.276-.32.323-.522.11-.468-.729-.679-.744-1.159,0-.163.089-.317.083-.477,0-.2-.178-.359-.276-.534-.252-.453-.131-1.156-.593-1.387.3.024.412-.43.281-.708s-.385-.519-.385-.827a1.306,1.306,0,0,0,0-.341c-.086-.3-.572-.317-.652-.614a3.192,3.192,0,0,1,0-.335c-.03-.231-.267-.374-.489-.442a1.946,1.946,0,0,1-.652-.231c-.142-.11-.3-.3-.46-.193-.056.033-.086.1-.13.148-.181.211-.528.119-.759-.038a3.14,3.14,0,0,1-1.162-2.093c-.148-.806-.139-1.639-.317-2.439a5.591,5.591,0,0,0-.216-.729,3.769,3.769,0,0,1-.344-.729c-.036-.465.931-.148,1.3-.1a5.753,5.753,0,0,1,1.055.2,11.169,11.169,0,0,1,1.076.471c1.482.649,3.237.729,4.416,1.817a3.672,3.672,0,0,0,1.215.987,6.187,6.187,0,0,1,.682.178c.56.264.646,1,.951,1.541a3.289,3.289,0,0,1,.252.445,1.752,1.752,0,0,1,.08.569l.042,1.408a51.994,51.994,0,0,1-.113,7.066,5.833,5.833,0,0,0,.027,2.312c.059.2.145.394.2.593a4.064,4.064,0,0,1,.077.732l.032.91a.22.22,0,0,1-.29.27c-1.271-.113-2.552-.83-3.753-.4" transform="translate(-733.448 -410.44)" fill="#464353"/>
    <path id="Path_254" data-name="Path 254" d="M978.851,613.43a.39.39,0,0,0-.142.119,1.011,1.011,0,0,0,0,1.2.406.406,0,0,1,.071.119.349.349,0,0,1-.036.2.667.667,0,0,0,.092.747c.092.077.216.115.276.216.1.172-.042.391-.018.593.03.264.341.394.593.427a.632.632,0,0,0,.578-.154.48.48,0,0,0,0-.525,1.407,1.407,0,0,0-.391-.391.593.593,0,0,0,.56-.542.842.842,0,0,0-.338-.738c-.053-.044-.119-.089-.133-.16s.056-.169.121-.237c.3-.3.525-1.023-.032-1.186a1.373,1.373,0,0,0-.593.027c-.142.045-.142.13-.252.19S978.975,613.367,978.851,613.43Z" transform="translate(-693.816 -445.904)" fill="#a1616a"/>
    <path id="Path_255" data-name="Path 255" d="M993.963,545.14a.977.977,0,0,0-.753.379,2.164,2.164,0,0,0-.314,1.008,8.837,8.837,0,0,1-1.186,3.219" transform="translate(-703.104 -398.088)" opacity="0.1"/>
    <path id="Path_256" data-name="Path 256" d="M997.54,547.88a1.15,1.15,0,0,0-.984.593,3.292,3.292,0,0,0-.249,1,5.46,5.46,0,0,1-.987,2.107" transform="translate(-705.644 -400.015)" opacity="0.1"/>
    <path id="Path_257" data-name="Path 257" d="M323.875,604.163c.172,1.873-1.242,3.687-.83,5.519.089.391.258.762.32,1.156a4.466,4.466,0,0,1-1.1,3.029l-5.318,7.807a5.06,5.06,0,0,1-.762.94c-1.02.889-2.543.809-3.88,1.079a6.655,6.655,0,0,0-2.6,1.15.169.169,0,0,0-.036.234,2.238,2.238,0,0,0,1.933.907c.139.184,0,.453-.193.593-.3.2-.679.249-.735.735a.8.8,0,0,0,.1.486,1.5,1.5,0,0,0,.931.646c1.841.563,3.833-.424,5.208-1.779s2.371-3.044,3.723-4.416c.75-.756,1.6-1.408,2.371-2.143a27.281,27.281,0,0,0,3.892-5.039,5.6,5.6,0,0,0,.842-1.713c.142-.611.077-1.254.243-1.859a6.71,6.71,0,0,1,1.275-2.075,6.888,6.888,0,0,0,1.449-4.491,4.3,4.3,0,0,0-2.626-3.726,2.351,2.351,0,0,0-1.482-.092,3.577,3.577,0,0,0-1.5,1.186l-1.008,1.168a2.692,2.692,0,0,0-.593.889.934.934,0,0,0,.207.993" transform="translate(-230.691 -437.415)" fill="#fbbebe"/>
    <path id="Path_258" data-name="Path 258" d="M323.875,604.163c.172,1.873-1.242,3.687-.83,5.519.089.391.258.762.32,1.156a4.466,4.466,0,0,1-1.1,3.029l-5.318,7.807a5.06,5.06,0,0,1-.762.94c-1.02.889-2.543.809-3.88,1.079a6.655,6.655,0,0,0-2.6,1.15.169.169,0,0,0-.036.234,2.238,2.238,0,0,0,1.933.907c.139.184,0,.453-.193.593-.3.2-.679.249-.735.735a.8.8,0,0,0,.1.486,1.5,1.5,0,0,0,.931.646c1.841.563,3.833-.424,5.208-1.779s2.371-3.044,3.723-4.416c.75-.756,1.6-1.408,2.371-2.143a27.281,27.281,0,0,0,3.892-5.039,5.6,5.6,0,0,0,.842-1.713c.142-.611.077-1.254.243-1.859a6.71,6.71,0,0,1,1.275-2.075,6.888,6.888,0,0,0,1.449-4.491,4.3,4.3,0,0,0-2.626-3.726,2.351,2.351,0,0,0-1.482-.092,3.577,3.577,0,0,0-1.5,1.186l-1.008,1.168a2.692,2.692,0,0,0-.593.889.934.934,0,0,0,.207.993" transform="translate(-230.691 -437.415)" opacity="0.05"/>
    <path id="Path_259" data-name="Path 259" d="M214.362,610.023c.3.937.593,1.873.951,2.786a23.576,23.576,0,0,0,2.463,4.494,32.375,32.375,0,0,0,2.036,2.668,8.966,8.966,0,0,1,2.241,3.512,17.787,17.787,0,0,1,.2,2.422,2.957,2.957,0,0,0,.993,2.146,3.69,3.69,0,0,0,1.636.539c.409.065.922.086,1.135-.27a1.011,1.011,0,0,0,.113-.468l.1-1.186c.021-.255.11-.593.365-.593s.385.329.593.48a.643.643,0,0,0,.889-.3,1.482,1.482,0,0,0,.024-1.037,4.926,4.926,0,0,0-2.528-3.133,7.6,7.6,0,0,1-1.233-.643,4.194,4.194,0,0,1-.969-1.221,76.653,76.653,0,0,1-6.076-11.415,8.444,8.444,0,0,1-.625-2.25,14.522,14.522,0,0,1,.1-2.371,13.573,13.573,0,0,0-.391-4.233,3.329,3.329,0,0,0-.406-1.029,2.3,2.3,0,0,0-3.148-.453,3.243,3.243,0,0,0-1.251,2.288,6.534,6.534,0,0,0,.625,2.371Q213.286,606.576,214.362,610.023Z" transform="translate(-164.201 -435.316)" fill="#a1616a"/>
    <path id="Path_260" data-name="Path 260" d="M214.362,610.023c.3.937.593,1.873.951,2.786a23.576,23.576,0,0,0,2.463,4.494,32.375,32.375,0,0,0,2.036,2.668,8.966,8.966,0,0,1,2.241,3.512,17.787,17.787,0,0,1,.2,2.422,2.957,2.957,0,0,0,.993,2.146,3.69,3.69,0,0,0,1.636.539c.409.065.922.086,1.135-.27a1.011,1.011,0,0,0,.113-.468l.1-1.186c.021-.255.11-.593.365-.593s.385.329.593.48a.643.643,0,0,0,.889-.3,1.482,1.482,0,0,0,.024-1.037,4.926,4.926,0,0,0-2.528-3.133,7.6,7.6,0,0,1-1.233-.643,4.194,4.194,0,0,1-.969-1.221,76.653,76.653,0,0,1-6.076-11.415,8.444,8.444,0,0,1-.625-2.25,14.522,14.522,0,0,1,.1-2.371,13.573,13.573,0,0,0-.391-4.233,3.329,3.329,0,0,0-.406-1.029,2.3,2.3,0,0,0-3.148-.453,3.243,3.243,0,0,0-1.251,2.288,6.534,6.534,0,0,0,.625,2.371Q213.286,606.576,214.362,610.023Z" transform="translate(-164.201 -435.316)" opacity="0.05"/>
    <path id="Path_261" data-name="Path 261" d="M361.714,752.059a6.21,6.21,0,0,1-3.96.593c-.216-.027-.474-.044-.614.124-.2.243.036.593.282.8a5.891,5.891,0,0,0,2.721,1.117,18.564,18.564,0,0,0,2.668.178,45.106,45.106,0,0,0,7.271-.27.965.965,0,0,0,.4-.116.753.753,0,0,0,.3-.456,1.817,1.817,0,0,0-.634-1.731,5.335,5.335,0,0,0-1.7-.91l-2.11-.821a5.428,5.428,0,0,0-1.829-.664C363.51,749.97,362.552,751.567,361.714,752.059Z" transform="translate(-263.665 -542.156)" fill="#3f3d56"/>
    <path id="Path_262" data-name="Path 262" d="M380.346,767.174A5.184,5.184,0,0,1,376.8,768.5c-.332,0-.794.062-.794.394a.521.521,0,0,0,.095.276,3.26,3.26,0,0,0,1.832,1.435,6.526,6.526,0,0,0,2.211.139l2.164-.113c.409-.021.821-.042,1.227-.092s.848-.133,1.272-.2a16.957,16.957,0,0,1,3.151-.148.917.917,0,0,0,.777-.207c.193-.243.08-.593.018-.889-.13-.625,0-1.283-.122-1.915a3.367,3.367,0,0,0-2.208-2.351c-.972-.37-2.7-.794-3.619-.178A23.315,23.315,0,0,0,380.346,767.174Z" transform="translate(-276.824 -552.312)" fill="#3f3d56"/>
    <path id="Path_263" data-name="Path 263" d="M372.419,651c-.889,1.171-1.778,2.522-1.571,3.969a8.952,8.952,0,0,0,.874,2.19,15.435,15.435,0,0,1,.889,3.077c.329,1.532.658,3.068.863,4.621a28.856,28.856,0,0,1,.193,5.306,1.79,1.79,0,0,1-.371,1.186c-.119.119-.273.216-.323.376a.638.638,0,0,0,.068.445,4.923,4.923,0,0,0,2.638,2.428,10.105,10.105,0,0,0,3.587.67,1.008,1.008,0,0,0,.48-.062.925.925,0,0,0,.371-.424c.889-1.69.394-3.729.409-5.632,0-1.592.385-3.169.317-4.76-.056-1.275-.4-2.52-.522-3.791a22.439,22.439,0,0,1,.56-6.239c.3-1.577.593-3.157.963-4.719a9,9,0,0,1,1.02-2.739c.415-.655.978-1.2,1.452-1.82a8.261,8.261,0,0,0,1.624-6.038c-.03-.213-3.053.765-3.314.889a10.275,10.275,0,0,0-2.964,1.9,24.539,24.539,0,0,0-1.861,2.3q-1.3,1.58-2.555,3.177Q373.812,649.137,372.419,651Z" transform="translate(-273.197 -464.132)" fill="#464353"/>
    <path id="Path_264" data-name="Path 264" d="M372.419,651c-.889,1.171-1.778,2.522-1.571,3.969a8.952,8.952,0,0,0,.874,2.19,15.435,15.435,0,0,1,.889,3.077c.329,1.532.658,3.068.863,4.621a28.856,28.856,0,0,1,.193,5.306,1.79,1.79,0,0,1-.371,1.186c-.119.119-.273.216-.323.376a.638.638,0,0,0,.068.445,4.923,4.923,0,0,0,2.638,2.428,10.105,10.105,0,0,0,3.587.67,1.008,1.008,0,0,0,.48-.062.925.925,0,0,0,.371-.424c.889-1.69.394-3.729.409-5.632,0-1.592.385-3.169.317-4.76-.056-1.275-.4-2.52-.522-3.791a22.439,22.439,0,0,1,.56-6.239c.3-1.577.593-3.157.963-4.719a9,9,0,0,1,1.02-2.739c.415-.655.978-1.2,1.452-1.82a8.261,8.261,0,0,0,1.624-6.038c-.03-.213-3.053.765-3.314.889a10.275,10.275,0,0,0-2.964,1.9,24.539,24.539,0,0,0-1.861,2.3q-1.3,1.58-2.555,3.177Q373.812,649.137,372.419,651Z" transform="translate(-273.197 -464.132)" opacity="0.05"/>
    <path id="Path_265" data-name="Path 265" d="M387.57,638.357c.19.907,1.07,1.6,1.094,2.528a3.968,3.968,0,0,1-.889,2,13.425,13.425,0,0,0-.907,2.057,31.37,31.37,0,0,1-2.668,5.3,4.217,4.217,0,0,0-.957,2.626,3.878,3.878,0,0,0,.459,1.254l1.524,3.026a8.685,8.685,0,0,1,.777,1.912c.133.575.145,1.186.222,1.755.24,1.856,1.109,3.723.593,5.522-.044.154-.208.341-.329.234a5.767,5.767,0,0,1,.868,2.964,4.126,4.126,0,0,0,.018,1.663,1.815,1.815,0,0,1,.231.634c0,.151-.071.3-.086.448a.991.991,0,0,0,.759.922c.409.136.854.127,1.266.249a7.886,7.886,0,0,1,2.039,1.393,4.283,4.283,0,0,0,2.339.762.593.593,0,0,0,.344-.068.563.563,0,0,0,.193-.418,2.324,2.324,0,0,0-.839-2.019.934.934,0,0,1-.3-.326.791.791,0,0,1-.03-.365,27.028,27.028,0,0,0-.089-4.994,7.7,7.7,0,0,1-.077-1.589,6.5,6.5,0,0,0,.127-1.325,6.763,6.763,0,0,0-.406-1.266,8.872,8.872,0,0,1-.193-2.371,20.78,20.78,0,0,0-.67-4.058,3.079,3.079,0,0,0-.631-1.464c-.317-.332-.83-.646-.708-1.088a1.256,1.256,0,0,1,.3-.433,1.737,1.737,0,0,0,.365-1.325.593.593,0,0,0,.682-.32,10.671,10.671,0,0,0,5.359-6.094,1.979,1.979,0,0,1,.24-.542,2.473,2.473,0,0,1,.981-.637,7.441,7.441,0,0,0,2.576-2.626,6.108,6.108,0,0,0,1-1.906,6.28,6.28,0,0,0,.136-1.375l.062-2.371a1.361,1.361,0,0,0-.044-.465,1.184,1.184,0,0,0-.258-.379,4.6,4.6,0,0,0-2.531-1.364c-.649-.116-1.313-.095-1.971-.148a24.813,24.813,0,0,0-3.812-.409,6.132,6.132,0,0,0-4.743,3.311C388.631,637.8,388.281,638.336,387.57,638.357Z" transform="translate(-281.768 -460.499)" fill="#464353"/>
    <path id="Path_266" data-name="Path 266" d="M172.424,755.113a3.228,3.228,0,0,0,1.363.163c.033-.376.539-.459.916-.442a1.052,1.052,0,0,1,.539.119c.095.059.166.148.258.21a1.108,1.108,0,0,0,.534.136l1.962.166a5.874,5.874,0,0,0,2.6-.172.85.85,0,0,0,.418-.279c.222-.317,0-.774-.3-1s-.7-.338-1.011-.575c-.682-.519-.774-1.482-1.135-2.265a6.535,6.535,0,0,0-.937-1.361,5.21,5.21,0,0,0-.928-.949,4.851,4.851,0,0,0-2.614-.637,1.751,1.751,0,0,0-1.734.48c-.578.717-.347,2.164-.311,3.02A21.617,21.617,0,0,0,172.424,755.113Z" transform="translate(-136.345 -540.954)" fill="#514e7f"/>
    <path id="Path_267" data-name="Path 267" d="M172.424,755.113a3.228,3.228,0,0,0,1.363.163c.033-.376.539-.459.916-.442a1.052,1.052,0,0,1,.539.119c.095.059.166.148.258.21a1.108,1.108,0,0,0,.534.136l1.962.166a5.874,5.874,0,0,0,2.6-.172.85.85,0,0,0,.418-.279c.222-.317,0-.774-.3-1s-.7-.338-1.011-.575c-.682-.519-.774-1.482-1.135-2.265a6.535,6.535,0,0,0-.937-1.361,5.21,5.21,0,0,0-.928-.949,4.851,4.851,0,0,0-2.614-.637,1.751,1.751,0,0,0-1.734.48c-.578.717-.347,2.164-.311,3.02A21.617,21.617,0,0,0,172.424,755.113Z" transform="translate(-136.345 -540.954)" opacity="0.05"/>
    <path id="Path_268" data-name="Path 268" d="M165.254,639.088a1.374,1.374,0,0,0-.75,1.562,5.608,5.608,0,0,0,.791,1.7c.871,1.562,1.251,3.349,1.983,4.98.548,1.218,1.289,2.344,1.832,3.557a5.985,5.985,0,0,1,.548,3.895c-.16.631-.468,1.212-.676,1.829a10.374,10.374,0,0,0-.4,2.075,39.329,39.329,0,0,0-.142,7.161,2.175,2.175,0,0,0,.181.848c.122.237.335.486.231.732-.041.1-.13.169-.175.267-.124.273.127.557.356.75a.614.614,0,0,1-.385.3.91.91,0,0,1,.388,1.014c-.2.03-.216.341-.086.5s.329.267.421.451a.631.631,0,0,1-.347.794,1.625,1.625,0,0,1-.946.071,10.248,10.248,0,0,1-1.583-.347,1.424,1.424,0,0,1-.486-.222,1.444,1.444,0,0,1-.436-.96,17.352,17.352,0,0,1-.11-2.964c.086-4.79,0-9.586-.208-14.373a16.458,16.458,0,0,0-1.411-5.584,28.653,28.653,0,0,0-1.375-2.668c-1.073-1.974-2.027-4.15-1.778-6.388.027-.24.116-.531.353-.569a.513.513,0,0,1,.273.044,12.6,12.6,0,0,1,1.438.794,5.448,5.448,0,0,0,2.5.747Z" transform="translate(-128.381 -463.071)" fill="#464353"/>
    <path id="Path_269" data-name="Path 269" d="M165.254,639.088a1.374,1.374,0,0,0-.75,1.562,5.608,5.608,0,0,0,.791,1.7c.871,1.562,1.251,3.349,1.983,4.98.548,1.218,1.289,2.344,1.832,3.557a5.985,5.985,0,0,1,.548,3.895c-.16.631-.468,1.212-.676,1.829a10.374,10.374,0,0,0-.4,2.075,39.329,39.329,0,0,0-.142,7.161,2.175,2.175,0,0,0,.181.848c.122.237.335.486.231.732-.041.1-.13.169-.175.267-.124.273.127.557.356.75a.614.614,0,0,1-.385.3.91.91,0,0,1,.388,1.014c-.2.03-.216.341-.086.5s.329.267.421.451a.631.631,0,0,1-.347.794,1.625,1.625,0,0,1-.946.071,10.248,10.248,0,0,1-1.583-.347,1.424,1.424,0,0,1-.486-.222,1.444,1.444,0,0,1-.436-.96,17.352,17.352,0,0,1-.11-2.964c.086-4.79,0-9.586-.208-14.373a16.458,16.458,0,0,0-1.411-5.584,28.653,28.653,0,0,0-1.375-2.668c-1.073-1.974-2.027-4.15-1.778-6.388.027-.24.116-.531.353-.569a.513.513,0,0,1,.273.044,12.6,12.6,0,0,1,1.438.794,5.448,5.448,0,0,0,2.5.747Z" transform="translate(-128.381 -463.071)" opacity="0.05"/>
    <path id="Path_270" data-name="Path 270" d="M137.13,622.429a1.58,1.58,0,0,0-2.179.234,11.911,11.911,0,0,0-1.126.99,6.026,6.026,0,0,0-1.346,5.961,11.91,11.91,0,0,0,1.648,2.923l1.3,1.873c1.989,2.857,3.981,5.715,6.065,8.5a.32.32,0,0,0,.225.3c.077.021.169.018.216.08a.231.231,0,0,1,.027.127,1.935,1.935,0,0,1-.116.593.276.276,0,0,0-.024.2c.065.157.353.068.442.216a.236.236,0,0,1-.095.3.343.343,0,0,0-.163.3c.015.121.213.234.2.382,0,.083-.071.145-.122.21a.536.536,0,0,0,.065.685c.136,1.363-.593,2.653-.75,4.016-.234,2.143.735,4.236.854,6.388a1.71,1.71,0,0,0,.133.705c.2.371.717.593.7,1.017a3.88,3.88,0,0,1-.145.513,4.124,4.124,0,0,0,.077.732c0,.246-.207.539-.436.445q.258.854.456,1.722l4.565.376a4.1,4.1,0,0,0-.042-1.233c-.095-.439-.3-.851-.4-1.289a1.521,1.521,0,0,1,.181-1.289.5.5,0,0,1-.5-.415,2.034,2.034,0,0,1,0-.708c.122-1.186-.379-2.371-.365-3.557a17.137,17.137,0,0,1,.513-2.771c.356-1.98-.015-4.129.866-5.928.534-1.091,1.272-2.3.673-3.355-.3-.522-.815-.889-1.153-1.369a5.564,5.564,0,0,1-.62-1.482,50.058,50.058,0,0,0-2.84-6.26,6.589,6.589,0,0,1-.611-1.645,8.36,8.36,0,0,1-.074-1.518,23.265,23.265,0,0,0-.169-2.727,1.988,1.988,0,0,0-1.043-1.778A49.073,49.073,0,0,0,137.13,622.429Z" transform="translate(-108.354 -452.236)" fill="#464353"/>
    <path id="Path_271" data-name="Path 271" d="M166.183,760.76a3.227,3.227,0,0,0,1.363.163c.036-.376.539-.459.916-.442a1.053,1.053,0,0,1,.525.122c.095.059.166.148.261.21a1.089,1.089,0,0,0,.534.136l1.959.166a5.892,5.892,0,0,0,2.605-.172.856.856,0,0,0,.415-.279c.222-.317,0-.774-.3-1s-.7-.338-1.014-.575c-.679-.519-.774-1.482-1.135-2.265a6.538,6.538,0,0,0-.937-1.361,5.2,5.2,0,0,0-.925-.948,4.859,4.859,0,0,0-2.614-.637,1.748,1.748,0,0,0-1.734.48c-.593.717-.35,2.164-.314,3.02A22.023,22.023,0,0,0,166.183,760.76Z" transform="translate(-131.939 -544.929)" fill="#514e7f"/>
    <rect id="Rectangle_164" data-name="Rectangle 164" width="23.129" height="23.129" transform="translate(60.948 181.451)" fill="#fff"/>
    <circle id="Ellipse_69" data-name="Ellipse 69" cx="4.52" cy="4.52" r="4.52" transform="translate(49.951 153.25)" fill="#a1616a"/>
    <path id="Path_272" data-name="Path 272" d="M200.451,583.748a4.313,4.313,0,0,1-2.428.688,15.172,15.172,0,0,0-5.223,1.512,1.862,1.862,0,0,0-.593.415,1.71,1.71,0,0,0-.3.646,4.274,4.274,0,0,0-.172,1.571,4.53,4.53,0,0,0,.436,1.482,7.956,7.956,0,0,0,2.8,3.2,2.039,2.039,0,0,0,.682.326,3.965,3.965,0,0,0,1.755-.376,2.875,2.875,0,0,1,1.621.053c.492.163,1.011.462,1.482.264a1.548,1.548,0,0,0,.676-.768,26.043,26.043,0,0,0,1.233-2.7,10.233,10.233,0,0,1,.448-1.049c.525-1,1.432-1.779,1.882-2.8a.617.617,0,0,0,.042-.528.732.732,0,0,0-.332-.255A7.92,7.92,0,0,1,202.663,584c-.3-.3-.845-1.055-1.272-1.123C200.923,582.818,200.777,583.47,200.451,583.748Z" transform="translate(-150.243 -424.638)" fill="#a1616a"/>
    <path id="Path_273" data-name="Path 273" d="M169.347,600.363a2.7,2.7,0,0,1-1.71.021,18.883,18.883,0,0,1-4.3-1.251,2.3,2.3,0,0,1-1.055-.809,2.588,2.588,0,0,1-.3-1.014l-.249-1.681a10.189,10.189,0,0,1,.077-1.725.5.5,0,0,0-.1-.376.406.406,0,0,0-.3-.092c-.679,0-1.088.72-1.565,1.2a2.889,2.889,0,0,1-.96.646c-.436.178-.972.3-1.147.738-.074.181-.065.388-.139.569-.3.723-1.6.483-1.93,1.186-.095.2-.089.456-.246.617s-.445.154-.682.2c-.943.154-1.4,1.245-2.208,1.758a18.249,18.249,0,0,1-2.282.762,8.743,8.743,0,0,1-1.186.593,5.606,5.606,0,0,1-1.375.068.37.37,0,0,0-.276.089.38.38,0,0,0-.044.3,8.32,8.32,0,0,0,5.143,6.441,1.813,1.813,0,0,1,.439.21c.412.3.483.969.949,1.186a.981.981,0,0,0,.99-.213,8.62,8.62,0,0,0,.714-.788,2.845,2.845,0,0,1,1.592-.836,3.508,3.508,0,0,0,1.639-.368,5.049,5.049,0,0,0,.516-.551,3.234,3.234,0,0,1,1.186-.7,11.854,11.854,0,0,1,3.705-.783,13.043,13.043,0,0,0,3.539-.347,2.075,2.075,0,0,0,.788-.445,2.371,2.371,0,0,0,.528-.916A6.992,6.992,0,0,0,169.347,600.363Z" transform="translate(-119.032 -432.067)" fill="#514e7f"/>
    <path id="Path_274" data-name="Path 274" d="M195.86,594.108c.335-.03.67,0,1,0,.394,0,.782-.095,1.186-.1a2.923,2.923,0,0,1,2.757,2.1.534.534,0,0,1,.018.3.21.21,0,0,1-.228.154,5.009,5.009,0,0,0-.507-1.017,2.878,2.878,0,0,0-1.518-1.055,3.94,3.94,0,0,0-1.867-.068c-.255.047-.507.116-.759.187l-1.23.332c-.222.059-.445.121-.661.2-.166.059-.454.3-.617.3-.222,0-.041-.193.056-.323a1.582,1.582,0,0,1,.788-.572A6.634,6.634,0,0,1,195.86,594.108Z" transform="translate(-151.372 -432.472)" fill="#514e7f"/>
    <path id="Path_275" data-name="Path 275" d="M205.544,611.712c.3.937.593,1.873.951,2.786a23.578,23.578,0,0,0,2.466,4.494A32.38,32.38,0,0,0,211,621.66a8.967,8.967,0,0,1,2.241,3.512,17.789,17.789,0,0,1,.2,2.422,2.957,2.957,0,0,0,.993,2.146,3.692,3.692,0,0,0,1.636.539c.409.065.922.086,1.135-.27a1.011,1.011,0,0,0,.113-.468l.1-1.186c.024-.255.113-.593.368-.593s.385.329.593.48a.643.643,0,0,0,.889-.3,1.5,1.5,0,0,0,.024-1.037,4.926,4.926,0,0,0-2.522-3.136,7.594,7.594,0,0,1-1.233-.643,4.148,4.148,0,0,1-.969-1.221,76.1,76.1,0,0,1-6.076-11.415,8.446,8.446,0,0,1-.625-2.25,14.526,14.526,0,0,1,.1-2.371,13.571,13.571,0,0,0-.382-4.239,3.33,3.33,0,0,0-.406-1.029,2.3,2.3,0,0,0-3.148-.453,3.243,3.243,0,0,0-1.251,2.288,6.534,6.534,0,0,0,.625,2.371Q204.471,608.265,205.544,611.712Z" transform="translate(-158.009 -436.498)" fill="#a1616a"/>
    <path id="Path_276" data-name="Path 276" d="M219.8,561.355c.036-.376-.3-.717-.685-.957a9.563,9.563,0,0,1-1.162-.711c-.344-.3-.531-.685-.874-.981a3.854,3.854,0,0,0-1.3-.649,9.9,9.9,0,0,0-3.118-.56,5.492,5.492,0,0,0-2.985.788,1.778,1.778,0,0,0-.507.471,2.075,2.075,0,0,0-.246.75,14.82,14.82,0,0,1-.78,2.371,5.5,5.5,0,0,1-1.482,2.395c-.845.706-2.14,1.112-2.7,1.962a.637.637,0,0,0-.122.548c.08.213.338.359.572.495a7.768,7.768,0,0,1,3.166,3.029,3.512,3.512,0,0,1-.279,3.779c-.317.415-.756.907-.445,1.325.471.634,2.1.273,2.472.943a1.339,1.339,0,0,1,.05.694c0,.7.679,1.331,1.5,1.654a8.378,8.378,0,0,0,2.7.445,2.336,2.336,0,0,0,.068-1.749.7.7,0,0,1-.068-.4.954.954,0,0,1,.3-.382,2.758,2.758,0,0,0,.187-3.427,19.324,19.324,0,0,1-1.864-3.3,1.677,1.677,0,0,1,.3-1.719,5.984,5.984,0,0,1,.851-.622,3.234,3.234,0,0,0,1.186-1.482c.276-.771.234-1.7,1.046-2.208s1.864-.344,2.721-.673A2.916,2.916,0,0,0,219.8,561.355Z" transform="translate(-158.751 -406.779)" fill="#464353"/>
    <circle id="Ellipse_70" data-name="Ellipse 70" cx="4.929" cy="4.929" r="4.929" transform="translate(84.05 151.244)" fill="#fbbebe"/>
    <path id="Path_277" data-name="Path 277" d="M347.033,572.966a6.391,6.391,0,0,0,4.09,2.86l-.37,1.346c-.64,2.318-1.363,4.772-3.154,6.379a2.982,2.982,0,0,0-.5-2.306,8.733,8.733,0,0,0-1.672-1.749l-2.837-2.469a.773.773,0,0,1-.213-.237.723.723,0,0,1,0-.539,6.6,6.6,0,0,1,2.229-2.588,7.859,7.859,0,0,0,1.123-1.307C346.309,571.555,346.674,572.364,347.033,572.966Z" transform="translate(-253.478 -417.001)" fill="#fbbebe"/>
    <path id="Path_278" data-name="Path 278" d="M355.082,584.228a2.668,2.668,0,0,1-.145,1.088.765.765,0,0,1-.889.456c.1-.234-.169-.5-.424-.471a.8.8,0,0,0-.563.477,1.778,1.778,0,0,0-.163,1.1,4.512,4.512,0,0,1,.279,1.384c-.056.388-.344.776-.19,1.141a1.834,1.834,0,0,0,.368.439,1.245,1.245,0,0,1-.133,1.707l3.853.074a2.7,2.7,0,0,0,.477,1.87,11.777,11.777,0,0,0,8.78,5.733.765.765,0,0,0-.184,1.168,1.081,1.081,0,0,0,1.233.071,9.355,9.355,0,0,0,1.058-.791,3.234,3.234,0,0,1,2.17-.593c.483.044.948.2,1.432.225,1.423.077,2.647-.948,4.007-1.366,1-.3,2.128-.3,2.964-.931a1.175,1.175,0,0,0,.551-1.144,1.866,1.866,0,0,0-.415-.67,11.923,11.923,0,0,1-1.112-2.075,12.387,12.387,0,0,0-2.777-3.717,24.505,24.505,0,0,0-2.751-2.09,4.645,4.645,0,0,0-.747-.448,7.655,7.655,0,0,1-1.02-.415,5.689,5.689,0,0,1-1.058-1.185,15.886,15.886,0,0,0-2.872-1.995,6.88,6.88,0,0,0-1.936-1.313c-.365-.11-.756-.119-1.12-.228-.83-.252-1.435-.99-2.25-1.286a9.1,9.1,0,0,0-2.036-.261,4.743,4.743,0,0,1-2.093-.791,2.518,2.518,0,0,0-.676-.4c-1.029-.3-1.112,1.606-1.209,2.271A19.036,19.036,0,0,0,355.082,584.228Z" transform="translate(-260.63 -421.887)" fill="#3f3d56"/>
    <path id="Path_279" data-name="Path 279" d="M329.9,611c.172,1.87-1.242,3.684-.83,5.519.089.391.255.762.317,1.156a4.441,4.441,0,0,1-1.1,3.026l-5.335,7.807a4.743,4.743,0,0,1-.759.94c-1.02.9-2.543.809-3.88,1.082a6.642,6.642,0,0,0-2.6,1.15.169.169,0,0,0-.033.231,2.229,2.229,0,0,0,1.933.907c.139.184,0,.456-.193.593-.3.2-.679.252-.735.735a.825.825,0,0,0,.095.489,1.518,1.518,0,0,0,.934.646c1.841.563,3.83-.427,5.208-1.778s2.371-3.044,3.723-4.417c.75-.759,1.6-1.408,2.371-2.143a28.026,28.026,0,0,0,3.892-5.039,5.611,5.611,0,0,0,.842-1.716c.142-.608.077-1.254.243-1.856a6.584,6.584,0,0,1,1.275-2.075,6.9,6.9,0,0,0,1.449-4.494,4.3,4.3,0,0,0-2.626-3.726,2.35,2.35,0,0,0-1.482-.089,3.533,3.533,0,0,0-1.5,1.186L330.1,610.3a2.773,2.773,0,0,0-.593.889.934.934,0,0,0,.207.993" transform="translate(-234.862 -442.224)" fill="#fbbebe"/>
    <path id="Path_280" data-name="Path 280" d="M364.633,592.349a2.981,2.981,0,0,0-1.965.593,2.744,2.744,0,0,0-.492.777,7.671,7.671,0,0,0-.981,3.086,13.909,13.909,0,0,0,.356,2.579,9.838,9.838,0,0,1-.222,2.167,14.8,14.8,0,0,0,2.8-1.076,9.347,9.347,0,0,1,1.639-.851,4.863,4.863,0,0,1,3.026.593c.044-.557-.373-1.527-.329-2.075a2.271,2.271,0,0,1,.124-.691,4.108,4.108,0,0,1,.418-.667,2.73,2.73,0,0,0-.246-3.2,4.418,4.418,0,0,0-2.857-1.212,12.483,12.483,0,0,0-2-.068" transform="translate(-266.581 -431.259)" fill="#3f3d56"/>
    <path id="Path_281" data-name="Path 281" d="M318.4,549.792l-.113-.928c.78.2,1.518-.459,2.016-1.144s.957-1.482,1.713-1.778c.922-.347,1.9.208,2.777.664a8.693,8.693,0,0,0,3.186,1.055,2.263,2.263,0,0,1,.528.086,1.833,1.833,0,0,1,.928,1.574,6.174,6.174,0,0,0,.341,1.927c.216.439.593.768.806,1.186.593,1.165.021,2.76.658,3.9l-1.58-1.447c-.145-.133-.35-.273-.507-.16s-.136.3-.19.436a.827.827,0,0,1-1.123.409,3.079,3.079,0,0,1-1-.919,6.141,6.141,0,0,0-2.508-1.9,3.2,3.2,0,0,0-2.653.157c-.738.418-1.278,1.387-2.182,1.42-1.239.047-1.755-2.259-2.327-3.169a1.123,1.123,0,0,0,.326-1.4C317.582,549.736,318.385,549.65,318.4,549.792Z" transform="translate(-235.973 -398.575)" fill="#464353"/>
    <path id="Path_282" data-name="Path 282" d="M666.36,358.294a5.434,5.434,0,0,1-1.547.424A2.712,2.712,0,0,0,666,357.236a5.422,5.422,0,0,1-1.713.655,2.691,2.691,0,0,0-4.663,1.841,2.636,2.636,0,0,0,.068.616,7.632,7.632,0,0,1-5.555-2.822,2.706,2.706,0,0,0,.836,3.6,2.627,2.627,0,0,1-1.224-.338v.033a2.7,2.7,0,0,0,2.164,2.647,2.8,2.8,0,0,1-.712.095,2.626,2.626,0,0,1-.507-.05,2.706,2.706,0,0,0,2.519,1.873,5.406,5.406,0,0,1-3.349,1.156,5.8,5.8,0,0,1-.643-.039,7.659,7.659,0,0,0,11.8-6.462V359.7A5.475,5.475,0,0,0,666.36,358.294Z" transform="translate(-469.229 -265.737)" fill="#f9d036"/>
    <path id="Path_283" data-name="Path 283" d="M664.5,539.673l.889,2.232,5.807,6.156,1.944-1.832,1.224,1.3,1.3-1.224.074-2.517,1.618-1.529.13-4.408-5.2-5.507Zm11.708-1.233-.074,2.519-1.945,1.832-.074,2.519-1.221-1.3-1.621,1.529-5.208-5.51,6.156-5.807Z" transform="translate(-477.061 -389.082)" fill="#f9d036"/>
    <path id="Path_284" data-name="Path 284" d="M682.667,547.026l.972-.916,2.466,2.611-.972.913Zm-2.268,2.14.972-.919,2.463,2.614-.972.916Z" transform="translate(-488.233 -398.77)" fill="#f9d036"/>
    <path id="Path_285" data-name="Path 285" d="M278.022,676h-9.509a.593.593,0,0,0-.593.593V686.1a.593.593,0,0,0,.593.593h4.743v-4.236h-1.278V680.9h1.3V679.75a2.031,2.031,0,0,1,2.19-2.131c.593,0,1.227.044,1.372.065v1.441h-.981c-.67,0-.8.317-.8.786v.993h1.6l-.208,1.559h-1.393v4.233h2.964a.593.593,0,0,0,.593-.593v-9.509A.593.593,0,0,0,278.022,676Z" transform="translate(-201.813 -490.16)" fill="#f9d036"/>
    <path id="Path_286" data-name="Path 286" d="M564.524,444.889a2.232,2.232,0,0,1,2.226,2.226v4.446a2.232,2.232,0,0,1-2.226,2.226h-4.446a2.235,2.235,0,0,1-1.574-.652,2.208,2.208,0,0,1-.655-1.574v-4.446a2.232,2.232,0,0,1,2.229-2.226h4.446m0-.889h-4.446a3.127,3.127,0,0,0-3.118,3.118v4.446a3.127,3.127,0,0,0,3.118,3.118h4.446a3.127,3.127,0,0,0,3.118-3.106V447.13A3.13,3.13,0,0,0,564.524,444Z" transform="translate(-402.453 -326.926)" fill="#f9d036"/>
    <path id="Path_287" data-name="Path 287" d="M571.552,451.35a.664.664,0,1,1,.472-.194.67.67,0,0,1-.472.194Zm-2.884.436a1.778,1.778,0,1,1-1.779,1.778,1.778,1.778,0,0,1,1.779-1.778m0-.889a2.668,2.668,0,1,0,2.668,2.668A2.668,2.668,0,0,0,568.668,450.9Z" transform="translate(-408.797 -331.155)" fill="#f9d036"/>
    <path id="Path_288" data-name="Path 288" d="M1013.044,608.279a2.166,2.166,0,0,0-2.075-2.259c-1.544-.074-3.115-.1-4.722-.1h-.5c-1.6,0-3.18.027-4.722.1a2.167,2.167,0,0,0-2.057,2.265c-.071.993-.1,1.983-.1,2.964s.027,1.983.095,2.964a2.172,2.172,0,0,0,2.057,2.27c1.619.074,3.281.107,4.971.107s3.349-.03,4.974-.107a2.184,2.184,0,0,0,2.075-2.27c.065-.993.1-1.983.095-2.979s-.027-1.98-.092-2.964Zm-8.4,5.712V608.52l4.037,2.733Z" transform="translate(-708.141 -440.852)" fill="#f9d036"/>
    <path id="Path_289" data-name="Path 289" d="M535.091,260a6.225,6.225,0,0,0-2.5,11.948,5.549,5.549,0,0,1,.107-1.432c.122-.507.8-3.4.8-3.4a2.37,2.37,0,0,1-.2-.984c0-.925.537-1.615,1.2-1.615a.835.835,0,0,1,.842.937,13.434,13.434,0,0,1-.551,2.211.963.963,0,0,0,.984,1.2c1.186,0,1.977-1.518,1.977-3.317a2.332,2.332,0,0,0-2.594-2.386,2.964,2.964,0,0,0-3.071,2.985,1.793,1.793,0,0,0,.412,1.224.3.3,0,0,1,.089.347c-.03.116-.1.391-.128.5a.216.216,0,0,1-.314.157A2.4,2.4,0,0,1,530.87,266a4.111,4.111,0,0,1,4.446-3.895,3.733,3.733,0,0,1,3.948,3.572c0,2.445-1.361,4.274-3.367,4.274a1.778,1.778,0,0,1-1.521-.777s-.365,1.435-.442,1.713a5.142,5.142,0,0,1-.625,1.337,6.316,6.316,0,0,0,1.778.255,6.242,6.242,0,1,0,0-12.485Z" transform="translate(-382.886 -197.465)" fill="#f9d036"/>
    <path id="Path_290" data-name="Path 290" d="M670.5,635.462c-.24-1.017-.385-1.906-.385-1.906a3.949,3.949,0,0,0-.442-1.936v-.279h0V629.3a6.758,6.758,0,0,1,.516-1.07c.367-.64,0-2.994,0-2.994s-1.364-3.317-1.034-5.421-2.8-9.346-2.8-9.346a9.232,9.232,0,0,1,.3-2.075,1.5,1.5,0,0,0,.038-.433.325.325,0,0,0,0-.053v.018a16.105,16.105,0,0,0-1.144-3.99l.148-4.956a14.6,14.6,0,0,0-.442-6.85c-.4-1.369-.655-2.463-.818-3.311-.018-.095-.036-.187-.05-.276,2.35-.359,4.15-.658,4.15-.658s-1.363-5.706-2.285-6.7-1.657-4.135-1.657-4.135-.48-4.031.3-5.208a7.837,7.837,0,0,0,.889-3.21s1.778-1.283,1.989-1.855a9.4,9.4,0,0,0,.593-2.531c0-.679-.222-1.284-.148-1.642s-.516-1.71-.219-2.353a1.72,1.72,0,0,0,.116-.62.04.04,0,0,0,0-.018h0a8.806,8.806,0,0,0-.157-1.675,4.742,4.742,0,0,0-1.749-.937l-.039-.151-.1-.4a1.346,1.346,0,0,0-.175-.1V555.6l.276-1.3c.545-2.262-2.478-2.6-2.478-2.6a1.6,1.6,0,0,0-.857-.753c-.593-.213-.1,3.409.184,3.64a11.784,11.784,0,0,1,1.186,1.867h0l.053.092a1.214,1.214,0,0,0-.139.145l.116.785.018.122a3.227,3.227,0,0,0-.483.821,1.752,1.752,0,0,1,.442,1.286,4.031,4.031,0,0,0,.184,1.568c-.033-.039-.421-.459-.809-.356s-1.482.427-1.482.427-.812.142-.738.32-.551.963-.551.963l-2.179-2.075c-.024-.062-.044-.125-.065-.187a4.987,4.987,0,0,1-.187-.889,4.844,4.844,0,0,0,.694-.222,1.5,1.5,0,0,0,.593-.385,2.352,2.352,0,0,0,.35-.94,13.05,13.05,0,0,1,.809-1.8,5.864,5.864,0,0,0,.421-3.216,2.141,2.141,0,0,0-.332-.949c-.356-.489-1-.688-1.482-1.079s-.771-.984-1.319-1.277a2.6,2.6,0,0,0-1.654-.142,8.837,8.837,0,0,0-3.086,1.12,1.586,1.586,0,0,1-1.034.341,1.4,1.4,0,0,1-.744-.545.145.145,0,0,1,0-.033l-.027-.027a3.9,3.9,0,0,0-.338,1.63v.35a.678.678,0,0,1,0,.077h0a.522.522,0,0,1-.018.116.84.84,0,0,1-.2.3,1.308,1.308,0,0,0-.178.243.263.263,0,0,1,.03-.089,1.286,1.286,0,0,0-.228.685.682.682,0,0,0,.166.492,2.368,2.368,0,0,0,.353.3,4.157,4.157,0,0,0-.062.723,4.215,4.215,0,0,0,2.051,3.6l.074.187a5.183,5.183,0,0,1,.394,2.371.4.4,0,0,1-.027.175l-.077.089h0s-3.6.035-4.446-.732-2.137,1.873-2.137,1.873-1.289.252-1.547,0-1.779-.036-1.779-.036a3.26,3.26,0,0,0-2.247-.818,6.6,6.6,0,0,0-1.651-.919h0l-.042-.015h0a1.843,1.843,0,0,0-.812-.1,16.034,16.034,0,0,1-2.282-2.247c-.5-.783-2.964-3.7-2.985-3.711v-.139l-.03-.424a1.652,1.652,0,0,1-.219.021.517.517,0,0,0-.05-.148,8,8,0,0,0-.522-1.186s0-.534.157-.667a9.1,9.1,0,0,0-.065-2.1s-1.595-3.726-3.02-.945c0,0-2.7,1.8-.436,3.9,0,0,.889.436,1.032.782.086.225.391.857.593,1.275l.092.187-.027.021.036.35v.136c-.427.24-.714.48-.646.664a3.9,3.9,0,0,1,.258.963s3.133,3.921,3.539,5.6c0,0,8.4,4.992,11.163,5.35l-.477,2.5a19.71,19.71,0,0,0-.11,2.033c.036.534-.332,2.964-.332,2.964s-.48,3.557-.889,4.064-.332,2.641-.332,2.641a17.815,17.815,0,0,1-.551,3.029,7.7,7.7,0,0,0-.11,3.032s-1.4,3.21,1.953,1.034c0,0,1.645-.1,3.557-.166v.975c-.024,1.838-.036,4.372.047,6.29.148,3.388,1.186,10.078,1.186,10.078v3.367a4.715,4.715,0,0,0-.095.963,6.243,6.243,0,0,0,.907,3.373l.258,2.247a9.305,9.305,0,0,1,.617,2.371,1.157,1.157,0,0,1-.027.213,1.593,1.593,0,0,0-.03.344,19.262,19.262,0,0,0,.593,3.462s.039,2.46.406,2.6c.314.122-.421,1.42-.64,1.779a.592.592,0,0,1-.015-.071c-.027.047-.044.074-.044.074a1.728,1.728,0,0,0-.116.622.889.889,0,0,0,.409.866c.7.43,1.076.785.483.928a5.884,5.884,0,0,0-.649.136c0-.027-.024-.056-.033-.083a.4.4,0,0,0-.231.412,1.822,1.822,0,0,0,.222.833,8.89,8.89,0,0,0,1,1.82l.3-.033a1.4,1.4,0,0,1-.166.3,1.148,1.148,0,0,1-.415.367,1.326,1.326,0,0,1-.5.175,1.4,1.4,0,0,0-1.043.507,1.09,1.09,0,0,0,.127,1.693l2.635.907s4.532.593,4.292-.427-.385-1.906-.385-1.906a4.021,4.021,0,0,0-.371-1.805,1.78,1.78,0,0,0-.16-.267l.16-.018a8.271,8.271,0,0,1,.774-2.668c.1-.1.127-.175.1-.234.047-.122-.068-.193-.216-.234l-.033.089a2.23,2.23,0,0,0-.439-.047s-.148-1.186.329-1.607a.454.454,0,0,0,.095-.35,2.017,2.017,0,0,0-.05-.48l-.018.03a17.117,17.117,0,0,0-1.058-2.765,3.418,3.418,0,0,1,.258-1.5c.293-.43-.036-5.813-.036-5.813a17.625,17.625,0,0,0-.222-3.815,4.281,4.281,0,0,1,.406-2.641v-.095s-.018-.16-.044-.412v.027c-.074-.691-.214-1.938-.317-2.513-.148-.821.036-4.742.036-4.742l.664-1.675,1.186,2.887L659.516,608a3.275,3.275,0,0,1,.637,1.636v.121a1.935,1.935,0,0,0,0,.258,2.3,2.3,0,0,0,.382,1.372,5.977,5.977,0,0,0,.848,2.282,2.055,2.055,0,0,1,.516,1.355,22.6,22.6,0,0,0,.922,3.1,4.552,4.552,0,0,1,.258,1.778h0v.1s.086.943.083,1.737v.276a2.767,2.767,0,0,1-.077.64v-.095a6.6,6.6,0,0,0-.19,1.645,4.209,4.209,0,0,0,.7,2.73c1,1.141,1.621,1,1.621,1s-.48,1.426-1.07,1.713a.363.363,0,0,0-.062.039.165.165,0,0,0-.015-.083.7.7,0,0,0-.172.533,3.818,3.818,0,0,0,.729,2.113,1.166,1.166,0,0,0,.5.3l-.092.056a2.072,2.072,0,0,1-.2.1.965.965,0,0,1-.3.077,1.4,1.4,0,0,0-1.043.507,1.09,1.09,0,0,0,.127,1.693l2.635.907S670.73,636.494,670.5,635.462Z" transform="translate(-451.503 -400.264)" fill="url(#linear-gradient)"/>
    <path id="Path_291" data-name="Path 291" d="M704.684,836.333l-2.552-.907a1.108,1.108,0,0,1-.122-1.693,1.343,1.343,0,0,1,1.008-.507,1.247,1.247,0,0,0,.489-.175,1.157,1.157,0,0,0,.4-.368,1.878,1.878,0,0,0,.3-.987s2.8-.818,3.557,0a2.092,2.092,0,0,1,.341.5A4.15,4.15,0,0,1,708.46,834s.142.889.374,1.906S704.684,836.333,704.684,836.333Z" transform="translate(-502.975 -599.451)" fill="#2d293d"/>
    <path id="Path_292" data-name="Path 292" d="M746.795,832.13l-2.549-.907a1.1,1.1,0,0,1-.125-1.69,1.34,1.34,0,0,1,1.011-.51.919.919,0,0,0,.3-.077,1.5,1.5,0,0,0,.2-.1,1.613,1.613,0,0,0,.7-1.355s2.8-.821,3.557,0a1.977,1.977,0,0,1,.267.365,4.072,4.072,0,0,1,.43,1.938s.142.889.373,1.906S746.795,832.13,746.795,832.13Z" transform="translate(-532.212 -596.493)" fill="#2d293d"/>
    <path id="Path_293" data-name="Path 293" d="M713.076,831.7a2.094,2.094,0,0,1,.341.5h0l-4.2.486a1.877,1.877,0,0,0,.3-.987S712.312,830.877,713.076,831.7Z" transform="translate(-508.272 -599.449)" opacity="0.1"/>
    <path id="Path_294" data-name="Path 294" d="M754.035,827.8v.786c-.652,1.076-3.809.842-4.725.3a1.5,1.5,0,0,0,.2-.1,1.613,1.613,0,0,0,.7-1.355s2.8-.821,3.557,0A1.993,1.993,0,0,1,754.035,827.8Z" transform="translate(-536.098 -596.45)" opacity="0.1"/>
    <path id="Path_295" data-name="Path 295" d="M716.33,719.2a6.988,6.988,0,0,0-.5,1.07v2.819c-.711,1.186-4.422.785-4.92.142s-1.034-2.318-.465-2.6,1.034-1.713,1.034-1.713-.593.142-1.568-1-.676-3.672-.5-4.28a12.69,12.69,0,0,0,0-2.638,5.311,5.311,0,0,0-.249-1.891,23.565,23.565,0,0,1-.889-3.1,2.107,2.107,0,0,0-.5-1.355,6.147,6.147,0,0,1-.821-2.282,2.339,2.339,0,0,1-.356-1.532,3.12,3.12,0,0,0-.608-1.856l-1.212-3.853-1.141-2.89-.64,1.675s-.181,3.924-.036,4.743.356,2.994.356,2.994a4.393,4.393,0,0,0-.391,2.641,18.037,18.037,0,0,1,.213,3.815s.32,5.386.036,5.816a3.44,3.44,0,0,0-.249,1.482s1.461,3.139,1,3.557-.32,1.607-.32,1.607,1,0,.572.427a8.545,8.545,0,0,0-.75,2.668l-4.319.546a9.129,9.129,0,0,1-.966-1.82c-.569-1.319.107-1.186.682-1.319s.21-.5-.468-.928-.3-1.39-.3-1.39,1.035-1.749.679-1.891-.394-2.6-.394-2.6a15.962,15.962,0,0,1-.534-3.708,7.116,7.116,0,0,0-.572-2.668l-.249-2.247a6.177,6.177,0,0,1-.771-4.25V697.9s-1-6.7-1.144-10.078c-.089-2.17-.065-5.131-.036-6.98.018-1.035.036-1.722.036-1.722l15.413-1.6a12.758,12.758,0,0,0,.282,2.288c.157.845.4,1.941.788,3.311a15.058,15.058,0,0,1,.43,6.847l-.142,4.956s1.354,3.317,1.07,4.446a9.409,9.409,0,0,0-.3,2.075s3.032,7.241,2.712,9.346,1,5.406,1,5.406S716.686,718.567,716.33,719.2Z" transform="translate(-498.066 -491.229)" fill="#464353"/>
    <path id="Path_296" data-name="Path 296" d="M737.22,753.955l4.677-.625S739.253,756.039,737.22,753.955Z" transform="translate(-527.704 -544.568)" opacity="0.05"/>
    <path id="Path_297" data-name="Path 297" d="M748.724,737.87s.163,1.657-.854,2.282C747.87,740.152,749.687,739.868,748.724,737.87Z" transform="translate(-535.169 -533.691)" opacity="0.1"/>
    <path id="Path_298" data-name="Path 298" d="M736.652,720.06s-3.919,3.228-5.335,2.964S736.652,720.06,736.652,720.06Z" transform="translate(-523.452 -521.16)" opacity="0.1"/>
    <path id="Path_299" data-name="Path 299" d="M710.319,760.55s-2.964.679-3.065,1.873S710.319,760.55,710.319,760.55Z" transform="translate(-506.926 -549.648)" opacity="0.1"/>
    <path id="Path_300" data-name="Path 300" d="M712.155,810.72s-4.206.786-3.012,1.322a20.4,20.4,0,0,0,3.157.96S713.654,813.073,712.155,810.72Z" transform="translate(-508.075 -584.947)" opacity="0.05"/>
    <g id="Group_236" data-name="Group 236" transform="translate(196.927 187.761)" opacity="0.05">
      <path id="Path_301" data-name="Path 301" d="M705.5,816.551a.833.833,0,0,1-.385-.611l-.042.077s-.394.96.3,1.39c.077.047.151.1.219.145.124-.024.261-.041.388-.074C706.541,817.348,706.18,816.989,705.5,816.551Z" transform="translate(-701.996 -776.381)"/>
      <path id="Path_302" data-name="Path 302" d="M724.594,815.335c.115-.107.11-.382.041-.735a1.989,1.989,0,0,0-.24,1.034A.792.792,0,0,1,724.594,815.335Z" transform="translate(-715.668 -775.439)"/>
      <path id="Path_303" data-name="Path 303" d="M722.177,757.22a4.906,4.906,0,0,0-.3,1.31,5.176,5.176,0,0,1,.326-.889A2.654,2.654,0,0,0,722.177,757.22Z" transform="translate(-713.899 -735.066)"/>
      <path id="Path_304" data-name="Path 304" d="M755.207,749.971a1.692,1.692,0,0,0,.039-.391c-.053.267-.089.516-.116.732C755.154,750.2,755.177,750.087,755.207,749.971Z" transform="translate(-737.294 -729.691)"/>
      <path id="Path_305" data-name="Path 305" d="M722.308,798.121a2.243,2.243,0,0,0,.107-.791,2.611,2.611,0,0,0-.2,1A.96.96,0,0,1,722.308,798.121Z" transform="translate(-714.132 -763.288)"/>
      <path id="Path_306" data-name="Path 306" d="M710.977,822.68a14.257,14.257,0,0,0-.489,2.19l-4.313.5a8.94,8.94,0,0,1-.966-1.82,3.178,3.178,0,0,1-.121-.314c-.258.119-.362.385-.021,1.186a8.832,8.832,0,0,0,.966,1.817l4.31-.5a8.505,8.505,0,0,1,.75-2.668C711.3,822.843,711.169,822.736,710.977,822.68Z" transform="translate(-701.917 -781.124)"/>
      <path id="Path_307" data-name="Path 307" d="M698.318,717.631s.036,2.463.391,2.605h0c.181-.406.3-.791.139-.857-.356-.142-.391-2.6-.391-2.6a15.81,15.81,0,0,1-.533-3.711,7.043,7.043,0,0,0-.572-2.668l-.249-2.247a6.189,6.189,0,0,1-.786-4.245v-3.465s-1-6.7-1.141-10.093c-.092-2.17-.065-5.131-.036-6.98v-.889h-.121s-.018.685-.036,1.722c-.03,1.847-.056,4.811.036,6.98.142,3.388,1.141,10.093,1.141,10.093v3.459a6.168,6.168,0,0,0,.8,4.28l.249,2.247a7.085,7.085,0,0,1,.569,2.668A15.743,15.743,0,0,0,698.318,717.631Z" transform="translate(-694.956 -682.48)"/>
      <path id="Path_308" data-name="Path 308" d="M747.109,824.486a4.149,4.149,0,0,1-.682-1.7c-.442.4.065,1.942.539,2.552s4.209,1.035,4.923-.145v-.679C750.924,825.476,747.583,825.093,747.109,824.486Z" transform="translate(-731.051 -781.201)"/>
      <path id="Path_309" data-name="Path 309" d="M766.238,814.833a7.139,7.139,0,0,0-.5,1.07v.5c.08-.184.2-.427.356-.714a2.159,2.159,0,0,0,.157-.889Z" transform="translate(-744.759 -775.579)"/>
      <path id="Path_310" data-name="Path 310" d="M745.025,804.3a6.864,6.864,0,0,0,.353-.848s-.593.142-1.571-1a5.087,5.087,0,0,1-.64-3.424c-.178.608-.465,3.139.5,4.28A2.514,2.514,0,0,0,745.025,804.3Z" transform="translate(-728.748 -764.484)"/>
      <path id="Path_311" data-name="Path 311" d="M728.649,743.6a19.6,19.6,0,0,1,.071,2.113c.024-.139.05-.252.071-.332a12.5,12.5,0,0,0,0-2.638,5.307,5.307,0,0,0-.249-1.891,23.442,23.442,0,0,1-.889-3.1,2.107,2.107,0,0,0-.5-1.355,6.144,6.144,0,0,1-.821-2.282,2.339,2.339,0,0,1-.359-1.532,3.127,3.127,0,0,0-.593-1.856l-1.212-3.853L723.014,724l-.643,1.675s0,.21-.021.542l.522-1.361,1.141,2.887,1.212,3.853a3.051,3.051,0,0,1,.593,1.853,2.345,2.345,0,0,0,.37,1.518,6.125,6.125,0,0,0,.818,2.282,2.117,2.117,0,0,1,.5,1.355,21.861,21.861,0,0,0,.889,3.1A5.081,5.081,0,0,1,728.649,743.6Z" transform="translate(-714.23 -711.693)"/>
    </g>
    <path id="Path_312" data-name="Path 312" d="M745.368,560.841l-.267,1.3.015.593v.427l-1.482.154-.166-.3h0a12.606,12.606,0,0,0-1.156-1.867c-.276-.231-.765-3.853-.178-3.637a1.553,1.553,0,0,1,.83.75S745.9,558.576,745.368,560.841Z" transform="translate(-530.946 -406.79)" fill="#ffcdd3"/>
    <path id="Path_313" data-name="Path 313" d="M748.978,575.143l-1.482.154-.166-.3h0a1.31,1.31,0,0,1,1.642-.27Z" transform="translate(-534.784 -418.783)" opacity="0.1"/>
    <path id="Path_314" data-name="Path 314" d="M749.133,576.155l-1.959.457-.041-.3-.113-.786a1.349,1.349,0,0,1,1.9-.261l.1.4Z" transform="translate(-534.56 -419.09)" fill="#dce6f2"/>
    <path id="Path_315" data-name="Path 315" d="M635.632,554.382l-2.093,1.126-.19-.4c-.2-.418-.5-1.046-.593-1.272-.125-.347-1-.786-1-.786-2.193-2.1.418-3.895.418-3.895,1.384-2.783,2.925.943,2.925.943a9.467,9.467,0,0,1,.062,2.1c-.151.13-.151.67-.151.67a8.149,8.149,0,0,1,.507,1.186C635.6,554.26,635.632,554.382,635.632,554.382Z" transform="translate(-453.867 -400.189)" fill="#ffcdd3"/>
    <path id="Path_316" data-name="Path 316" d="M641.492,568.446l-2.093,1.126-.19-.4c.3-.246,1.343-1.1,1.687-1.058a2.452,2.452,0,0,0,.5,0C641.46,568.324,641.492,568.446,641.492,568.446Z" transform="translate(-459.692 -414.253)" opacity="0.1"/>
    <path id="Path_317" data-name="Path 317" d="M641.854,569.418l-2.354,1.159-.047-.507-.033-.347s1.363-1.171,1.779-1.126a2.186,2.186,0,0,0,.616,0l.027.424Z" transform="translate(-459.836 -414.591)" fill="#dce6f2"/>
    <path id="Path_318" data-name="Path 318" d="M714.07,579.045s-10.265,1.159-8.347.536a2.576,2.576,0,0,0,1.98-2.226,5.421,5.421,0,0,0-.382-2.371,10.3,10.3,0,0,0-.919-1.856s7.846-4.316,6.278-.391a6.152,6.152,0,0,0-.445,1.859,5.243,5.243,0,0,0,.2,1.879A5.607,5.607,0,0,0,714.07,579.045Z" transform="translate(-505.594 -416.345)" fill="#ffcdd3"/>
    <path id="Path_319" data-name="Path 319" d="M714.858,572.736a6.155,6.155,0,0,0-.445,1.858,3.63,3.63,0,0,1-2.591.593A4.628,4.628,0,0,1,709.5,575a10.3,10.3,0,0,0-.919-1.856S716.426,568.811,714.858,572.736Z" transform="translate(-507.784 -416.346)" opacity="0.1"/>
    <circle id="Ellipse_71" data-name="Ellipse 71" cx="4.245" cy="4.245" r="4.245" transform="translate(199.658 150.612)" fill="#ffcdd3"/>
    <path id="Path_320" data-name="Path 320" d="M714.07,590.775s-10.265,1.159-8.347.536a2.575,2.575,0,0,0,1.98-2.226,5.567,5.567,0,0,1,2.2-1.165,3.061,3.061,0,0,1,1.858-.03,2.477,2.477,0,0,1,.676.3A5.605,5.605,0,0,0,714.07,590.775Z" transform="translate(-505.594 -428.076)" opacity="0.1"/>
    <path id="Path_321" data-name="Path 321" d="M749.4,577.6l-1.959.456-.042-.3a1.731,1.731,0,0,1,1.885-.646Z" transform="translate(-534.826 -420.537)" opacity="0.1"/>
    <path id="Path_322" data-name="Path 322" d="M641.931,570.427l-2.354,1.159-.047-.507a17.334,17.334,0,0,1,2.371-1.049Z" transform="translate(-459.913 -415.6)" opacity="0.1"/>
    <path id="Path_323" data-name="Path 323" d="M710.824,679.758c-3.975.625-9.633,1.444-10.531,1.171a26.064,26.064,0,0,0-5.193-.133c.018-1.034.036-1.722.036-1.722l15.413-1.6A12.764,12.764,0,0,0,710.824,679.758Z" transform="translate(-498.246 -491.194)" opacity="0.1"/>
    <path id="Path_324" data-name="Path 324" d="M674.215,603.514s-13.089,2.247-14.494,1.817-8.616.039-8.616.039c-3.246,2.173-1.888-1.034-1.888-1.034a7.737,7.737,0,0,1,.107-3.032,18.562,18.562,0,0,0,.534-3.032s-.071-2.14.32-2.638.857-4.067.857-4.067.359-2.425.323-2.964.107-2.03.107-2.03l.462-2.5c-2.668-.356-10.807-5.35-10.807-5.35-.391-1.675-3.423-5.6-3.423-5.6a4.13,4.13,0,0,0-.249-.963c-.213-.569,3-1.71,3-1.71s2.389,2.926,2.887,3.708a16.316,16.316,0,0,0,2.211,2.247,1.729,1.729,0,0,1,.786.1h.042a6.326,6.326,0,0,1,1.595.916,3.092,3.092,0,0,1,2.176.821s1.464-.213,1.713.036,1.482,0,1.482,0,1.251-2.638,2.075-1.873,4.3.732,4.3.732a5.147,5.147,0,0,1,2.3-1.286,3.062,3.062,0,0,1,1.859-.03,2.3,2.3,0,0,1,.735.356l2.11,2.075s.593-.786.536-.963.714-.32.714-.32,1.034-.32,1.426-.43.753.32.782.356a4.175,4.175,0,0,1-.178-1.568,1.779,1.779,0,0,0-.427-1.284c1.26-3.047,4.078-.468,4.078-.468a5.883,5.883,0,0,1,.036,2.318c-.285.643.3,2,.214,2.354a16.046,16.046,0,0,0,.142,1.639,9.755,9.755,0,0,1-.569,2.534c-.217.569-1.927,1.853-1.927,1.853a8.044,8.044,0,0,1-.857,3.21c-.75,1.177-.3,5.208-.3,5.208s.711,3.139,1.6,4.15S674.215,603.514,674.215,603.514Z" transform="translate(-457.816 -415.896)" fill="#3f3d56"/>
    <path id="Path_325" data-name="Path 325" d="M692.914,597.677s-.391-1.186-.75-1.286a8.454,8.454,0,0,1-1.034-.462l.231-.439s1.34.368,1.553.759A3.1,3.1,0,0,1,692.914,597.677Z" transform="translate(-495.753 -433.513)" opacity="0.1"/>
    <path id="Path_326" data-name="Path 326" d="M665.3,591.871c-.071.359-3.243.679-3.243.679l1.6-1.609h0l.042.015h0A6.324,6.324,0,0,1,665.3,591.871Z" transform="translate(-475.543 -430.312)" opacity="0.1"/>
    <circle id="Ellipse_72" data-name="Ellipse 72" cx="0.285" cy="0.285" r="0.285" transform="translate(180.042 156.38)" fill="#575988"/>
    <circle id="Ellipse_73" data-name="Ellipse 73" cx="0.285" cy="0.285" r="0.285" transform="translate(180.418 156.952)" fill="#575988"/>
    <circle id="Ellipse_74" data-name="Ellipse 74" cx="0.285" cy="0.285" r="0.285" transform="translate(180.788 157.477)" fill="#575988"/>
    <circle id="Ellipse_75" data-name="Ellipse 75" cx="0.285" cy="0.285" r="0.285" transform="translate(181.173 158.049)" fill="#575988"/>
    <circle id="Ellipse_76" data-name="Ellipse 76" cx="0.231" cy="0.231" r="0.231" transform="translate(215.881 158.07)" fill="#575988"/>
    <circle id="Ellipse_77" data-name="Ellipse 77" cx="0.231" cy="0.231" r="0.231" transform="translate(215.917 158.597)" fill="#575988"/>
    <circle id="Ellipse_78" data-name="Ellipse 78" cx="0.231" cy="0.231" r="0.231" transform="translate(215.948 159.122)" fill="#575988"/>
    <path id="Path_327" data-name="Path 327" d="M697.21,635.47c-.033-.042,8,10.11,14.248,4.245C711.458,639.714,701.594,641.051,697.21,635.47Z" transform="translate(-499.739 -461.643)" opacity="0.1"/>
    <path id="Path_328" data-name="Path 328" d="M681.63,653.28s4.811.13,5.315,1.515v1.441a.922.922,0,0,1-.889,0c-.486-.261-3.394-1.74-4.419-1.029Z" transform="translate(-489.094 -474.174)" opacity="0.1"/>
    <path id="Path_329" data-name="Path 329" d="M681.93,653.28s4.6.125,5.083,1.443V656.1a.889.889,0,0,1-.857,0c-.465-.252-3.261-1.66-4.227-.981Z" transform="translate(-489.307 -474.174)" fill="#3f3d56"/>
    <path id="Path_330" data-name="Path 330" d="M690.49,618a15.5,15.5,0,0,0,1.864,3.2,12.493,12.493,0,0,0,2.923,2.822S690.57,618.673,690.49,618Z" transform="translate(-495.256 -449.351)" opacity="0.1"/>
    <path id="Path_331" data-name="Path 331" d="M685.18,599.18s.8,3.465,2.869,4.642Z" transform="translate(-491.604 -436.11)" opacity="0.1"/>
    <path id="Path_332" data-name="Path 332" d="M680.829,600.357c-.021-.065-.714,2.739,2.668,4.292C683.5,604.649,682.068,604.163,680.829,600.357Z" transform="translate(-488.534 -436.937)" opacity="0.1"/>
    <path id="Path_333" data-name="Path 333" d="M751.9,592.515a24.858,24.858,0,0,1,2.134,1.6S752.914,592.444,751.9,592.515Z" transform="translate(-537.945 -431.419)" opacity="0.1"/>
    <path id="Path_334" data-name="Path 334" d="M706.8,561.7a.9.9,0,0,0,.329.575.928.928,0,0,0,.4.089,8.67,8.67,0,0,0,3.853-.362,1.433,1.433,0,0,0,.593-.388,2.307,2.307,0,0,0,.314-.934,14.548,14.548,0,0,1,.785-1.8,6.055,6.055,0,0,0,.418-3.237,2.167,2.167,0,0,0-.323-.949c-.344-.489-.969-.688-1.423-1.079s-.747-.987-1.275-1.28a2.477,2.477,0,0,0-1.6-.142,8.458,8.458,0,0,0-2.988,1.123,1.479,1.479,0,0,1-1,.341,1.372,1.372,0,0,1-.735-.563,3.947,3.947,0,0,0-.317,1.847.547.547,0,0,1-.2.575,1.079,1.079,0,0,0-.2,1.331c.139.163.35.252.483.418.24.3.157.726.151,1.109a.593.593,0,0,0,.095.376.551.551,0,0,0,.525.125,1.432,1.432,0,0,1,.557-.053.939.939,0,0,1,.486.373A6.777,6.777,0,0,1,706.8,561.7Z" transform="translate(-504.028 -402.997)" fill="#2d293d"/>
    <g id="Group_237" data-name="Group 237" transform="translate(199.191 152.663)" opacity="0.1">
      <path id="Path_335" data-name="Path 335" d="M712.016,569.7a1.4,1.4,0,0,1-.593.385,8.519,8.519,0,0,1-3.836.362.872.872,0,0,1-.4-.089.89.89,0,0,1-.332-.572,6.617,6.617,0,0,0-1.082-2.511.925.925,0,0,0-.486-.373,1.434,1.434,0,0,0-.557.053.551.551,0,0,1-.525-.124.574.574,0,0,1-.092-.376c0-.382.086-.812-.154-1.109-.133-.166-.344-.255-.483-.418a.836.836,0,0,1-.08-.854.976.976,0,0,0-.062,1.138c.139.163.35.252.483.418.24.3.157.726.151,1.109a.593.593,0,0,0,.095.376.549.549,0,0,0,.525.125,1.433,1.433,0,0,1,.557-.053.94.94,0,0,1,.486.373,6.73,6.73,0,0,1,1.082,2.511.9.9,0,0,0,.329.575.927.927,0,0,0,.4.089,8.671,8.671,0,0,0,3.853-.362,1.455,1.455,0,0,0,.593-.388,1.131,1.131,0,0,0,.184-.344A.215.215,0,0,1,712.016,569.7Z" transform="translate(-703.176 -564.07)"/>
    </g>
    <path id="Path_336" data-name="Path 336" d="M712.62,592.895s5.3.7,5.78-.095" transform="translate(-510.602 -431.621)" opacity="0.1"/>
    <path id="Path_337" data-name="Path 337" d="M747.4,585.72s2.943,0,3.593,1.109" transform="translate(-534.794 -426.639)" opacity="0.1"/>
  </g>
</svg>
