<svg xmlns="http://www.w3.org/2000/svg" width="355" height="161.75" viewBox="0 0 355 161.75">
  <g id="undraw_best_place_r685" transform="translate(0 0)" opacity="0.32">
    <path id="Path_341" data-name="Path 341" d="M174.422,463.192l-.609-.137a138.667,138.667,0,0,1,270.42-.369l-.609.138A137.244,137.244,0,0,0,309.065,355.6C245.067,355.6,188.442,400.846,174.422,463.192Z" transform="translate(-129.379 -303.766)" fill="#3f3d56"/>
    <circle id="Ellipse_80" data-name="Ellipse 80" cx="16.959" cy="16.959" r="16.959" transform="translate(263.929 51.701)" fill="#ff6584"/>
    <rect id="Rectangle_169" data-name="Rectangle 169" width="0.624" height="24.666" transform="translate(273.821 136.46)" fill="#3f3d56"/>
    <path id="Path_342" data-name="Path 342" d="M902.082,603.757c.04,8.625-6.028,15.645-6.028,15.645s-6.133-6.964-6.172-15.589,6.028-15.645,6.028-15.645S902.042,595.132,902.082,603.757Z" transform="translate(-621.873 -464.153)" fill="#f9d036"/>
    <path id="Path_343" data-name="Path 343" d="M902.082,603.757c.04,8.625-6.028,15.645-6.028,15.645s-6.133-6.964-6.172-15.589,6.028-15.645,6.028-15.645S902.042,595.132,902.082,603.757Z" transform="translate(-621.873 -464.153)" opacity="0.1"/>
    <circle id="Ellipse_81" data-name="Ellipse 81" cx="9.756" cy="9.756" r="9.756" transform="translate(146.675 67.907)" fill="#f9d036" opacity="0.4"/>
    <circle id="Ellipse_82" data-name="Ellipse 82" cx="6.844" cy="6.844" r="6.844" transform="translate(131.531 75.479)" fill="#f9d036" opacity="0.4"/>
    <circle id="Ellipse_83" data-name="Ellipse 83" cx="6.844" cy="6.844" r="6.844" transform="translate(58.158 95.15)" fill="#f9d036" opacity="0.4"/>
    <circle id="Ellipse_84" data-name="Ellipse 84" cx="9.756" cy="9.756" r="9.756" transform="translate(257.606 67.105)" fill="#f9d036" opacity="0.4"/>
    <path id="Path_344" data-name="Path 344" d="M87.779,689.622a6.285,6.285,0,0,0,2.34,3.166,5.41,5.41,0,0,0-1.915-7.08A6.284,6.284,0,0,0,87.779,689.622Z" transform="translate(-70.097 -531.239)" fill="#3f3d56"/>
    <path id="Path_345" data-name="Path 345" d="M82.63,693.524a6.284,6.284,0,0,1,1.629,3.585A5.41,5.41,0,0,1,79,691.993,6.286,6.286,0,0,1,82.63,693.524Z" transform="translate(-64.171 -535.561)" fill="#f9d036"/>
    <path id="Path_346" data-name="Path 346" d="M699.779,689.622a6.284,6.284,0,0,0,2.34,3.166,5.41,5.41,0,0,0-1.915-7.08A6.284,6.284,0,0,0,699.779,689.622Z" transform="translate(-491.016 -531.239)" fill="#3f3d56"/>
    <path id="Path_347" data-name="Path 347" d="M694.63,693.524a2.113,2.113,0,1,1-2,2.053,2.113,2.113,0,1,1,2-2.053Z" transform="translate(-485.09 -535.561)" fill="#f9d036"/>
    <path id="Path_348" data-name="Path 348" d="M65.292,432.7,64,430.544,76.056,420.21h31v3.014l-11.2,12.057-12.918,2.583Z" transform="translate(-44.018 -289.01)" fill="#3f3d56"/>
    <path id="Path_349" data-name="Path 349" d="M175.944,424.793v-6.737h-4.059v2.124l-1.278-1.452-10.334,10.334-1.723,1.722L156.4,439.4l3.875,9.473H180.08V429.493Z" transform="translate(-107.567 -287.528)" fill="#ccc"/>
    <rect id="Rectangle_170" data-name="Rectangle 170" width="32.724" height="19.807" transform="translate(19.982 141.534)" fill="#f2f2f2"/>
    <rect id="Rectangle_171" data-name="Rectangle 171" width="6.889" height="6.028" transform="translate(41.296 147.778)" fill="#3f3d56"/>
    <rect id="Rectangle_172" data-name="Rectangle 172" width="6.028" height="13.779" transform="translate(32.469 147.563)" fill="#ccc"/>
    <path id="Path_350" data-name="Path 350" d="M76.237,474.768v-2.153H73.654v2.153h2.583Z" transform="translate(-50.657 -325.053)" fill="#3f3d56"/>
    <path id="Path_351" data-name="Path 351" d="M76.022,485.026H73.654v2.153h2.583v-2.153Z" transform="translate(-50.657 -333.588)" fill="#3f3d56"/>
    <rect id="Rectangle_173" data-name="Rectangle 173" width="2.583" height="2.153" transform="translate(27.302 147.563)" fill="#3f3d56"/>
    <rect id="Rectangle_174" data-name="Rectangle 174" width="2.583" height="2.153" transform="translate(27.302 151.438)" fill="#3f3d56"/>
    <path id="Path_352" data-name="Path 352" d="M192.769,475.457V473.3h-2.584v2.153h2.584Z" transform="translate(-130.804 -325.526)" fill="#3f3d56"/>
    <path id="Path_353" data-name="Path 353" d="M192.553,485.716h-2.368v2.153h2.584v-2.153Z" transform="translate(-130.804 -334.063)" fill="#3f3d56"/>
    <rect id="Rectangle_175" data-name="Rectangle 175" width="2.583" height="2.153" transform="translate(63.686 147.778)" fill="#3f3d56"/>
    <rect id="Rectangle_176" data-name="Rectangle 176" width="2.583" height="2.153" transform="translate(63.686 151.653)" fill="#3f3d56"/>
    <path id="Path_354" data-name="Path 354" d="M464.292,432.7,463,430.544l12.056-10.334h31v3.014l-11.2,12.057-12.918,2.583Z" transform="translate(-318.44 -289.01)" fill="#3f3d56"/>
    <path id="Path_355" data-name="Path 355" d="M574.944,424.793v-6.737h-4.059v2.124l-1.278-1.452-10.334,10.334-1.723,1.722L555.4,439.4l3.875,9.473H579.08V429.493Z" transform="translate(-381.989 -287.528)" fill="#ccc"/>
    <rect id="Rectangle_177" data-name="Rectangle 177" width="32.724" height="19.807" transform="translate(144.56 141.534)" fill="#f2f2f2"/>
    <rect id="Rectangle_178" data-name="Rectangle 178" width="6.889" height="6.028" transform="translate(165.874 147.778)" fill="#3f3d56"/>
    <rect id="Rectangle_179" data-name="Rectangle 179" width="6.028" height="13.779" transform="translate(157.047 147.563)" fill="#ccc"/>
    <path id="Path_356" data-name="Path 356" d="M475.237,474.768v-2.153h-2.583v2.153h2.583Z" transform="translate(-325.08 -325.053)" fill="#3f3d56"/>
    <path id="Path_357" data-name="Path 357" d="M475.022,485.026h-2.368v2.153h2.583v-2.153Z" transform="translate(-325.08 -333.588)" fill="#3f3d56"/>
    <rect id="Rectangle_180" data-name="Rectangle 180" width="2.583" height="2.153" transform="translate(151.88 147.563)" fill="#3f3d56"/>
    <rect id="Rectangle_181" data-name="Rectangle 181" width="2.583" height="2.153" transform="translate(151.88 151.438)" fill="#3f3d56"/>
    <path id="Path_358" data-name="Path 358" d="M591.769,475.457V473.3h-2.584v2.153h2.584Z" transform="translate(-405.227 -325.526)" fill="#3f3d56"/>
    <path id="Path_359" data-name="Path 359" d="M591.553,485.716h-2.368v2.153h2.584v-2.153Z" transform="translate(-405.227 -334.063)" fill="#3f3d56"/>
    <rect id="Rectangle_182" data-name="Rectangle 182" width="2.583" height="2.153" transform="translate(188.264 147.778)" fill="#3f3d56"/>
    <rect id="Rectangle_183" data-name="Rectangle 183" width="2.583" height="2.153" transform="translate(188.264 151.653)" fill="#3f3d56"/>
    <path id="Path_360" data-name="Path 360" d="M275.773,316.854l-2.153-1.723,12.056-10.765h30.571v9.473l-19.807,13.348Z" transform="translate(-188.189 -209.336)" fill="#3f3d56"/>
    <path id="Path_361" data-name="Path 361" d="M372.134,310.405v-5.823h-4.059v1.426l-1.515-1.641-9.9,10.765-3.875,2.584-6.009,43.9,9.062,9.062h21.06V315.562Z" transform="translate(-238.502 -209.336)" fill="#ccc"/>
    <rect id="Rectangle_184" data-name="Rectangle 184" width="32.724" height="55.545" transform="translate(85.431 105.796)" fill="#f2f2f2"/>
    <rect id="Rectangle_185" data-name="Rectangle 185" width="6.028" height="13.563" transform="translate(98.133 147.778)" fill="#ccc"/>
    <path id="Path_362" data-name="Path 362" d="M287.925,480.974v-2.153h-2.583v2.153h2.583Z" transform="translate(-196.251 -329.321)" fill="#3f3d56"/>
    <path id="Path_363" data-name="Path 363" d="M287.71,491.232h-2.368v2.153h2.583v-2.153Z" transform="translate(-196.251 -337.857)" fill="#3f3d56"/>
    <rect id="Rectangle_186" data-name="Rectangle 186" width="2.583" height="2.153" transform="translate(93.397 149.5)" fill="#3f3d56"/>
    <rect id="Rectangle_187" data-name="Rectangle 187" width="2.583" height="2.153" transform="translate(93.397 153.375)" fill="#3f3d56"/>
    <path id="Path_364" data-name="Path 364" d="M344.467,480.974v-2.153h-2.583v2.153h2.583Z" transform="translate(-235.139 -329.321)" fill="#3f3d56"/>
    <path id="Path_365" data-name="Path 365" d="M344.252,491.232h-2.368v2.153h2.583v-2.153Z" transform="translate(-235.139 -337.857)" fill="#3f3d56"/>
    <rect id="Rectangle_188" data-name="Rectangle 188" width="2.583" height="2.153" transform="translate(111.051 149.5)" fill="#3f3d56"/>
    <rect id="Rectangle_189" data-name="Rectangle 189" width="2.583" height="2.153" transform="translate(111.051 153.375)" fill="#3f3d56"/>
    <path id="Path_366" data-name="Path 366" d="M402.388,343.066v-2.153H399.8v2.153h2.583Z" transform="translate(-274.976 -234.471)" fill="#3f3d56"/>
    <path id="Path_367" data-name="Path 367" d="M402.173,353.325H399.8v2.153h2.583v-2.153Z" transform="translate(-274.976 -243.008)" fill="#3f3d56"/>
    <rect id="Rectangle_190" data-name="Rectangle 190" width="2.583" height="2.153" transform="translate(129.135 106.442)" fill="#3f3d56"/>
    <rect id="Rectangle_191" data-name="Rectangle 191" width="2.583" height="2.153" transform="translate(129.135 110.317)" fill="#3f3d56"/>
    <path id="Path_368" data-name="Path 368" d="M402.388,381.68v-2.153H399.8v2.153h2.583Z" transform="translate(-274.976 -261.029)" fill="#3f3d56"/>
    <path id="Path_369" data-name="Path 369" d="M402.173,391.939H399.8v2.153h2.583v-2.153Z" transform="translate(-274.976 -269.566)" fill="#3f3d56"/>
    <rect id="Rectangle_192" data-name="Rectangle 192" width="2.583" height="2.153" transform="translate(129.135 118.498)" fill="#3f3d56"/>
    <rect id="Rectangle_193" data-name="Rectangle 193" width="2.583" height="2.153" transform="translate(129.135 122.373)" fill="#3f3d56"/>
    <path id="Path_370" data-name="Path 370" d="M402.388,420.294v-2.153H399.8v2.153h2.583Z" transform="translate(-274.976 -287.587)" fill="#3f3d56"/>
    <path id="Path_371" data-name="Path 371" d="M402.173,430.553H399.8v2.153h2.583v-2.153Z" transform="translate(-274.976 -296.123)" fill="#3f3d56"/>
    <rect id="Rectangle_194" data-name="Rectangle 194" width="2.583" height="2.153" transform="translate(129.135 130.554)" fill="#3f3d56"/>
    <rect id="Rectangle_195" data-name="Rectangle 195" width="2.583" height="2.153" transform="translate(129.135 134.43)" fill="#3f3d56"/>
    <path id="Path_372" data-name="Path 372" d="M402.388,458.908v-2.153H399.8v2.153h2.583Z" transform="translate(-274.976 -314.144)" fill="#3f3d56"/>
    <path id="Path_373" data-name="Path 373" d="M402.173,469.167H399.8v2.153h2.583v-2.153Z" transform="translate(-274.976 -322.681)" fill="#3f3d56"/>
    <rect id="Rectangle_196" data-name="Rectangle 196" width="2.583" height="2.153" transform="translate(129.135 142.611)" fill="#3f3d56"/>
    <rect id="Rectangle_197" data-name="Rectangle 197" width="2.583" height="2.153" transform="translate(129.135 146.486)" fill="#3f3d56"/>
    <rect id="Rectangle_198" data-name="Rectangle 198" width="24.974" height="5.167" transform="translate(89.091 108.595)" fill="#3f3d56"/>
    <rect id="Rectangle_199" data-name="Rectangle 199" width="24.974" height="5.167" transform="translate(89.091 118.929)" fill="#3f3d56"/>
    <rect id="Rectangle_200" data-name="Rectangle 200" width="24.974" height="5.167" transform="translate(89.091 129.263)" fill="#3f3d56"/>
    <rect id="Rectangle_201" data-name="Rectangle 201" width="24.974" height="5.167" transform="translate(89.091 139.597)" fill="#3f3d56"/>
    <path id="Path_374" data-name="Path 374" d="M678.773,316.854l-2.153-1.723,12.056-10.765h30.571v9.473l-19.807,13.348Z" transform="translate(-465.362 -209.336)" fill="#3f3d56"/>
    <path id="Path_375" data-name="Path 375" d="M775.134,310.405v-5.823h-4.059v1.426l-1.515-1.641-9.9,10.765-3.875,2.584-6.009,43.9,9.062,9.062h21.06V315.562Z" transform="translate(-515.675 -209.336)" fill="#ccc"/>
    <rect id="Rectangle_202" data-name="Rectangle 202" width="32.724" height="55.545" transform="translate(211.258 105.796)" fill="#f2f2f2"/>
    <rect id="Rectangle_203" data-name="Rectangle 203" width="6.028" height="13.563" transform="translate(223.96 147.778)" fill="#ccc"/>
    <path id="Path_376" data-name="Path 376" d="M690.925,480.974v-2.153h-2.583v2.153h2.583Z" transform="translate(-473.424 -329.321)" fill="#3f3d56"/>
    <path id="Path_377" data-name="Path 377" d="M690.71,491.232h-2.368v2.153h2.583v-2.153Z" transform="translate(-473.424 -337.857)" fill="#3f3d56"/>
    <rect id="Rectangle_204" data-name="Rectangle 204" width="2.583" height="2.153" transform="translate(219.223 149.5)" fill="#3f3d56"/>
    <rect id="Rectangle_205" data-name="Rectangle 205" width="2.583" height="2.153" transform="translate(219.223 153.375)" fill="#3f3d56"/>
    <path id="Path_378" data-name="Path 378" d="M747.467,480.974v-2.153h-2.583v2.153h2.583Z" transform="translate(-512.312 -329.321)" fill="#3f3d56"/>
    <path id="Path_379" data-name="Path 379" d="M747.252,491.232h-2.368v2.153h2.583v-2.153Z" transform="translate(-512.312 -337.857)" fill="#3f3d56"/>
    <rect id="Rectangle_206" data-name="Rectangle 206" width="2.583" height="2.153" transform="translate(236.877 149.5)" fill="#3f3d56"/>
    <rect id="Rectangle_207" data-name="Rectangle 207" width="2.583" height="2.153" transform="translate(236.877 153.375)" fill="#3f3d56"/>
    <path id="Path_380" data-name="Path 380" d="M805.388,343.066v-2.153h-2.583v2.153h2.583Z" transform="translate(-552.149 -234.471)" fill="#3f3d56"/>
    <path id="Path_381" data-name="Path 381" d="M805.173,353.325h-2.368v2.153h2.583v-2.153Z" transform="translate(-552.149 -243.008)" fill="#3f3d56"/>
    <rect id="Rectangle_208" data-name="Rectangle 208" width="2.583" height="2.153" transform="translate(254.962 106.442)" fill="#3f3d56"/>
    <rect id="Rectangle_209" data-name="Rectangle 209" width="2.583" height="2.153" transform="translate(254.962 110.317)" fill="#3f3d56"/>
    <path id="Path_382" data-name="Path 382" d="M805.388,381.68v-2.153h-2.583v2.153h2.583Z" transform="translate(-552.149 -261.029)" fill="#3f3d56"/>
    <path id="Path_383" data-name="Path 383" d="M805.173,391.939h-2.368v2.153h2.583v-2.153Z" transform="translate(-552.149 -269.566)" fill="#3f3d56"/>
    <rect id="Rectangle_210" data-name="Rectangle 210" width="2.583" height="2.153" transform="translate(254.962 118.498)" fill="#3f3d56"/>
    <rect id="Rectangle_211" data-name="Rectangle 211" width="2.583" height="2.153" transform="translate(254.962 122.373)" fill="#3f3d56"/>
    <path id="Path_384" data-name="Path 384" d="M805.388,420.294v-2.153h-2.583v2.153h2.583Z" transform="translate(-552.149 -287.587)" fill="#3f3d56"/>
    <path id="Path_385" data-name="Path 385" d="M805.173,430.553h-2.368v2.153h2.583v-2.153Z" transform="translate(-552.149 -296.123)" fill="#3f3d56"/>
    <rect id="Rectangle_212" data-name="Rectangle 212" width="2.583" height="2.153" transform="translate(254.962 130.554)" fill="#3f3d56"/>
    <rect id="Rectangle_213" data-name="Rectangle 213" width="2.583" height="2.153" transform="translate(254.962 134.43)" fill="#3f3d56"/>
    <path id="Path_386" data-name="Path 386" d="M805.388,458.908v-2.153h-2.583v2.153h2.583Z" transform="translate(-552.149 -314.144)" fill="#3f3d56"/>
    <path id="Path_387" data-name="Path 387" d="M805.173,469.167h-2.368v2.153h2.583v-2.153Z" transform="translate(-552.149 -322.681)" fill="#3f3d56"/>
    <rect id="Rectangle_214" data-name="Rectangle 214" width="2.583" height="2.153" transform="translate(254.962 142.611)" fill="#3f3d56"/>
    <rect id="Rectangle_215" data-name="Rectangle 215" width="2.583" height="2.153" transform="translate(254.962 146.486)" fill="#3f3d56"/>
    <rect id="Rectangle_216" data-name="Rectangle 216" width="24.974" height="5.167" transform="translate(214.918 108.595)" fill="#3f3d56"/>
    <rect id="Rectangle_217" data-name="Rectangle 217" width="24.974" height="5.167" transform="translate(214.918 118.929)" fill="#3f3d56"/>
    <rect id="Rectangle_218" data-name="Rectangle 218" width="24.974" height="5.167" transform="translate(214.918 129.263)" fill="#3f3d56"/>
    <rect id="Rectangle_219" data-name="Rectangle 219" width="24.974" height="5.167" transform="translate(214.918 139.597)" fill="#3f3d56"/>
    <path id="Path_388" data-name="Path 388" d="M899.773,316.854l-2.153-1.723,12.056-10.765h30.572v9.473l-19.807,13.348Z" transform="translate(-617.36 -209.336)" fill="#3f3d56"/>
    <path id="Path_389" data-name="Path 389" d="M996.134,310.405v-5.823h-4.059v1.426l-1.514-1.641-9.9,10.765-3.875,2.584-6.009,43.9,9.062,9.062H1000.9V315.562Z" transform="translate(-667.673 -209.336)" fill="#ccc"/>
    <rect id="Rectangle_220" data-name="Rectangle 220" width="32.724" height="55.545" transform="translate(280.26 105.796)" fill="#f2f2f2"/>
    <rect id="Rectangle_221" data-name="Rectangle 221" width="6.028" height="13.563" transform="translate(292.961 147.778)" fill="#ccc"/>
    <path id="Path_390" data-name="Path 390" d="M911.925,480.974v-2.153h-2.583v2.153h2.583Z" transform="translate(-625.423 -329.321)" fill="#3f3d56"/>
    <path id="Path_391" data-name="Path 391" d="M911.71,491.232h-2.368v2.153h2.583v-2.153Z" transform="translate(-625.423 -337.857)" fill="#3f3d56"/>
    <rect id="Rectangle_222" data-name="Rectangle 222" width="2.583" height="2.153" transform="translate(288.225 149.5)" fill="#3f3d56"/>
    <rect id="Rectangle_223" data-name="Rectangle 223" width="2.583" height="2.153" transform="translate(288.225 153.375)" fill="#3f3d56"/>
    <path id="Path_392" data-name="Path 392" d="M968.467,480.974v-2.153h-2.583v2.153h2.583Z" transform="translate(-664.311 -329.321)" fill="#3f3d56"/>
    <path id="Path_393" data-name="Path 393" d="M968.252,491.232h-2.368v2.153h2.583v-2.153Z" transform="translate(-664.311 -337.857)" fill="#3f3d56"/>
    <rect id="Rectangle_224" data-name="Rectangle 224" width="2.583" height="2.153" transform="translate(305.879 149.5)" fill="#3f3d56"/>
    <rect id="Rectangle_225" data-name="Rectangle 225" width="2.583" height="2.153" transform="translate(305.879 153.375)" fill="#3f3d56"/>
    <path id="Path_394" data-name="Path 394" d="M1026.385,343.066v-2.153H1023.8v2.153h2.585Z" transform="translate(-704.144 -234.471)" fill="#3f3d56"/>
    <path id="Path_395" data-name="Path 395" d="M1026.17,353.325h-2.37v2.153h2.585v-2.153Z" transform="translate(-704.144 -243.008)" fill="#3f3d56"/>
    <rect id="Rectangle_226" data-name="Rectangle 226" width="2.583" height="2.153" transform="translate(323.965 106.442)" fill="#3f3d56"/>
    <rect id="Rectangle_227" data-name="Rectangle 227" width="2.583" height="2.153" transform="translate(323.965 110.317)" fill="#3f3d56"/>
    <path id="Path_396" data-name="Path 396" d="M1026.385,381.68v-2.153H1023.8v2.153h2.585Z" transform="translate(-704.144 -261.029)" fill="#3f3d56"/>
    <path id="Path_397" data-name="Path 397" d="M1026.17,391.939h-2.37v2.153h2.585v-2.153Z" transform="translate(-704.144 -269.566)" fill="#3f3d56"/>
    <rect id="Rectangle_228" data-name="Rectangle 228" width="2.583" height="2.153" transform="translate(323.965 118.498)" fill="#3f3d56"/>
    <rect id="Rectangle_229" data-name="Rectangle 229" width="2.583" height="2.153" transform="translate(323.965 122.373)" fill="#3f3d56"/>
    <path id="Path_398" data-name="Path 398" d="M1026.385,420.294v-2.153H1023.8v2.153h2.585Z" transform="translate(-704.144 -287.587)" fill="#3f3d56"/>
    <path id="Path_399" data-name="Path 399" d="M1026.17,430.553h-2.37v2.153h2.585v-2.153Z" transform="translate(-704.144 -296.123)" fill="#3f3d56"/>
    <rect id="Rectangle_230" data-name="Rectangle 230" width="2.583" height="2.153" transform="translate(323.965 130.554)" fill="#3f3d56"/>
    <rect id="Rectangle_231" data-name="Rectangle 231" width="2.583" height="2.153" transform="translate(323.965 134.43)" fill="#3f3d56"/>
    <path id="Path_400" data-name="Path 400" d="M1026.385,458.908v-2.153H1023.8v2.153h2.585Z" transform="translate(-704.144 -314.144)" fill="#3f3d56"/>
    <path id="Path_401" data-name="Path 401" d="M1026.17,469.167h-2.37v2.153h2.585v-2.153Z" transform="translate(-704.144 -322.681)" fill="#3f3d56"/>
    <rect id="Rectangle_232" data-name="Rectangle 232" width="2.583" height="2.153" transform="translate(323.965 142.611)" fill="#3f3d56"/>
    <rect id="Rectangle_233" data-name="Rectangle 233" width="2.583" height="2.153" transform="translate(323.965 146.486)" fill="#3f3d56"/>
    <rect id="Rectangle_234" data-name="Rectangle 234" width="24.974" height="5.167" transform="translate(283.919 108.595)" fill="#3f3d56"/>
    <rect id="Rectangle_235" data-name="Rectangle 235" width="24.974" height="5.167" transform="translate(283.919 118.929)" fill="#3f3d56"/>
    <rect id="Rectangle_236" data-name="Rectangle 236" width="24.974" height="5.167" transform="translate(283.919 129.263)" fill="#3f3d56"/>
    <rect id="Rectangle_237" data-name="Rectangle 237" width="24.974" height="5.167" transform="translate(283.919 139.597)" fill="#3f3d56"/>
    <rect id="Rectangle_238" data-name="Rectangle 238" width="355" height="0.624" transform="translate(0 161.126)" fill="#3f3d56"/>
    <rect id="Rectangle_239" data-name="Rectangle 239" width="0.624" height="24.666" transform="translate(78.681 136.46)" fill="#3f3d56"/>
    <path id="Path_402" data-name="Path 402" d="M277.082,603.757c.04,8.625-6.028,15.645-6.028,15.645s-6.133-6.964-6.172-15.589,6.028-15.645,6.028-15.645S277.042,595.132,277.082,603.757Z" transform="translate(-192.013 -464.153)" fill="#f9d036"/>
    <rect id="Rectangle_240" data-name="Rectangle 240" width="0.624" height="24.666" transform="translate(141.126 136.46)" fill="#3f3d56"/>
    <path id="Path_403" data-name="Path 403" d="M477.082,603.757c.04,8.625-6.028,15.645-6.028,15.645s-6.133-6.964-6.172-15.589,6.028-15.645,6.028-15.645S477.042,595.132,477.082,603.757Z" transform="translate(-329.568 -464.153)" fill="#f9d036"/>
    <rect id="Rectangle_241" data-name="Rectangle 241" width="0.624" height="24.666" transform="translate(265.704 136.46)" fill="#3f3d56"/>
    <path id="Path_404" data-name="Path 404" d="M876.082,603.757c.04,8.625-6.028,15.645-6.028,15.645s-6.133-6.964-6.172-15.589,6.028-15.645,6.028-15.645S876.042,595.132,876.082,603.757Z" transform="translate(-603.99 -464.153)" fill="#f9d036"/>
    <ellipse id="Ellipse_85" data-name="Ellipse 85" cx="11.865" cy="2.67" rx="11.865" ry="2.67" transform="translate(171.568 48.379)" fill="#f9d036"/>
    <path id="Path_405" data-name="Path 405" d="M601.476,204.71c0,7.587-13.738,29.037-13.738,29.037S574,212.3,574,204.71a13.738,13.738,0,0,1,27.476,0Z" transform="translate(-404.618 -190.972)" fill="#f9d036"/>
    <circle id="Ellipse_86" data-name="Ellipse 86" cx="7.806" cy="7.806" r="7.806" transform="translate(175.314 5.932)" fill="#f2f2f2"/>
  </g>
</svg>
