<svg xmlns="http://www.w3.org/2000/svg" width="334" height="238.351" viewBox="0 0 334 238.351">
  <g id="undraw_Share_re_9kfx" transform="translate(0 0)">
    <circle id="Ellipse_130" data-name="Ellipse 130" cx="14.019" cy="14.019" r="14.019" transform="translate(12.052 4.925)" fill="#ff6584"/>
    <path id="Path_653" data-name="Path 653" d="M452.313,633.6a109.276,109.276,0,0,0,35.04,8.11,88.113,88.113,0,0,0,17.011-.377c4.92-.654,9.918-1.994,14.02-4.9a20.8,20.8,0,0,0,8.119-12.212,27.343,27.343,0,0,0-1.065-15.619,38.912,38.912,0,0,0-8.577-13.857c-3.411-3.491-8.189-6.667-13.3-6.069-4.911.574-8.482,4.544-9.79,9.137-1.568,5.506.236,11.331,2.683,16.289a51.764,51.764,0,0,0,18.7,20.486,54.189,54.189,0,0,0,26.466,8.481c9.428.425,19.568-1.762,27-7.853a23.644,23.644,0,0,0,7.973-12.406,34.012,34.012,0,0,0-.167-15.736c-2.478-11.176-9.024-20.782-12.814-31.479a50.622,50.622,0,0,1-2.163-8.022c-.125-.7-1.192-.4-1.067.294,1.96,11,8.163,20.479,12.235,30.727,3.709,9.335,5.916,20.8.422,29.91-4.942,8.2-14.758,12.2-23.912,13.216a51.059,51.059,0,0,1-26.32-4.273,52.931,52.931,0,0,1-21.03-16.744,40.779,40.779,0,0,1-6.722-13.244c-1.32-4.89-1.01-10.43,2.48-14.38a9.7,9.7,0,0,1,6.031-3.3,11.942,11.942,0,0,1,7.018,1.516c4.6,2.444,8.019,6.691,10.659,11.084a31.7,31.7,0,0,1,4.84,15.014,22.3,22.3,0,0,1-4.1,14.053c-6.153,8.285-17.717,9.291-27.207,9.355a108.175,108.175,0,0,1-34.257-5.345q-4.009-1.31-7.906-2.931c-.657-.273-.944.8-.294,1.067Z" transform="translate(-339.566 -404.77)" fill="#e6e6e6"/>
    <path id="Path_654" data-name="Path 654" d="M369.207,611.673l-2.972-4.562a2.4,2.4,0,0,1,.7-3.318l18.1-14.073a2.4,2.4,0,0,1,3.318.7l2.972,4.562a2.4,2.4,0,0,1-.7,3.318l-18.1,14.073a2.4,2.4,0,0,1-3.318-.7Z" transform="translate(-285.231 -418.753)" fill="#2f2e41"/>
    <path id="Path_655" data-name="Path 655" d="M366.72,623.6l4.775-2.617a2.4,2.4,0,0,1,3.255.95l12.678,22.843a2.4,2.4,0,0,1-.95,3.255l-4.775,2.617a2.4,2.4,0,0,1-3.255-.95L365.77,626.859A2.4,2.4,0,0,1,366.72,623.6Z" transform="translate(-284.997 -438.544)" fill="#2f2e41"/>
    <path id="Path_656" data-name="Path 656" d="M274.183,492.366a2.4,2.4,0,0,1-2.389-2.241l-.356-5.434a2.4,2.4,0,0,1,2.236-2.55l42.569-2.788a5.121,5.121,0,1,1,.669,10.219l-42.569,2.788Q274.263,492.366,274.183,492.366Z" transform="translate(-225.649 -349.342)" fill="#f9d036"/>
    <path id="Path_657" data-name="Path 657" d="M297.021,492.217a2.4,2.4,0,0,1-2.4-2.309l-.3-8.116a2.4,2.4,0,0,1,2.307-2.486L331.635,478a2.4,2.4,0,0,1,2.486,2.307l.3,8.116a2.4,2.4,0,0,1-2.307,2.486l-35.006,1.309Z" transform="translate(-240.093 -348.493)" fill="#ccc"/>
    <path id="Path_658" data-name="Path 658" d="M260.469,583.081V565.469A50.989,50.989,0,0,0,241.794,525.7c-8.946-7.213-21.9-12.607-40.464-11.4l7.071-28.284L147.332,527.8l59.783,41.784L201.008,542.9S238.292,535.833,260.469,583.081Z" transform="translate(-147.332 -353.552)" fill="#3f3d56"/>
    <path id="Path_659" data-name="Path 659" d="M329.013,597.977l-4.4-3.2a2.4,2.4,0,0,1-.529-3.35l26.689-36.706a2.4,2.4,0,0,1,3.35-.529l4.4,3.2a2.4,2.4,0,0,1,.529,3.35l-26.689,36.706A2.4,2.4,0,0,1,329.013,597.977Z" transform="translate(-258.584 -396.287)" fill="#2f2e41"/>
    <path id="Path_660" data-name="Path 660" d="M323.957,647.4l3.527-4.148a2.4,2.4,0,0,1,3.38-.273l19.992,16.818a2.4,2.4,0,0,1,.274,3.38L347.6,667.32a2.4,2.4,0,0,1-3.38.273L324.23,650.775A2.4,2.4,0,0,1,323.957,647.4Z" transform="translate(-258.436 -452.245)" fill="#2f2e41"/>
    <circle id="Ellipse_131" data-name="Ellipse 131" cx="18.815" cy="18.815" r="18.815" transform="translate(70.864 83.364)" fill="#f9d036"/>
    <path id="Path_661" data-name="Path 661" d="M361.913,405.707a4.462,4.462,0,0,1-1.855-.361,3,3,0,0,1-1.616-1.95,2.019,2.019,0,0,1,.331-1.763,2.611,2.611,0,0,1,2.338-.854l-2.471-6.917.695-.248,2.9,8.132-.655-.149a2.235,2.235,0,0,0-2.23.489,1.3,1.3,0,0,0-.2,1.132,2.268,2.268,0,0,0,1.2,1.454,6.1,6.1,0,0,0,3.58.054l.131.726a12.166,12.166,0,0,1-2.16.254Z" transform="translate(-280.511 -295.24)" fill="#2f2e41"/>
    <rect id="Rectangle_682" data-name="Rectangle 682" width="3.974" height="0.738" transform="translate(70.832 100.797) rotate(-11.864)" fill="#2f2e41"/>
    <rect id="Rectangle_683" data-name="Rectangle 683" width="3.974" height="0.738" transform="translate(83.108 98.217) rotate(-11.864)" fill="#2f2e41"/>
    <path id="Path_662" data-name="Path 662" d="M373.363,525H341.636a3.139,3.139,0,0,1-3.136-3.136l6.642-50.935a3.132,3.132,0,0,1,3.134-3.112h11.26A16.982,16.982,0,0,1,376.5,484.777v37.084A3.139,3.139,0,0,1,373.363,525Z" transform="translate(-267.973 -342.066)" fill="#ccc"/>
    <path id="Path_663" data-name="Path 663" d="M290.78,518.187a2.4,2.4,0,0,1-2.192-1.416L286.36,511.8a2.4,2.4,0,0,1,1.207-3.169l38.923-17.461a5.12,5.12,0,0,1,4.192,9.344l-38.923,17.461A2.385,2.385,0,0,1,290.78,518.187Z" transform="translate(-234.936 -356.523)" fill="#f9d036"/>
    <path id="Path_664" data-name="Path 664" d="M318.857,510.969a2.4,2.4,0,0,1-2.192-1.416l-3.807-8.486a2.4,2.4,0,0,1,1.206-3.169l31.962-14.338a2.4,2.4,0,0,1,3.169,1.206L353,493.252a2.4,2.4,0,0,1-1.207,3.169l-31.961,14.338A2.387,2.387,0,0,1,318.857,510.969Z" transform="translate(-251.659 -351.87)" fill="#ccc"/>
    <path id="Path_665" data-name="Path 665" d="M349.212,344.55c-3.064-1.128-5.582,1.845-8.358,2.525a6.727,6.727,0,0,1-6.935-3.114c-1.655-2.6-1.245-5.987.26-8.558a11.99,11.99,0,0,1,7.7-5.3,22.668,22.668,0,0,1,10.8.439,44.955,44.955,0,0,1,9.755,3.512,17.3,17.3,0,0,1,7.109,6.194,11.373,11.373,0,0,1,1.491,8.483,8.93,8.93,0,0,1-2.267,3.92c-1.111,1.176-2.385,2.2-3.421,3.444-1.567,1.887-2.62,4.979-1.075,7.211a3.613,3.613,0,0,0,1.31,1.161c.631.329,1.191-.626.559-.956a3.046,3.046,0,0,1-1.485-2.951,6,6,0,0,1,1.473-3.683c1.085-1.3,2.427-2.36,3.573-3.607a9.968,9.968,0,0,0,2.366-4.118,12.33,12.33,0,0,0-1.264-8.925,17.438,17.438,0,0,0-7.02-6.7,43.568,43.568,0,0,0-9.956-3.827,25.719,25.719,0,0,0-11.29-.864,13.777,13.777,0,0,0-8.524,4.846,10.176,10.176,0,0,0-1.909,8.962,8.2,8.2,0,0,0,6.16,5.553,7.047,7.047,0,0,0,4.285-.559,32.159,32.159,0,0,1,4.273-2.074,3.3,3.3,0,0,1,2.1.056c.669.247.958-.823.294-1.067Z" transform="translate(-263.708 -254.167)" fill="#2f2e41"/>
    <path id="Path_666" data-name="Path 666" d="M746,409.113V391.5a50.989,50.989,0,0,1,18.676-39.769c8.945-7.213,21.9-12.607,40.464-11.4l-7.071-28.285,61.068,41.784-59.783,41.784,6.107-26.677S768.177,361.865,746,409.113Z" transform="translate(-525.136 -243.765)" fill="#3f3d56"/>
    <path id="Path_667" data-name="Path 667" d="M832.718,313a5.121,5.121,0,0,1,2.672-9.077L877.81,299.4a2.4,2.4,0,0,1,2.639,2.13l-.184.02.184-.02.578,5.414a2.4,2.4,0,0,1-2.13,2.639l-42.419,4.529a5.213,5.213,0,0,1-.554.03A5.081,5.081,0,0,1,832.718,313Z" transform="translate(-578.66 -235.775)" fill="#f9d036"/>
    <path id="Path_668" data-name="Path 668" d="M869.847,424.272v-5.445a2.4,2.4,0,0,1,2.4-2.4h45.383a2.4,2.4,0,0,1,2.4,2.4v5.445a2.4,2.4,0,0,1-2.4,2.4H872.245A2.4,2.4,0,0,1,869.847,424.272Z" transform="translate(-603.293 -309.639)" fill="#f9d036"/>
    <path id="Path_669" data-name="Path 669" d="M805.854,397.456a2.383,2.383,0,0,1-1.2-1.39l-1.707-5.171a2.4,2.4,0,0,1,1.525-3.029l43.095-14.229a2.4,2.4,0,0,1,3.029,1.525l-.175.058.175-.058,1.707,5.171a2.4,2.4,0,0,1-1.525,3.029l-43.095,14.229a2.384,2.384,0,0,1-1.83-.135Z" transform="translate(-560.999 -282.557)" fill="#f9d036"/>
    <path id="Path_670" data-name="Path 670" d="M929.736,398.841,910.395,381.4a2.4,2.4,0,0,1-.175-3.387l3.646-4.044a2.4,2.4,0,0,1,3.387-.175l19.341,17.439a2.4,2.4,0,0,1,.175,3.387l-3.646,4.044a2.382,2.382,0,0,1-1.657.789c-.043,0-.085,0-.127,0A2.382,2.382,0,0,1,929.736,398.841Z" transform="translate(-628.383 -282.345)" fill="#f9d036"/>
    <circle id="Ellipse_132" data-name="Ellipse 132" cx="18.815" cy="18.815" r="18.815" transform="translate(233.367 16.217)" fill="#f9d036"/>
    <path id="Path_671" data-name="Path 671" d="M767.763,337.818a14.678,14.678,0,0,1,0-14.829l19.944-34.544a2.4,2.4,0,0,1,4.154,0l30.71,53.19a2.4,2.4,0,0,1-2.077,3.6H780.605A14.678,14.678,0,0,1,767.763,337.818Z" transform="translate(-537.602 -228.115)" fill="#ccc"/>
    <path id="Path_672" data-name="Path 672" d="M872.894,219.846a6.788,6.788,0,0,0,3.907-.93,3,3,0,0,0,1.181-2.24,2.018,2.018,0,0,0-.686-1.658,2.6,2.6,0,0,0-2.464-.355l1-7.277-.731-.1-1.171,8.556.61-.28a2.235,2.235,0,0,1,2.283.02,1.3,1.3,0,0,1,.425,1.068,2.268,2.268,0,0,1-.878,1.67,6.1,6.1,0,0,1-3.492.789Z" transform="translate(-605.203 -177.653)" fill="#2f2e41"/>
    <rect id="Rectangle_684" data-name="Rectangle 684" width="3.974" height="0.738" transform="translate(261.696 30.36)" fill="#2f2e41"/>
    <path id="Path_673" data-name="Path 673" d="M722.867,139.807a15.581,15.581,0,0,0-7.838-10.063,15.082,15.082,0,0,0-12.943-.4,14.911,14.911,0,0,0-8.575,10.014,15.552,15.552,0,0,0-.236,6.821,17.7,17.7,0,0,0,2.988,6.641c1.458,2.111,3.171,4.026,4.744,6.048a56.366,56.366,0,0,1,11.525,28.2,33.643,33.643,0,0,1,.169,7c-.424,4.533-2.18,8.972-6.21,11.439a21.1,21.1,0,0,1-7.062,2.462,32.145,32.145,0,0,1-8.359.653c-4.738-.337-9.48-2.314-12.231-6.341a11.3,11.3,0,0,1-1.416-2.909c-.219-.679.849-.97,1.067-.294,1.457,4.518,5.881,7.3,10.357,8.153a25.335,25.335,0,0,0,8.421-.008,26.046,26.046,0,0,0,7.461-2.018,11.173,11.173,0,0,0,5-4.624,16.3,16.3,0,0,0,1.843-6.3,41.879,41.879,0,0,0-1.513-14.493,55.779,55.779,0,0,0-5.865-14.245,54.772,54.772,0,0,0-4.358-6.377c-1.585-2-3.277-3.921-4.707-6.038a18.189,18.189,0,0,1-2.924-6.649,16.853,16.853,0,0,1,.12-6.93,15.97,15.97,0,0,1,8.076-10.616,16.427,16.427,0,0,1,13.11-1.057,16.744,16.744,0,0,1,9.375,8.624,15.965,15.965,0,0,1,1.046,3.021c.163.693-.9.988-1.067.294Z" transform="translate(-481.84 -126.965)" fill="#2f2e41"/>
    <path id="Path_674" data-name="Path 674" d="M772.706,152.538a8.52,8.52,0,0,0-9.949-5.483c-.693.162-.989-.9-.294-1.067a9.524,9.524,0,0,1,11.31,6.256c.232.675-.837.965-1.067.294Z" transform="translate(-535.276 -138.796)" fill="#2f2e41"/>
    <path id="Path_675" data-name="Path 675" d="M790.166,166.476a2.031,2.031,0,0,1,1.063-2.665l5.084-2.185a2.029,2.029,0,0,1,1.6,3.729l-5.084,2.185a2.029,2.029,0,0,1-2.666-1.063Z" transform="translate(-552.905 -148.734)" fill="#2f2e41"/>
    <path id="Path_676" data-name="Path 676" d="M811.314,370.174l-5.428-.44a2.4,2.4,0,0,1-2.2-2.584l3.452-42.52a5.121,5.121,0,0,1,10.208.829l-3.452,42.52a2.4,2.4,0,0,1-2.386,2.2Q811.413,370.183,811.314,370.174Z" transform="translate(-561.538 -248.736)" fill="#f9d036"/>
    <path id="Path_677" data-name="Path 677" d="M157.446,186.583a8.95,8.95,0,1,1,16.923-5.643,12.891,12.891,0,1,1,24.642-2.769,10.454,10.454,0,0,1,18.514,9.335l-61.749-.11" transform="translate(-152.661 -149.807)" fill="#f2f2f2"/>
    <path id="Path_678" data-name="Path 678" d="M496.446,326.583a8.95,8.95,0,1,1,16.923-5.643,12.891,12.891,0,1,1,24.642-2.769,10.454,10.454,0,0,1,18.514,9.335l-61.749-.11" transform="translate(-366.595 -238.157)" fill="#f2f2f2"/>
  </g>
</svg>
