<svg xmlns="http://www.w3.org/2000/svg" width="27.9" height="18" viewBox="0 0 27.9 18">
  <g id="united-states" transform="translate(0 -90.839)">
    <path id="Path_599" data-name="Path 599" d="M35.51,90.839H22.91L9,100.466v8H35.51l.9-.528v-1.671l-.586-.557v-1.58l.586-.434v-2.571l-.527-.5V99l.527-.45V95.982l-.527-.466V94.1l.527-.689V91.739A.9.9,0,0,0,35.51,90.839Z" transform="translate(-8.51)" fill="#e5646e"/>
    <path id="Path_600" data-name="Path 600" d="M256.333,138.028h13.932V140.6H256.333Z" transform="translate(-242.365 -44.618)" fill="#f2f2f6"/>
    <path id="Path_601" data-name="Path 601" d="M256,232.4l.45,2.571h13.5V232.4Z" transform="translate(-242.05 -133.852)" fill="#f2f2f6"/>
    <path id="Path_602" data-name="Path 602" d="M.9,275.583V271l-.9.468v2.571l.381.325v1.689L0,276.611v1.671a.9.9,0,0,0,.9.9H27a.9.9,0,0,0,.9-.9H3.6a2.7,2.7,0,0,1-2.7-2.7Z" transform="translate(0 -170.344)" fill="#db4655"/>
    <path id="Path_603" data-name="Path 603" d="M20.073,90.839H6.573l-.573.9.573,9.386h13.5Z" transform="translate(-5.673)" fill="#5055a0"/>
    <path id="Path_604" data-name="Path 604" d="M.9,90.839a.9.9,0,0,0-.9.9v9.386H.9Z" transform="translate(0)" fill="#3f3f8f"/>
    <path id="Path_605" data-name="Path 605" d="M25.267,112.041a.45.45,0,0,1,0-.9h0a.45.45,0,1,1,0,.9Z" transform="translate(-23.463 -19.196)" fill="#fff"/>
    <path id="Path_606" data-name="Path 606" d="M25.267,178.106a.45.45,0,0,1,0-.9h0a.45.45,0,1,1,0,.9Z" transform="translate(-23.463 -81.661)" fill="#fff"/>
    <path id="Path_607" data-name="Path 607" d="M25.267,244.17a.45.45,0,0,1,0-.9h0a.45.45,0,1,1,0,.9Z" transform="translate(-23.463 -144.125)" fill="#fff"/>
    <path id="Path_608" data-name="Path 608" d="M25.267,145.074a.45.45,0,0,1,0-.9h0a.45.45,0,1,1,0,.9Z" transform="translate(-23.463 -50.429)" fill="#f2f2f6"/>
    <path id="Path_609" data-name="Path 609" d="M25.267,211.138a.45.45,0,0,1,0-.9h0a.45.45,0,1,1,0,.9Z" transform="translate(-23.463 -112.893)" fill="#f2f2f6"/>
    <path id="Path_610" data-name="Path 610" d="M223.46,112.041a.45.45,0,0,1,0-.9h0a.45.45,0,1,1,0,.9Z" transform="translate(-210.856 -19.196)" fill="#fff"/>
    <path id="Path_611" data-name="Path 611" d="M223.46,178.106a.45.45,0,0,1,0-.9h0a.45.45,0,1,1,0,.9Z" transform="translate(-210.856 -81.661)" fill="#fff"/>
    <path id="Path_612" data-name="Path 612" d="M223.46,244.17a.45.45,0,0,1,0-.9h0a.45.45,0,1,1,0,.9Z" transform="translate(-210.856 -144.125)" fill="#fff"/>
    <g id="Group_733" data-name="Group 733" transform="translate(4.052 91.945)">
      <path id="Path_613" data-name="Path 613" d="M223.46,145.074a.45.45,0,0,1,0-.9h0a.45.45,0,1,1,0,.9Z" transform="translate(-214.908 -142.374)" fill="#f2f2f6"/>
      <path id="Path_614" data-name="Path 614" d="M223.46,211.138a.45.45,0,0,1,0-.9h0a.45.45,0,1,1,0,.9Z" transform="translate(-214.908 -204.838)" fill="#f2f2f6"/>
      <path id="Path_615" data-name="Path 615" d="M74.815,112.041a.45.45,0,0,1,0-.9h0a.45.45,0,1,1,0,.9Z" transform="translate(-74.363 -111.141)" fill="#f2f2f6"/>
      <path id="Path_616" data-name="Path 616" d="M74.815,178.106a.45.45,0,0,1,0-.9h0a.45.45,0,1,1,0,.9Z" transform="translate(-74.363 -173.606)" fill="#f2f2f6"/>
      <path id="Path_617" data-name="Path 617" d="M74.815,244.17a.45.45,0,0,1,0-.9h0a.45.45,0,1,1,0,.9Z" transform="translate(-74.363 -236.07)" fill="#f2f2f6"/>
    </g>
    <path id="Path_618" data-name="Path 618" d="M74.815,145.074a.45.45,0,0,1,0-.9h0a.45.45,0,1,1,0,.9Z" transform="translate(-70.311 -50.429)" fill="#fff"/>
    <path id="Path_619" data-name="Path 619" d="M74.815,211.138a.45.45,0,0,1,0-.9h0a.45.45,0,1,1,0,.9Z" transform="translate(-70.311 -112.893)" fill="#fff"/>
    <path id="Path_620" data-name="Path 620" d="M50.041,128.557a.45.45,0,0,1,0-.9h0a.45.45,0,1,1,0,.9Z" transform="translate(-46.887 -34.812)" fill="#fff"/>
    <path id="Path_621" data-name="Path 621" d="M50.041,194.622a.45.45,0,0,1,0-.9h0a.45.45,0,1,1,0,.9Z" transform="translate(-46.887 -97.277)" fill="#fff"/>
    <path id="Path_622" data-name="Path 622" d="M50.041,161.59a.45.45,0,0,1,0-.9h0a.45.45,0,1,1,0,.9Z" transform="translate(-46.887 -66.045)" fill="#f2f2f6"/>
    <path id="Path_623" data-name="Path 623" d="M50.041,227.654a.45.45,0,0,1,0-.9h0a.45.45,0,1,1,0,.9Z" transform="translate(-46.887 -128.509)" fill="#f2f2f6"/>
    <path id="Path_624" data-name="Path 624" d="M124.364,112.041a.45.45,0,1,1,0-.9h0a.45.45,0,1,1,0,.9Z" transform="translate(-117.16 -19.196)" fill="#fff"/>
    <path id="Path_625" data-name="Path 625" d="M124.364,178.106a.45.45,0,0,1,0-.9h0a.45.45,0,1,1,0,.9Z" transform="translate(-117.16 -81.661)" fill="#fff"/>
    <path id="Path_626" data-name="Path 626" d="M124.364,244.17a.45.45,0,1,1,0-.9h0a.45.45,0,1,1,0,.9Z" transform="translate(-117.16 -144.125)" fill="#fff"/>
    <path id="Path_627" data-name="Path 627" d="M124.364,145.074a.45.45,0,1,1,0-.9h0a.45.45,0,1,1,0,.9Z" transform="translate(-117.16 -50.429)" fill="#f2f2f6"/>
    <path id="Path_628" data-name="Path 628" d="M124.364,211.138a.45.45,0,1,1,0-.9h0a.45.45,0,1,1,0,.9Z" transform="translate(-117.16 -112.893)" fill="#f2f2f6"/>
    <path id="Path_629" data-name="Path 629" d="M99.589,128.557a.45.45,0,0,1,0-.9h0a.45.45,0,1,1,0,.9Z" transform="translate(-93.735 -34.812)" fill="#f2f2f6"/>
    <path id="Path_630" data-name="Path 630" d="M99.589,194.622a.45.45,0,0,1,0-.9h0a.45.45,0,1,1,0,.9Z" transform="translate(-93.735 -97.277)" fill="#f2f2f6"/>
    <path id="Path_631" data-name="Path 631" d="M99.589,161.59a.45.45,0,0,1,0-.9h0a.45.45,0,1,1,0,.9Z" transform="translate(-93.735 -66.045)" fill="#fff"/>
    <path id="Path_632" data-name="Path 632" d="M99.589,227.654a.45.45,0,0,1,0-.9h0a.45.45,0,1,1,0,.9Z" transform="translate(-93.735 -128.509)" fill="#fff"/>
    <path id="Path_633" data-name="Path 633" d="M173.831,112.041a.45.45,0,0,1,0-.9h0a.45.45,0,1,1,0,.9Z" transform="translate(-163.931 -19.196)" fill="#f2f2f6"/>
    <path id="Path_634" data-name="Path 634" d="M173.831,178.106a.45.45,0,0,1,0-.9h0a.45.45,0,1,1,0,.9Z" transform="translate(-163.931 -81.661)" fill="#f2f2f6"/>
    <path id="Path_635" data-name="Path 635" d="M173.831,244.17a.45.45,0,0,1,0-.9h0a.45.45,0,1,1,0,.9Z" transform="translate(-163.931 -144.125)" fill="#f2f2f6"/>
    <path id="Path_636" data-name="Path 636" d="M173.831,145.074a.45.45,0,0,1,0-.9h0a.45.45,0,1,1,0,.9Z" transform="translate(-163.931 -50.429)" fill="#fff"/>
    <path id="Path_637" data-name="Path 637" d="M173.831,211.138a.45.45,0,0,1,0-.9h0a.45.45,0,1,1,0,.9Z" transform="translate(-163.931 -112.893)" fill="#fff"/>
    <path id="Path_638" data-name="Path 638" d="M149.057,128.557a.45.45,0,0,1,0-.9h0a.45.45,0,1,1,0,.9Z" transform="translate(-140.507 -34.812)" fill="#fff"/>
    <path id="Path_639" data-name="Path 639" d="M149.057,194.622a.45.45,0,0,1,0-.9h0a.45.45,0,1,1,0,.9Z" transform="translate(-140.507 -97.277)" fill="#fff"/>
    <path id="Path_640" data-name="Path 640" d="M149.057,161.59a.45.45,0,0,1,0-.9h0a.45.45,0,1,1,0,.9Z" transform="translate(-140.507 -66.045)" fill="#f2f2f6"/>
    <path id="Path_641" data-name="Path 641" d="M149.057,227.654a.45.45,0,0,1,0-.9h0a.45.45,0,1,1,0,.9Z" transform="translate(-140.507 -128.509)" fill="#f2f2f6"/>
    <path id="Path_642" data-name="Path 642" d="M198.686,128.557a.45.45,0,0,1,0-.9h0a.45.45,0,1,1,0,.9Z" transform="translate(-187.432 -34.812)" fill="#f2f2f6"/>
    <path id="Path_643" data-name="Path 643" d="M198.686,194.622a.45.45,0,0,1,0-.9h0a.45.45,0,1,1,0,.9Z" transform="translate(-187.432 -97.277)" fill="#f2f2f6"/>
    <path id="Path_644" data-name="Path 644" d="M198.686,161.59a.45.45,0,0,1,0-.9h0a.45.45,0,1,1,0,.9Z" transform="translate(-187.432 -66.045)" fill="#fff"/>
    <path id="Path_645" data-name="Path 645" d="M198.686,227.654a.45.45,0,0,1,0-.9h0a.45.45,0,1,1,0,.9Z" transform="translate(-187.432 -128.509)" fill="#fff"/>
    <path id="Path_646" data-name="Path 646" d="M3,328.611l.941.743h26.8v-2.571h-27Z" transform="translate(-2.837 -223.087)" fill="#f2f2f6"/>
    <path id="Path_647" data-name="Path 647" d="M0,326.782v2.571H1.1a2.691,2.691,0,0,1-.2-1.029v-1.543H0Z" transform="translate(0 -223.086)" fill="#e1e1e6"/>
  </g>
</svg>
