<svg xmlns="http://www.w3.org/2000/svg" width="17.902" height="20" viewBox="0 0 17.902 20">
  <g id="user" transform="translate(-24.165)">
    <g id="Group_214" data-name="Group 214" transform="translate(27.925)">
      <g id="Group_213" data-name="Group 213" transform="translate(0)">
        <path id="Path_215" data-name="Path 215" d="M115.984,0a5.193,5.193,0,1,0,5.193,5.193A5.207,5.207,0,0,0,115.984,0Z" transform="translate(-110.791)" fill="#8b8b8b"/>
      </g>
    </g>
    <g id="Group_216" data-name="Group 216" transform="translate(24.165 10.757)">
      <g id="Group_215" data-name="Group 215" transform="translate(0)">
        <path id="Path_216" data-name="Path 216" d="M42.029,251.619a4.841,4.841,0,0,0-.522-.952,6.455,6.455,0,0,0-4.467-2.812.956.956,0,0,0-.658.159,5.535,5.535,0,0,1-6.531,0,.851.851,0,0,0-.658-.159,6.408,6.408,0,0,0-4.467,2.812,5.582,5.582,0,0,0-.522.952.482.482,0,0,0,.023.431,9.048,9.048,0,0,0,.612.907,8.618,8.618,0,0,0,1.043,1.179,13.591,13.591,0,0,0,1.043.907,10.341,10.341,0,0,0,12.336,0,9.971,9.971,0,0,0,1.043-.907,10.471,10.471,0,0,0,1.043-1.179,7.949,7.949,0,0,0,.612-.907A.387.387,0,0,0,42.029,251.619Z" transform="translate(-24.165 -247.841)" fill="#8b8b8b"/>
      </g>
    </g>
  </g>
</svg>
