<svg xmlns="http://www.w3.org/2000/svg" width="23" height="19.904" viewBox="0 0 23 19.904">
  <g id="user_1_" data-name="user (1)" transform="translate(0 -34.462)">
    <g id="Group_13" data-name="Group 13" transform="translate(7.799 43.308)">
      <g id="Group_12" data-name="Group 12">
        <path id="Path_16" data-name="Path 16" d="M177.313,231.385a3.766,3.766,0,0,0-3.7,3.1h7.4A3.766,3.766,0,0,0,177.313,231.385Z" transform="translate(-173.612 -231.385)" fill="#8b8b8b"/>
      </g>
    </g>
    <g id="Group_15" data-name="Group 15" transform="translate(9.51 38)">
      <g id="Group_14" data-name="Group 14">
        <path id="Path_17" data-name="Path 17" d="M213.682,113.231a1.99,1.99,0,1,0,1.99,1.99A1.993,1.993,0,0,0,213.682,113.231Z" transform="translate(-211.692 -113.231)" fill="#8b8b8b"/>
      </g>
    </g>
    <g id="Group_17" data-name="Group 17" transform="translate(0 34.462)">
      <g id="Group_16" data-name="Group 16">
        <path id="Path_18" data-name="Path 18" d="M21.01,34.462H1.99A1.993,1.993,0,0,0,0,36.452V48.837a1.993,1.993,0,0,0,1.99,1.99H8.514L10.969,54.1a.663.663,0,0,0,1.062,0l2.455-3.273H21.01A1.993,1.993,0,0,0,23,48.837V36.452A1.993,1.993,0,0,0,21.01,34.462ZM15.923,47.731H7.077a.663.663,0,0,1-.663-.663,5.093,5.093,0,0,1,2.895-4.59,3.317,3.317,0,1,1,4.383,0,5.093,5.093,0,0,1,2.895,4.59A.663.663,0,0,1,15.923,47.731Z" transform="translate(0 -34.462)" fill="#8b8b8b"/>
      </g>
    </g>
  </g>
</svg>
