<svg id="whatsapp" xmlns="http://www.w3.org/2000/svg" width="22.5" height="22.5" viewBox="0 0 22.5 22.5">
  <g id="Group_11" data-name="Group 11">
    <path id="Path_12" data-name="Path 12" d="M19.343,3.157A10.779,10.779,0,0,0,2.282,15.981L0,22.5l6.519-2.282A10.779,10.779,0,0,0,19.343,3.157ZM17.05,14.782l-1.244,1.244c-1.031,1.031-3.956-.223-6.533-2.8s-3.83-5.5-2.8-6.533L7.718,5.45a.66.66,0,0,1,.933,0l1.555,1.555a.66.66,0,0,1,0,.933l-.933.933a9.156,9.156,0,0,0,4.355,4.355l.933-.933a.66.66,0,0,1,.933,0l1.555,1.555A.66.66,0,0,1,17.05,14.782Z" fill="#8b8b8b"/>
  </g>
</svg>
