<svg xmlns="http://www.w3.org/2000/svg" width="22.2" height="17.077" viewBox="0 0 22.2 17.077">
  <g id="XMLID_17_" transform="translate(0 -45)">
    <path id="XMLID_18_" d="M20.777,47.846H16.744l-.86-2.292a.854.854,0,0,0-.8-.554H7.115a.854.854,0,0,0-.8.554l-.86,2.292H1.423A1.423,1.423,0,0,0,0,49.269V60.654a1.423,1.423,0,0,0,1.423,1.423H20.777A1.423,1.423,0,0,0,22.2,60.654V49.269A1.423,1.423,0,0,0,20.777,47.846ZM11.1,49.554a5.408,5.408,0,1,1-5.408,5.408A5.414,5.414,0,0,1,11.1,49.554Z" fill="#2ec4b6"/>
    <path id="XMLID_21_" d="M130,158.7a3.7,3.7,0,1,0,3.7-3.7A3.7,3.7,0,0,0,130,158.7Z" transform="translate(-122.6 -103.738)" fill="#2ec4b6"/>
  </g>
</svg>
